G04 #@! TF.FileFunction,Copper,L1,Top,Signal*
%FSLAX46Y46*%
G04 Gerber Fmt 4.6, Leading zero omitted, Abs format (unit mm)*
G04 Created by KiCad (PCBNEW 4.0.2-stable) date 1/6/2017 6:18:40 PM*
%MOMM*%
G01*
G04 APERTURE LIST*
%ADD10C,0.100000*%
%ADD11C,0.600000*%
%ADD12R,1.200000X0.900000*%
%ADD13R,1.550000X0.600000*%
%ADD14R,1.500000X1.250000*%
%ADD15R,1.200000X0.750000*%
%ADD16R,1.250000X1.500000*%
%ADD17R,0.750000X1.200000*%
%ADD18C,2.540000*%
%ADD19C,1.270000*%
%ADD20O,1.501140X2.499360*%
%ADD21R,0.900000X1.200000*%
%ADD22R,2.700000X3.200000*%
%ADD23C,5.800000*%
%ADD24R,1.000000X1.300000*%
%ADD25R,1.500000X0.600000*%
%ADD26C,2.510000*%
%ADD27C,1.524000*%
%ADD28R,1.524000X1.524000*%
%ADD29C,0.250000*%
%ADD30C,2.000000*%
%ADD31C,0.254000*%
G04 APERTURE END LIST*
D10*
D11*
X114998500Y-134175500D03*
X107505500Y-130810000D03*
X98044000Y-137287000D03*
X99631500Y-136398000D03*
X56451500Y-149860000D03*
X61722000Y-149733000D03*
X80137000Y-134620000D03*
X86233000Y-133032500D03*
X85979000Y-134175500D03*
X89852500Y-133477000D03*
X89471500Y-136652000D03*
X73279000Y-139255500D03*
X70802500Y-142049500D03*
X63119000Y-139382500D03*
X64325500Y-141033500D03*
X139763500Y-120777000D03*
D12*
X79164000Y-133096000D03*
X81364000Y-133096000D03*
D11*
X119507000Y-137223500D03*
D13*
X64991000Y-146050000D03*
X64991000Y-147320000D03*
X64991000Y-148590000D03*
X64991000Y-149860000D03*
X70391000Y-149860000D03*
X70391000Y-148590000D03*
X70391000Y-147320000D03*
X70391000Y-146050000D03*
D14*
X100985000Y-63754000D03*
X103485000Y-63754000D03*
X108351000Y-64008000D03*
X110851000Y-64008000D03*
X108478000Y-68834000D03*
X110978000Y-68834000D03*
D15*
X135575000Y-123952000D03*
X137475000Y-123952000D03*
D14*
X101620000Y-69088000D03*
X104120000Y-69088000D03*
X105176000Y-73533000D03*
X107676000Y-73533000D03*
D16*
X59436000Y-147213000D03*
X59436000Y-149713000D03*
D17*
X54737000Y-147767000D03*
X54737000Y-149667000D03*
D16*
X73406000Y-136886000D03*
X73406000Y-134386000D03*
D14*
X68814000Y-140208000D03*
X66314000Y-140208000D03*
D16*
X95504000Y-59670000D03*
X95504000Y-57170000D03*
D17*
X74549000Y-148529000D03*
X74549000Y-150429000D03*
D15*
X120589000Y-125095000D03*
X122489000Y-125095000D03*
X120462000Y-121031000D03*
X122362000Y-121031000D03*
X120462000Y-116840000D03*
X122362000Y-116840000D03*
D16*
X96901000Y-132735000D03*
X96901000Y-135235000D03*
X79883000Y-136799000D03*
X79883000Y-139299000D03*
X124968000Y-138410000D03*
X124968000Y-135910000D03*
X108077000Y-133497000D03*
X108077000Y-135997000D03*
D18*
X61722000Y-164338000D03*
X71882000Y-164338000D03*
D19*
X66802000Y-157988000D03*
X66802000Y-155448000D03*
X69342000Y-155448000D03*
X64262000Y-155448000D03*
D20*
X88138000Y-56007000D03*
X85598000Y-56007000D03*
X90678000Y-56007000D03*
D12*
X80180000Y-148717000D03*
X82380000Y-148717000D03*
X85768000Y-148463000D03*
X87968000Y-148463000D03*
X133393000Y-133985000D03*
X135593000Y-133985000D03*
D21*
X129159000Y-133139000D03*
X129159000Y-135339000D03*
D12*
X137498000Y-126492000D03*
X135298000Y-126492000D03*
X135720000Y-137287000D03*
X133520000Y-137287000D03*
X137498000Y-129794000D03*
X135298000Y-129794000D03*
X68283000Y-127635000D03*
X66083000Y-127635000D03*
D17*
X135128000Y-116525000D03*
X135128000Y-118425000D03*
D22*
X86093000Y-66802000D03*
X93993000Y-66802000D03*
D12*
X80983000Y-127635000D03*
X78783000Y-127635000D03*
X80942000Y-124206000D03*
X83142000Y-124206000D03*
X111336000Y-123698000D03*
X109136000Y-123698000D03*
X90000000Y-124079000D03*
X87800000Y-124079000D03*
D21*
X81788000Y-142156000D03*
X81788000Y-144356000D03*
D12*
X95969000Y-124206000D03*
X93769000Y-124206000D03*
D21*
X114554000Y-127338000D03*
X114554000Y-125138000D03*
D12*
X88349000Y-143256000D03*
X86149000Y-143256000D03*
X109263000Y-129159000D03*
X111463000Y-129159000D03*
X112565000Y-110998000D03*
X114765000Y-110998000D03*
X122598000Y-129032000D03*
X124798000Y-129032000D03*
D21*
X107950000Y-139362000D03*
X107950000Y-141562000D03*
D12*
X117813000Y-147066000D03*
X115613000Y-147066000D03*
X121496000Y-148971000D03*
X119296000Y-148971000D03*
X115613000Y-144399000D03*
X117813000Y-144399000D03*
D21*
X59182000Y-137203000D03*
X59182000Y-139403000D03*
X139700000Y-116375000D03*
X139700000Y-118575000D03*
D23*
X93081000Y-152519000D03*
X86736000Y-158019000D03*
X86736000Y-164719000D03*
D18*
X77343000Y-154686000D03*
X72644000Y-154686000D03*
X82042000Y-154686000D03*
X74803000Y-167386000D03*
X79883000Y-167386000D03*
X102997000Y-154686000D03*
X98298000Y-154686000D03*
X107696000Y-154686000D03*
X100457000Y-167386000D03*
X105537000Y-167386000D03*
D24*
X108257400Y-147380800D03*
X111757400Y-147380800D03*
X110007400Y-151180800D03*
X111940400Y-116265800D03*
X115440400Y-116265800D03*
X113690400Y-120065800D03*
D18*
X116840000Y-154686000D03*
X112141000Y-154686000D03*
X121539000Y-154686000D03*
X114300000Y-167386000D03*
X119380000Y-167386000D03*
D25*
X84123000Y-131699000D03*
X84123000Y-132969000D03*
X84123000Y-134239000D03*
X84123000Y-135509000D03*
X84123000Y-136779000D03*
X84123000Y-138049000D03*
X84123000Y-139319000D03*
X84123000Y-140589000D03*
X93423000Y-140589000D03*
X93423000Y-139319000D03*
X93423000Y-138049000D03*
X93423000Y-136779000D03*
X93423000Y-135509000D03*
X93423000Y-134239000D03*
X93423000Y-132969000D03*
X93423000Y-131699000D03*
X112571000Y-131699000D03*
X112571000Y-132969000D03*
X112571000Y-134239000D03*
X112571000Y-135509000D03*
X112571000Y-136779000D03*
X112571000Y-138049000D03*
X112571000Y-139319000D03*
X112571000Y-140589000D03*
X121871000Y-140589000D03*
X121871000Y-139319000D03*
X121871000Y-138049000D03*
X121871000Y-136779000D03*
X121871000Y-135509000D03*
X121871000Y-134239000D03*
X121871000Y-132969000D03*
X121871000Y-131699000D03*
D26*
X100934000Y-55872000D03*
X106014000Y-55872000D03*
X111094000Y-55872000D03*
D13*
X64610000Y-133350000D03*
X64610000Y-134620000D03*
X64610000Y-135890000D03*
X64610000Y-137160000D03*
X70010000Y-137160000D03*
X70010000Y-135890000D03*
X70010000Y-134620000D03*
X70010000Y-133350000D03*
D27*
X102870000Y-130429000D03*
X102870000Y-127889000D03*
D28*
X102870000Y-125349000D03*
D27*
X102870000Y-144272000D03*
X102870000Y-141732000D03*
D28*
X102870000Y-139192000D03*
D27*
X128397000Y-124206000D03*
X128397000Y-121666000D03*
D28*
X128397000Y-119126000D03*
D26*
X62580000Y-55999000D03*
X67660000Y-55999000D03*
X74391000Y-55999000D03*
X79471000Y-55999000D03*
D11*
X66103500Y-142303500D03*
X73533000Y-132715000D03*
X77978000Y-138938000D03*
X102743000Y-71120000D03*
X106045000Y-135128000D03*
X66929000Y-147320000D03*
X100330000Y-72771000D03*
X113411000Y-72517000D03*
X126365000Y-135509000D03*
X107950000Y-76200000D03*
X98933000Y-134620000D03*
X66294000Y-138557000D03*
X105791000Y-72136000D03*
X75946000Y-134112000D03*
X91694000Y-139319000D03*
X132842000Y-139573000D03*
X108712000Y-120015000D03*
D29*
X73406000Y-134386000D02*
X73406000Y-132842000D01*
X73406000Y-132842000D02*
X73533000Y-132715000D01*
X70010000Y-134620000D02*
X73172000Y-134620000D01*
X73172000Y-134620000D02*
X73406000Y-134386000D01*
X79883000Y-139299000D02*
X78339000Y-139299000D01*
X78339000Y-139299000D02*
X77978000Y-138938000D01*
X79883000Y-139299000D02*
X79883000Y-139065000D01*
X79883000Y-139065000D02*
X82423000Y-136525000D01*
X82423000Y-136525000D02*
X82423000Y-135890000D01*
X82423000Y-135890000D02*
X82804000Y-135509000D01*
X82804000Y-135509000D02*
X84123000Y-135509000D01*
X100985000Y-63754000D02*
X100985000Y-64028000D01*
X100985000Y-64028000D02*
X101620000Y-64663000D01*
X101620000Y-64663000D02*
X101620000Y-69088000D01*
X108077000Y-135997000D02*
X106914000Y-135997000D01*
X101620000Y-69997000D02*
X101620000Y-69088000D01*
X102743000Y-71120000D02*
X101620000Y-69997000D01*
X106914000Y-135997000D02*
X106045000Y-135128000D01*
X112571000Y-135509000D02*
X108565000Y-135509000D01*
X108565000Y-135509000D02*
X108077000Y-135997000D01*
D30*
X95504000Y-57170000D02*
X95504000Y-54229000D01*
X95504000Y-54229000D02*
X93980000Y-52705000D01*
X88138000Y-56007000D02*
X88138000Y-53975000D01*
X97767000Y-52705000D02*
X100934000Y-55872000D01*
X89408000Y-52705000D02*
X93980000Y-52705000D01*
X93980000Y-52705000D02*
X97767000Y-52705000D01*
X88138000Y-53975000D02*
X89408000Y-52705000D01*
D29*
X64991000Y-147320000D02*
X66929000Y-147320000D01*
X54737000Y-147767000D02*
X58882000Y-147767000D01*
X58882000Y-147767000D02*
X59329000Y-147320000D01*
X59329000Y-147320000D02*
X64991000Y-147320000D01*
X101620000Y-64389000D02*
X100934000Y-63703000D01*
X101620000Y-71481000D02*
X101620000Y-64389000D01*
X100330000Y-72771000D02*
X101620000Y-71481000D01*
X100934000Y-63703000D02*
X100934000Y-55872000D01*
X139550000Y-118425000D02*
X139700000Y-118575000D01*
X124968000Y-135910000D02*
X125964000Y-135910000D01*
X112585500Y-71691500D02*
X112331500Y-71691500D01*
X113411000Y-72517000D02*
X112585500Y-71691500D01*
X125964000Y-135910000D02*
X126365000Y-135509000D01*
X121871000Y-135509000D02*
X124567000Y-135509000D01*
X124567000Y-135509000D02*
X124968000Y-135910000D01*
X96901000Y-135235000D02*
X98318000Y-135235000D01*
X107676000Y-75926000D02*
X107676000Y-73533000D01*
X107950000Y-76200000D02*
X107676000Y-75926000D01*
X98318000Y-135235000D02*
X98933000Y-134620000D01*
X66314000Y-140208000D02*
X66314000Y-138577000D01*
X66314000Y-138577000D02*
X66294000Y-138557000D01*
X105791000Y-72136000D02*
X107188000Y-72136000D01*
X107188000Y-72136000D02*
X107676000Y-72624000D01*
X107676000Y-72624000D02*
X107676000Y-73533000D01*
X93423000Y-135509000D02*
X96627000Y-135509000D01*
X96627000Y-135509000D02*
X96901000Y-135235000D01*
X107676000Y-73533000D02*
X110490000Y-73533000D01*
X110490000Y-73533000D02*
X112331500Y-71691500D01*
X113157000Y-66314000D02*
X110851000Y-64008000D01*
X112331500Y-71691500D02*
X113157000Y-70866000D01*
X113157000Y-70866000D02*
X113157000Y-66314000D01*
X110851000Y-64008000D02*
X110851000Y-56115000D01*
X110851000Y-56115000D02*
X111094000Y-55872000D01*
X64610000Y-137160000D02*
X64610000Y-138504000D01*
X64610000Y-138504000D02*
X66314000Y-140208000D01*
X104120000Y-69088000D02*
X104120000Y-72477000D01*
X104120000Y-72477000D02*
X105176000Y-73533000D01*
X104120000Y-69088000D02*
X108224000Y-69088000D01*
X108224000Y-69088000D02*
X108478000Y-68834000D01*
X121871000Y-131699000D02*
X128524000Y-131699000D01*
X132588000Y-127635000D02*
X132588000Y-126939000D01*
X128524000Y-131699000D02*
X132588000Y-127635000D01*
X135575000Y-123952000D02*
X135575000Y-118872000D01*
X135575000Y-118872000D02*
X135128000Y-118425000D01*
X132588000Y-126939000D02*
X135575000Y-123952000D01*
X137475000Y-123952000D02*
X137475000Y-126469000D01*
X137475000Y-126469000D02*
X137498000Y-126492000D01*
X80180000Y-148717000D02*
X74737000Y-148717000D01*
X74737000Y-148717000D02*
X74549000Y-148529000D01*
X70391000Y-148590000D02*
X69596000Y-148590000D01*
X60409000Y-139403000D02*
X59182000Y-139403000D01*
X69596000Y-148590000D02*
X60409000Y-139403000D01*
X70391000Y-148590000D02*
X74488000Y-148590000D01*
X74488000Y-148590000D02*
X74549000Y-148529000D01*
X128397000Y-124206000D02*
X128651000Y-124206000D01*
X128651000Y-124206000D02*
X130048000Y-122809000D01*
X130048000Y-122809000D02*
X130048000Y-118618000D01*
X130048000Y-118618000D02*
X126492000Y-115062000D01*
X126492000Y-115062000D02*
X122240000Y-115062000D01*
X122240000Y-115062000D02*
X120462000Y-116840000D01*
X120462000Y-121031000D02*
X120462000Y-124968000D01*
X120462000Y-124968000D02*
X120589000Y-125095000D01*
X120462000Y-116840000D02*
X120462000Y-121031000D01*
X115440400Y-116265800D02*
X119887800Y-116265800D01*
X119887800Y-116265800D02*
X120462000Y-116840000D01*
X114765000Y-110998000D02*
X114765000Y-113835000D01*
X117983000Y-122301000D02*
X117983000Y-129032000D01*
X113919000Y-118237000D02*
X117983000Y-122301000D01*
X113919000Y-114681000D02*
X113919000Y-118237000D01*
X114765000Y-113835000D02*
X113919000Y-114681000D01*
X112571000Y-132969000D02*
X114046000Y-132969000D01*
X114046000Y-132969000D02*
X117983000Y-129032000D01*
X121219000Y-126365000D02*
X122489000Y-125095000D01*
X117983000Y-129032000D02*
X120650000Y-126365000D01*
X120650000Y-126365000D02*
X121219000Y-126365000D01*
X122362000Y-116840000D02*
X122362000Y-121031000D01*
X122489000Y-125095000D02*
X122489000Y-121158000D01*
X122489000Y-121158000D02*
X122362000Y-121031000D01*
X109263000Y-129159000D02*
X109263000Y-131615000D01*
X110617000Y-132969000D02*
X112571000Y-132969000D01*
X109263000Y-131615000D02*
X110617000Y-132969000D01*
X79164000Y-133096000D02*
X76835000Y-133096000D01*
X75946000Y-133985000D02*
X75946000Y-134112000D01*
X76835000Y-133096000D02*
X75946000Y-133985000D01*
X93423000Y-138049000D02*
X93423000Y-139319000D01*
X91694000Y-139319000D02*
X93423000Y-139319000D01*
X85598000Y-56007000D02*
X85598000Y-61849000D01*
X127823000Y-109220000D02*
X135128000Y-116525000D01*
X103632000Y-109220000D02*
X127823000Y-109220000D01*
X88646000Y-94234000D02*
X103632000Y-109220000D01*
X88646000Y-64897000D02*
X88646000Y-94234000D01*
X85598000Y-61849000D02*
X88646000Y-64897000D01*
X135128000Y-116525000D02*
X139550000Y-116525000D01*
X139550000Y-116525000D02*
X139700000Y-116375000D01*
X93993000Y-66802000D02*
X93993000Y-92723000D01*
X138811000Y-129794000D02*
X137498000Y-129794000D01*
X142748000Y-125857000D02*
X138811000Y-129794000D01*
X142748000Y-111633000D02*
X142748000Y-125857000D01*
X138811000Y-107696000D02*
X142748000Y-111633000D01*
X108966000Y-107696000D02*
X138811000Y-107696000D01*
X93993000Y-92723000D02*
X108966000Y-107696000D01*
D30*
X93993000Y-66802000D02*
X93993000Y-64529000D01*
X90678000Y-61214000D02*
X90678000Y-56007000D01*
X93993000Y-64529000D02*
X90678000Y-61214000D01*
D29*
X86736000Y-158019000D02*
X86736000Y-153073000D01*
X86736000Y-153073000D02*
X82380000Y-148717000D01*
X86736000Y-164719000D02*
X86736000Y-164470000D01*
X86736000Y-164470000D02*
X90297000Y-160909000D01*
X90297000Y-160909000D02*
X90297000Y-155829000D01*
X90297000Y-155829000D02*
X85768000Y-151300000D01*
X85768000Y-151300000D02*
X85768000Y-148463000D01*
X133520000Y-137287000D02*
X133520000Y-134112000D01*
X133520000Y-134112000D02*
X133393000Y-133985000D01*
X121871000Y-134239000D02*
X133139000Y-134239000D01*
X133139000Y-134239000D02*
X133393000Y-133985000D01*
X121871000Y-132969000D02*
X128989000Y-132969000D01*
X128989000Y-132969000D02*
X131064000Y-132969000D01*
X131064000Y-132969000D02*
X131699000Y-132969000D01*
X131699000Y-132969000D02*
X134874000Y-129794000D01*
X134874000Y-129794000D02*
X135298000Y-129794000D01*
X135298000Y-126492000D02*
X135298000Y-129794000D01*
X126365000Y-139827000D02*
X123444000Y-142748000D01*
X123444000Y-142748000D02*
X123444000Y-142621000D01*
X116840000Y-154686000D02*
X117094000Y-154686000D01*
X117094000Y-154686000D02*
X121539000Y-150241000D01*
X123444000Y-149225000D02*
X123444000Y-142621000D01*
X122428000Y-150241000D02*
X123444000Y-149225000D01*
X121539000Y-150241000D02*
X122428000Y-150241000D01*
X126365000Y-139827000D02*
X129159000Y-137033000D01*
X129159000Y-137033000D02*
X129159000Y-135339000D01*
X86093000Y-66802000D02*
X86093000Y-97396000D01*
X135890000Y-138938000D02*
X135890000Y-137457000D01*
X135255000Y-139573000D02*
X135890000Y-138938000D01*
X132842000Y-139573000D02*
X135255000Y-139573000D01*
X86093000Y-97396000D02*
X108712000Y-120015000D01*
X135890000Y-137457000D02*
X135720000Y-137287000D01*
D30*
X74391000Y-55999000D02*
X74391000Y-60421000D01*
X80772000Y-66802000D02*
X86093000Y-66802000D01*
X74391000Y-60421000D02*
X80772000Y-66802000D01*
D29*
X68283000Y-127635000D02*
X68961000Y-127635000D01*
X70010000Y-128684000D02*
X70010000Y-133350000D01*
X68961000Y-127635000D02*
X70010000Y-128684000D01*
X64610000Y-133350000D02*
X64610000Y-129108000D01*
X64610000Y-129108000D02*
X66083000Y-127635000D01*
X81364000Y-133096000D02*
X81364000Y-128016000D01*
X81364000Y-128016000D02*
X80983000Y-127635000D01*
X81364000Y-133096000D02*
X83996000Y-133096000D01*
X83996000Y-133096000D02*
X84123000Y-132969000D01*
X80983000Y-127635000D02*
X80983000Y-124247000D01*
X80983000Y-124247000D02*
X80942000Y-124206000D01*
X80856000Y-127762000D02*
X80983000Y-127635000D01*
X73914000Y-135636000D02*
X74168000Y-135636000D01*
X76708000Y-128905000D02*
X76708000Y-129032000D01*
X75184000Y-130429000D02*
X76708000Y-128905000D01*
X75184000Y-134620000D02*
X75184000Y-130429000D01*
X74168000Y-135636000D02*
X75184000Y-134620000D01*
X78783000Y-127635000D02*
X78105000Y-127635000D01*
X73914000Y-135636000D02*
X70264000Y-135636000D01*
X78105000Y-127635000D02*
X76708000Y-129032000D01*
X76708000Y-129032000D02*
X76708000Y-129032000D01*
X70264000Y-135636000D02*
X70010000Y-135890000D01*
X84123000Y-136779000D02*
X86487000Y-136779000D01*
X87122000Y-131699000D02*
X84123000Y-131699000D01*
X88011000Y-132588000D02*
X87122000Y-131699000D01*
X88011000Y-135255000D02*
X88011000Y-132588000D01*
X86487000Y-136779000D02*
X88011000Y-135255000D01*
X109136000Y-123698000D02*
X102489000Y-123698000D01*
X89070000Y-122809000D02*
X87800000Y-124079000D01*
X101600000Y-122809000D02*
X89070000Y-122809000D01*
X102489000Y-123698000D02*
X101600000Y-122809000D01*
X83142000Y-124206000D02*
X87673000Y-124206000D01*
X87673000Y-124206000D02*
X87800000Y-124079000D01*
X83142000Y-124206000D02*
X83142000Y-130718000D01*
X83142000Y-130718000D02*
X84123000Y-131699000D01*
X111336000Y-123698000D02*
X113114000Y-123698000D01*
X113114000Y-123698000D02*
X114554000Y-125138000D01*
X90000000Y-124079000D02*
X93642000Y-124079000D01*
X93642000Y-124079000D02*
X93769000Y-124206000D01*
X90000000Y-124079000D02*
X90000000Y-126576000D01*
X92202000Y-132969000D02*
X93423000Y-132969000D01*
X91567000Y-132334000D02*
X92202000Y-132969000D01*
X91567000Y-128143000D02*
X91567000Y-132334000D01*
X90000000Y-126576000D02*
X91567000Y-128143000D01*
X86149000Y-143256000D02*
X83820000Y-143256000D01*
X82720000Y-142156000D02*
X81788000Y-142156000D01*
X83820000Y-143256000D02*
X82720000Y-142156000D01*
X81788000Y-142156000D02*
X81788000Y-139065000D01*
X82804000Y-138049000D02*
X84123000Y-138049000D01*
X81788000Y-139065000D02*
X82804000Y-138049000D01*
X95969000Y-124206000D02*
X101727000Y-124206000D01*
X101727000Y-124206000D02*
X102870000Y-125349000D01*
X111463000Y-129159000D02*
X112733000Y-129159000D01*
X112733000Y-129159000D02*
X114554000Y-127338000D01*
X88349000Y-143256000D02*
X90170000Y-143256000D01*
X98298000Y-154686000D02*
X98298000Y-151384000D01*
X87503000Y-139319000D02*
X84123000Y-139319000D01*
X90170000Y-141986000D02*
X87503000Y-139319000D01*
X90170000Y-143256000D02*
X90170000Y-141986000D01*
X98298000Y-151384000D02*
X90170000Y-143256000D01*
X111940400Y-116265800D02*
X111940400Y-111622600D01*
X111940400Y-111622600D02*
X112565000Y-110998000D01*
X112571000Y-138049000D02*
X113665000Y-138049000D01*
X113665000Y-138049000D02*
X117729000Y-133985000D01*
X120904000Y-129032000D02*
X122598000Y-129032000D01*
X117729000Y-132207000D02*
X120904000Y-129032000D01*
X117729000Y-133985000D02*
X117729000Y-132207000D01*
X117813000Y-144399000D02*
X117813000Y-142197000D01*
X117813000Y-142197000D02*
X113665000Y-138049000D01*
X107950000Y-139362000D02*
X108542000Y-139362000D01*
X109855000Y-138049000D02*
X112571000Y-138049000D01*
X108542000Y-139362000D02*
X109855000Y-138049000D01*
X124798000Y-129032000D02*
X124798000Y-125265000D01*
X124798000Y-125265000D02*
X128397000Y-121666000D01*
X102870000Y-141732000D02*
X107780000Y-141732000D01*
X107780000Y-141732000D02*
X107950000Y-141562000D01*
X117813000Y-147066000D02*
X117813000Y-146728000D01*
X117813000Y-146728000D02*
X119888000Y-144653000D01*
X120904000Y-138049000D02*
X121871000Y-138049000D01*
X119888000Y-139065000D02*
X120904000Y-138049000D01*
X119888000Y-144653000D02*
X119888000Y-139065000D01*
X117813000Y-147066000D02*
X117813000Y-147488000D01*
X117813000Y-147488000D02*
X119296000Y-148971000D01*
X115613000Y-144399000D02*
X115613000Y-147066000D01*
X108257400Y-147380800D02*
X108257400Y-145742600D01*
X109601000Y-144399000D02*
X115613000Y-144399000D01*
X108257400Y-145742600D02*
X109601000Y-144399000D01*
X112571000Y-139319000D02*
X113919000Y-139319000D01*
X115613000Y-141013000D02*
X115613000Y-144399000D01*
X113919000Y-139319000D02*
X115613000Y-141013000D01*
X121496000Y-148971000D02*
X121496000Y-143467000D01*
X120904000Y-139319000D02*
X121871000Y-139319000D01*
X120396000Y-139827000D02*
X120904000Y-139319000D01*
X120396000Y-142367000D02*
X120396000Y-139827000D01*
X121496000Y-143467000D02*
X120396000Y-142367000D01*
X111757400Y-147380800D02*
X111947800Y-147380800D01*
X111947800Y-147380800D02*
X114681000Y-150114000D01*
X114681000Y-150114000D02*
X120353000Y-150114000D01*
X120353000Y-150114000D02*
X121496000Y-148971000D01*
X72644000Y-154686000D02*
X72390000Y-154686000D01*
X72390000Y-154686000D02*
X69723000Y-152019000D01*
X69723000Y-152019000D02*
X53594000Y-152019000D01*
X53594000Y-152019000D02*
X52324000Y-150749000D01*
X52324000Y-150749000D02*
X52324000Y-142367000D01*
X52324000Y-142367000D02*
X57488000Y-137203000D01*
X57488000Y-137203000D02*
X59182000Y-137203000D01*
X62103000Y-135890000D02*
X62103000Y-56476000D01*
X62103000Y-56476000D02*
X62580000Y-55999000D01*
X59182000Y-137203000D02*
X60790000Y-137203000D01*
X62103000Y-135890000D02*
X64610000Y-135890000D01*
X60790000Y-137203000D02*
X62103000Y-135890000D01*
X93081000Y-152519000D02*
X93081000Y-150993000D01*
X93081000Y-150993000D02*
X89027000Y-146939000D01*
X89027000Y-146939000D02*
X78232000Y-146939000D01*
X78232000Y-146939000D02*
X69977000Y-138684000D01*
X69977000Y-138684000D02*
X69723000Y-138684000D01*
X69723000Y-138684000D02*
X65659000Y-134620000D01*
X65659000Y-134620000D02*
X64610000Y-134620000D01*
X102870000Y-127889000D02*
X102870000Y-130429000D01*
X93423000Y-131699000D02*
X94615000Y-131699000D01*
X95885000Y-130429000D02*
X102870000Y-130429000D01*
X94615000Y-131699000D02*
X95885000Y-130429000D01*
X93423000Y-136779000D02*
X94742000Y-136779000D01*
X99060000Y-150749000D02*
X102997000Y-154686000D01*
X99060000Y-141097000D02*
X99060000Y-150749000D01*
X94742000Y-136779000D02*
X99060000Y-141097000D01*
X110007400Y-151180800D02*
X110007400Y-152552400D01*
X110007400Y-152552400D02*
X112141000Y-154686000D01*
X112571000Y-131699000D02*
X112571000Y-130634000D01*
X115824000Y-122199400D02*
X113690400Y-120065800D01*
X115824000Y-128524000D02*
X115824000Y-122199400D01*
X115570000Y-128778000D02*
X115824000Y-128524000D01*
X114427000Y-128778000D02*
X115570000Y-128778000D01*
X112571000Y-130634000D02*
X114427000Y-128778000D01*
D31*
G36*
X149290000Y-169290000D02*
X119760484Y-169290000D01*
X120457686Y-169001922D01*
X120994039Y-168466505D01*
X121284668Y-167766590D01*
X121285330Y-167008735D01*
X120995922Y-166308314D01*
X120460505Y-165771961D01*
X119760590Y-165481332D01*
X119002735Y-165480670D01*
X118302314Y-165770078D01*
X117765961Y-166305495D01*
X117475332Y-167005410D01*
X117474670Y-167763265D01*
X117764078Y-168463686D01*
X118299495Y-169000039D01*
X118997801Y-169290000D01*
X114680484Y-169290000D01*
X115377686Y-169001922D01*
X115914039Y-168466505D01*
X116204668Y-167766590D01*
X116205330Y-167008735D01*
X115915922Y-166308314D01*
X115380505Y-165771961D01*
X114680590Y-165481332D01*
X113922735Y-165480670D01*
X113222314Y-165770078D01*
X112685961Y-166305495D01*
X112395332Y-167005410D01*
X112394670Y-167763265D01*
X112684078Y-168463686D01*
X113219495Y-169000039D01*
X113917801Y-169290000D01*
X105917484Y-169290000D01*
X106614686Y-169001922D01*
X107151039Y-168466505D01*
X107441668Y-167766590D01*
X107442330Y-167008735D01*
X107152922Y-166308314D01*
X106617505Y-165771961D01*
X105917590Y-165481332D01*
X105159735Y-165480670D01*
X104459314Y-165770078D01*
X103922961Y-166305495D01*
X103632332Y-167005410D01*
X103631670Y-167763265D01*
X103921078Y-168463686D01*
X104456495Y-169000039D01*
X105154801Y-169290000D01*
X100837484Y-169290000D01*
X101534686Y-169001922D01*
X102071039Y-168466505D01*
X102361668Y-167766590D01*
X102362330Y-167008735D01*
X102072922Y-166308314D01*
X101537505Y-165771961D01*
X100837590Y-165481332D01*
X100079735Y-165480670D01*
X99379314Y-165770078D01*
X98842961Y-166305495D01*
X98552332Y-167005410D01*
X98551670Y-167763265D01*
X98841078Y-168463686D01*
X99376495Y-169000039D01*
X100074801Y-169290000D01*
X80263484Y-169290000D01*
X80960686Y-169001922D01*
X81497039Y-168466505D01*
X81787668Y-167766590D01*
X81788330Y-167008735D01*
X81498922Y-166308314D01*
X80963505Y-165771961D01*
X80263590Y-165481332D01*
X79505735Y-165480670D01*
X78805314Y-165770078D01*
X78268961Y-166305495D01*
X77978332Y-167005410D01*
X77977670Y-167763265D01*
X78267078Y-168463686D01*
X78802495Y-169000039D01*
X79500801Y-169290000D01*
X75183484Y-169290000D01*
X75880686Y-169001922D01*
X76417039Y-168466505D01*
X76707668Y-167766590D01*
X76708330Y-167008735D01*
X76418922Y-166308314D01*
X75883505Y-165771961D01*
X75183590Y-165481332D01*
X74425735Y-165480670D01*
X73725314Y-165770078D01*
X73188961Y-166305495D01*
X72898332Y-167005410D01*
X72897670Y-167763265D01*
X73187078Y-168463686D01*
X73722495Y-169000039D01*
X74420801Y-169290000D01*
X50710000Y-169290000D01*
X50710000Y-164715265D01*
X59816670Y-164715265D01*
X60106078Y-165415686D01*
X60641495Y-165952039D01*
X61341410Y-166242668D01*
X62099265Y-166243330D01*
X62799686Y-165953922D01*
X63336039Y-165418505D01*
X63626668Y-164718590D01*
X63626670Y-164715265D01*
X69976670Y-164715265D01*
X70266078Y-165415686D01*
X70801495Y-165952039D01*
X71501410Y-166242668D01*
X72259265Y-166243330D01*
X72959686Y-165953922D01*
X73496039Y-165418505D01*
X73786668Y-164718590D01*
X73787330Y-163960735D01*
X73497922Y-163260314D01*
X72962505Y-162723961D01*
X72262590Y-162433332D01*
X71504735Y-162432670D01*
X70804314Y-162722078D01*
X70267961Y-163257495D01*
X69977332Y-163957410D01*
X69976670Y-164715265D01*
X63626670Y-164715265D01*
X63627330Y-163960735D01*
X63337922Y-163260314D01*
X62802505Y-162723961D01*
X62102590Y-162433332D01*
X61344735Y-162432670D01*
X60644314Y-162722078D01*
X60107961Y-163257495D01*
X59817332Y-163957410D01*
X59816670Y-164715265D01*
X50710000Y-164715265D01*
X50710000Y-156336133D01*
X63553472Y-156336133D01*
X63607303Y-156565179D01*
X64084664Y-156730681D01*
X64589023Y-156700906D01*
X64916697Y-156565179D01*
X64970528Y-156336133D01*
X64262000Y-155627605D01*
X63553472Y-156336133D01*
X50710000Y-156336133D01*
X50710000Y-155270664D01*
X62979319Y-155270664D01*
X63009094Y-155775023D01*
X63144821Y-156102697D01*
X63373867Y-156156528D01*
X64082395Y-155448000D01*
X64441605Y-155448000D01*
X65150133Y-156156528D01*
X65379179Y-156102697D01*
X65531812Y-155662453D01*
X65531780Y-155699510D01*
X65724718Y-156166458D01*
X66081663Y-156524026D01*
X66548273Y-156717779D01*
X66550488Y-156717781D01*
X66083542Y-156910718D01*
X65725974Y-157267663D01*
X65532221Y-157734273D01*
X65531780Y-158239510D01*
X65724718Y-158706458D01*
X66081663Y-159064026D01*
X66548273Y-159257779D01*
X67053510Y-159258220D01*
X67520458Y-159065282D01*
X67878026Y-158708337D01*
X68071779Y-158241727D01*
X68072220Y-157736490D01*
X67879282Y-157269542D01*
X67522337Y-156911974D01*
X67055727Y-156718221D01*
X67053512Y-156718219D01*
X67520458Y-156525282D01*
X67709937Y-156336133D01*
X68633472Y-156336133D01*
X68687303Y-156565179D01*
X69164664Y-156730681D01*
X69669023Y-156700906D01*
X69996697Y-156565179D01*
X70050528Y-156336133D01*
X69342000Y-155627605D01*
X68633472Y-156336133D01*
X67709937Y-156336133D01*
X67878026Y-156168337D01*
X68071779Y-155701727D01*
X68071968Y-155484929D01*
X68089094Y-155775023D01*
X68224821Y-156102697D01*
X68453867Y-156156528D01*
X69162395Y-155448000D01*
X69521605Y-155448000D01*
X70230133Y-156156528D01*
X70459179Y-156102697D01*
X70624681Y-155625336D01*
X70594906Y-155120977D01*
X70459179Y-154793303D01*
X70230133Y-154739472D01*
X69521605Y-155448000D01*
X69162395Y-155448000D01*
X68453867Y-154739472D01*
X68224821Y-154793303D01*
X68072188Y-155233547D01*
X68072220Y-155196490D01*
X67879282Y-154729542D01*
X67709903Y-154559867D01*
X68633472Y-154559867D01*
X69342000Y-155268395D01*
X70050528Y-154559867D01*
X69996697Y-154330821D01*
X69519336Y-154165319D01*
X69014977Y-154195094D01*
X68687303Y-154330821D01*
X68633472Y-154559867D01*
X67709903Y-154559867D01*
X67522337Y-154371974D01*
X67055727Y-154178221D01*
X66550490Y-154177780D01*
X66083542Y-154370718D01*
X65725974Y-154727663D01*
X65532221Y-155194273D01*
X65532032Y-155411071D01*
X65514906Y-155120977D01*
X65379179Y-154793303D01*
X65150133Y-154739472D01*
X64441605Y-155448000D01*
X64082395Y-155448000D01*
X63373867Y-154739472D01*
X63144821Y-154793303D01*
X62979319Y-155270664D01*
X50710000Y-155270664D01*
X50710000Y-154559867D01*
X63553472Y-154559867D01*
X64262000Y-155268395D01*
X64970528Y-154559867D01*
X64916697Y-154330821D01*
X64439336Y-154165319D01*
X63934977Y-154195094D01*
X63607303Y-154330821D01*
X63553472Y-154559867D01*
X50710000Y-154559867D01*
X50710000Y-142367000D01*
X51564000Y-142367000D01*
X51564000Y-150749000D01*
X51621852Y-151039839D01*
X51786599Y-151286401D01*
X53056599Y-152556401D01*
X53303160Y-152721148D01*
X53594000Y-152779000D01*
X69408198Y-152779000D01*
X70796627Y-154167429D01*
X70739332Y-154305410D01*
X70738670Y-155063265D01*
X71028078Y-155763686D01*
X71563495Y-156300039D01*
X72263410Y-156590668D01*
X73021265Y-156591330D01*
X73721686Y-156301922D01*
X74258039Y-155766505D01*
X74548668Y-155066590D01*
X74548670Y-155063265D01*
X75437670Y-155063265D01*
X75727078Y-155763686D01*
X76262495Y-156300039D01*
X76962410Y-156590668D01*
X77720265Y-156591330D01*
X78420686Y-156301922D01*
X78957039Y-155766505D01*
X79247668Y-155066590D01*
X79247670Y-155063265D01*
X80136670Y-155063265D01*
X80426078Y-155763686D01*
X80961495Y-156300039D01*
X81661410Y-156590668D01*
X82419265Y-156591330D01*
X83119686Y-156301922D01*
X83656039Y-155766505D01*
X83946668Y-155066590D01*
X83947330Y-154308735D01*
X83657922Y-153608314D01*
X83122505Y-153071961D01*
X82422590Y-152781332D01*
X81664735Y-152780670D01*
X80964314Y-153070078D01*
X80427961Y-153605495D01*
X80137332Y-154305410D01*
X80136670Y-155063265D01*
X79247670Y-155063265D01*
X79248330Y-154308735D01*
X78958922Y-153608314D01*
X78423505Y-153071961D01*
X77723590Y-152781332D01*
X76965735Y-152780670D01*
X76265314Y-153070078D01*
X75728961Y-153605495D01*
X75438332Y-154305410D01*
X75437670Y-155063265D01*
X74548670Y-155063265D01*
X74549330Y-154308735D01*
X74259922Y-153608314D01*
X73724505Y-153071961D01*
X73024590Y-152781332D01*
X72266735Y-152780670D01*
X71766263Y-152987461D01*
X70260401Y-151481599D01*
X70013839Y-151316852D01*
X69723000Y-151259000D01*
X53908802Y-151259000D01*
X53084000Y-150434198D01*
X53084000Y-149952750D01*
X53727000Y-149952750D01*
X53727000Y-150393309D01*
X53823673Y-150626698D01*
X54002301Y-150805327D01*
X54235690Y-150902000D01*
X54451250Y-150902000D01*
X54610000Y-150743250D01*
X54610000Y-149794000D01*
X54864000Y-149794000D01*
X54864000Y-150743250D01*
X55022750Y-150902000D01*
X55238310Y-150902000D01*
X55471699Y-150805327D01*
X55650327Y-150626698D01*
X55747000Y-150393309D01*
X55747000Y-149998750D01*
X58176000Y-149998750D01*
X58176000Y-150589309D01*
X58272673Y-150822698D01*
X58451301Y-151001327D01*
X58684690Y-151098000D01*
X59150250Y-151098000D01*
X59309000Y-150939250D01*
X59309000Y-149840000D01*
X59563000Y-149840000D01*
X59563000Y-150939250D01*
X59721750Y-151098000D01*
X60187310Y-151098000D01*
X60420699Y-151001327D01*
X60599327Y-150822698D01*
X60696000Y-150589309D01*
X60696000Y-150145750D01*
X63581000Y-150145750D01*
X63581000Y-150286310D01*
X63677673Y-150519699D01*
X63856302Y-150698327D01*
X64089691Y-150795000D01*
X64705250Y-150795000D01*
X64864000Y-150636250D01*
X64864000Y-149987000D01*
X65118000Y-149987000D01*
X65118000Y-150636250D01*
X65276750Y-150795000D01*
X65892309Y-150795000D01*
X66125698Y-150698327D01*
X66304327Y-150519699D01*
X66401000Y-150286310D01*
X66401000Y-150145750D01*
X66242250Y-149987000D01*
X65118000Y-149987000D01*
X64864000Y-149987000D01*
X63739750Y-149987000D01*
X63581000Y-150145750D01*
X60696000Y-150145750D01*
X60696000Y-149998750D01*
X60537250Y-149840000D01*
X59563000Y-149840000D01*
X59309000Y-149840000D01*
X58334750Y-149840000D01*
X58176000Y-149998750D01*
X55747000Y-149998750D01*
X55747000Y-149952750D01*
X55588250Y-149794000D01*
X54864000Y-149794000D01*
X54610000Y-149794000D01*
X53885750Y-149794000D01*
X53727000Y-149952750D01*
X53084000Y-149952750D01*
X53084000Y-142681802D01*
X57802802Y-137963000D01*
X58114666Y-137963000D01*
X58128838Y-138038317D01*
X58267910Y-138254441D01*
X58337711Y-138302134D01*
X58280559Y-138338910D01*
X58135569Y-138551110D01*
X58084560Y-138803000D01*
X58084560Y-140003000D01*
X58128838Y-140238317D01*
X58267910Y-140454441D01*
X58480110Y-140599431D01*
X58732000Y-140650440D01*
X59632000Y-140650440D01*
X59867317Y-140606162D01*
X60083441Y-140467090D01*
X60211243Y-140280045D01*
X65033758Y-145102560D01*
X64216000Y-145102560D01*
X63980683Y-145146838D01*
X63764559Y-145285910D01*
X63619569Y-145498110D01*
X63568560Y-145750000D01*
X63568560Y-146350000D01*
X63608074Y-146560000D01*
X60708440Y-146560000D01*
X60708440Y-146463000D01*
X60664162Y-146227683D01*
X60525090Y-146011559D01*
X60312890Y-145866569D01*
X60061000Y-145815560D01*
X58811000Y-145815560D01*
X58575683Y-145859838D01*
X58359559Y-145998910D01*
X58214569Y-146211110D01*
X58163560Y-146463000D01*
X58163560Y-147007000D01*
X55729334Y-147007000D01*
X55715162Y-146931683D01*
X55576090Y-146715559D01*
X55363890Y-146570569D01*
X55112000Y-146519560D01*
X54362000Y-146519560D01*
X54126683Y-146563838D01*
X53910559Y-146702910D01*
X53765569Y-146915110D01*
X53714560Y-147167000D01*
X53714560Y-148367000D01*
X53758838Y-148602317D01*
X53825329Y-148705646D01*
X53823673Y-148707302D01*
X53727000Y-148940691D01*
X53727000Y-149381250D01*
X53885750Y-149540000D01*
X54610000Y-149540000D01*
X54610000Y-149520000D01*
X54864000Y-149520000D01*
X54864000Y-149540000D01*
X55588250Y-149540000D01*
X55747000Y-149381250D01*
X55747000Y-148940691D01*
X55650327Y-148707302D01*
X55648957Y-148705932D01*
X55708431Y-148618890D01*
X55727039Y-148527000D01*
X58348975Y-148527000D01*
X58272673Y-148603302D01*
X58176000Y-148836691D01*
X58176000Y-149427250D01*
X58334750Y-149586000D01*
X59309000Y-149586000D01*
X59309000Y-149566000D01*
X59563000Y-149566000D01*
X59563000Y-149586000D01*
X60537250Y-149586000D01*
X60696000Y-149427250D01*
X60696000Y-148836691D01*
X60599327Y-148603302D01*
X60458090Y-148462064D01*
X60512441Y-148427090D01*
X60657431Y-148214890D01*
X60684747Y-148080000D01*
X63611086Y-148080000D01*
X63568560Y-148290000D01*
X63568560Y-148890000D01*
X63612838Y-149125317D01*
X63671178Y-149215980D01*
X63581000Y-149433690D01*
X63581000Y-149574250D01*
X63739750Y-149733000D01*
X64864000Y-149733000D01*
X64864000Y-149713000D01*
X65118000Y-149713000D01*
X65118000Y-149733000D01*
X66242250Y-149733000D01*
X66401000Y-149574250D01*
X66401000Y-149433690D01*
X66311194Y-149216878D01*
X66362431Y-149141890D01*
X66413440Y-148890000D01*
X66413440Y-148290000D01*
X66375642Y-148089121D01*
X66398673Y-148112192D01*
X66742201Y-148254838D01*
X67114167Y-148255162D01*
X67457943Y-148113117D01*
X67721192Y-147850327D01*
X67738894Y-147807696D01*
X69002715Y-149071517D01*
X69012838Y-149125317D01*
X69076678Y-149224528D01*
X69019569Y-149308110D01*
X68968560Y-149560000D01*
X68968560Y-150160000D01*
X69012838Y-150395317D01*
X69151910Y-150611441D01*
X69364110Y-150756431D01*
X69616000Y-150807440D01*
X71166000Y-150807440D01*
X71401317Y-150763162D01*
X71476551Y-150714750D01*
X73539000Y-150714750D01*
X73539000Y-151155309D01*
X73635673Y-151388698D01*
X73814301Y-151567327D01*
X74047690Y-151664000D01*
X74263250Y-151664000D01*
X74422000Y-151505250D01*
X74422000Y-150556000D01*
X74676000Y-150556000D01*
X74676000Y-151505250D01*
X74834750Y-151664000D01*
X75050310Y-151664000D01*
X75283699Y-151567327D01*
X75462327Y-151388698D01*
X75559000Y-151155309D01*
X75559000Y-150714750D01*
X75400250Y-150556000D01*
X74676000Y-150556000D01*
X74422000Y-150556000D01*
X73697750Y-150556000D01*
X73539000Y-150714750D01*
X71476551Y-150714750D01*
X71617441Y-150624090D01*
X71762431Y-150411890D01*
X71813440Y-150160000D01*
X71813440Y-149560000D01*
X71773926Y-149350000D01*
X73568144Y-149350000D01*
X73570838Y-149364317D01*
X73637329Y-149467646D01*
X73635673Y-149469302D01*
X73539000Y-149702691D01*
X73539000Y-150143250D01*
X73697750Y-150302000D01*
X74422000Y-150302000D01*
X74422000Y-150282000D01*
X74676000Y-150282000D01*
X74676000Y-150302000D01*
X75400250Y-150302000D01*
X75559000Y-150143250D01*
X75559000Y-149702691D01*
X75465516Y-149477000D01*
X79024895Y-149477000D01*
X79115910Y-149618441D01*
X79328110Y-149763431D01*
X79580000Y-149814440D01*
X80780000Y-149814440D01*
X81015317Y-149770162D01*
X81231441Y-149631090D01*
X81279134Y-149561289D01*
X81315910Y-149618441D01*
X81528110Y-149763431D01*
X81780000Y-149814440D01*
X82402638Y-149814440D01*
X85976000Y-153387802D01*
X85976000Y-154508150D01*
X84736199Y-155020425D01*
X83740920Y-156013969D01*
X83201615Y-157312760D01*
X83200387Y-158719070D01*
X83737425Y-160018801D01*
X84730969Y-161014080D01*
X85586211Y-161369207D01*
X84736199Y-161720425D01*
X83740920Y-162713969D01*
X83201615Y-164012760D01*
X83200387Y-165419070D01*
X83737425Y-166718801D01*
X84730969Y-167714080D01*
X86029760Y-168253385D01*
X87436070Y-168254613D01*
X88735801Y-167717575D01*
X89731080Y-166724031D01*
X90270385Y-165425240D01*
X90271613Y-164018930D01*
X89734575Y-162719199D01*
X89648165Y-162632638D01*
X90834401Y-161446402D01*
X90999147Y-161199840D01*
X90999148Y-161199839D01*
X91057000Y-160909000D01*
X91057000Y-155829000D01*
X90999148Y-155538161D01*
X90999148Y-155538160D01*
X90834401Y-155291599D01*
X86528000Y-150985198D01*
X86528000Y-149530334D01*
X86603317Y-149516162D01*
X86819441Y-149377090D01*
X86865969Y-149308994D01*
X87008302Y-149451327D01*
X87241691Y-149548000D01*
X87682250Y-149548000D01*
X87841000Y-149389250D01*
X87841000Y-148590000D01*
X88095000Y-148590000D01*
X88095000Y-149389250D01*
X88253750Y-149548000D01*
X88694309Y-149548000D01*
X88927698Y-149451327D01*
X89106327Y-149272699D01*
X89203000Y-149039310D01*
X89203000Y-148748750D01*
X89044250Y-148590000D01*
X88095000Y-148590000D01*
X87841000Y-148590000D01*
X87821000Y-148590000D01*
X87821000Y-148336000D01*
X87841000Y-148336000D01*
X87841000Y-148316000D01*
X88095000Y-148316000D01*
X88095000Y-148336000D01*
X89044250Y-148336000D01*
X89196724Y-148183526D01*
X90807172Y-149793974D01*
X90085920Y-150513969D01*
X89546615Y-151812760D01*
X89545387Y-153219070D01*
X90082425Y-154518801D01*
X91075969Y-155514080D01*
X92374760Y-156053385D01*
X93781070Y-156054613D01*
X95080801Y-155517575D01*
X96076080Y-154524031D01*
X96615385Y-153225240D01*
X96616613Y-151818930D01*
X96079575Y-150519199D01*
X95086031Y-149523920D01*
X93787240Y-148984615D01*
X92380930Y-148983387D01*
X92214823Y-149052021D01*
X89564401Y-146401599D01*
X89317839Y-146236852D01*
X89027000Y-146179000D01*
X78546802Y-146179000D01*
X77009552Y-144641750D01*
X80703000Y-144641750D01*
X80703000Y-145082309D01*
X80799673Y-145315698D01*
X80978301Y-145494327D01*
X81211690Y-145591000D01*
X81502250Y-145591000D01*
X81661000Y-145432250D01*
X81661000Y-144483000D01*
X81915000Y-144483000D01*
X81915000Y-145432250D01*
X82073750Y-145591000D01*
X82364310Y-145591000D01*
X82597699Y-145494327D01*
X82776327Y-145315698D01*
X82873000Y-145082309D01*
X82873000Y-144641750D01*
X82714250Y-144483000D01*
X81915000Y-144483000D01*
X81661000Y-144483000D01*
X80861750Y-144483000D01*
X80703000Y-144641750D01*
X77009552Y-144641750D01*
X70514401Y-138146599D01*
X70437177Y-138095000D01*
X70911309Y-138095000D01*
X71144698Y-137998327D01*
X71323327Y-137819699D01*
X71420000Y-137586310D01*
X71420000Y-137445750D01*
X71261250Y-137287000D01*
X70137000Y-137287000D01*
X70137000Y-137307000D01*
X69883000Y-137307000D01*
X69883000Y-137287000D01*
X69863000Y-137287000D01*
X69863000Y-137171750D01*
X72146000Y-137171750D01*
X72146000Y-137762309D01*
X72242673Y-137995698D01*
X72421301Y-138174327D01*
X72654690Y-138271000D01*
X73120250Y-138271000D01*
X73279000Y-138112250D01*
X73279000Y-137013000D01*
X73533000Y-137013000D01*
X73533000Y-138112250D01*
X73691750Y-138271000D01*
X74157310Y-138271000D01*
X74390699Y-138174327D01*
X74569327Y-137995698D01*
X74666000Y-137762309D01*
X74666000Y-137171750D01*
X74507250Y-137013000D01*
X73533000Y-137013000D01*
X73279000Y-137013000D01*
X72304750Y-137013000D01*
X72146000Y-137171750D01*
X69863000Y-137171750D01*
X69863000Y-137033000D01*
X69883000Y-137033000D01*
X69883000Y-137013000D01*
X70137000Y-137013000D01*
X70137000Y-137033000D01*
X71261250Y-137033000D01*
X71420000Y-136874250D01*
X71420000Y-136733690D01*
X71330194Y-136516878D01*
X71381431Y-136441890D01*
X71390724Y-136396000D01*
X72146000Y-136396000D01*
X72146000Y-136600250D01*
X72304750Y-136759000D01*
X73279000Y-136759000D01*
X73279000Y-136739000D01*
X73533000Y-136739000D01*
X73533000Y-136759000D01*
X74507250Y-136759000D01*
X74666000Y-136600250D01*
X74666000Y-136199728D01*
X74705401Y-136173401D01*
X74956111Y-135922691D01*
X78623000Y-135922691D01*
X78623000Y-136513250D01*
X78781750Y-136672000D01*
X79756000Y-136672000D01*
X79756000Y-135572750D01*
X79597250Y-135414000D01*
X79131690Y-135414000D01*
X78898301Y-135510673D01*
X78719673Y-135689302D01*
X78623000Y-135922691D01*
X74956111Y-135922691D01*
X75721401Y-135157401D01*
X75795256Y-135046869D01*
X76131167Y-135047162D01*
X76474943Y-134905117D01*
X76738192Y-134642327D01*
X76880838Y-134298799D01*
X76880990Y-134124812D01*
X77149802Y-133856000D01*
X78008895Y-133856000D01*
X78099910Y-133997441D01*
X78312110Y-134142431D01*
X78564000Y-134193440D01*
X79764000Y-134193440D01*
X79999317Y-134149162D01*
X80215441Y-134010090D01*
X80263134Y-133940289D01*
X80299910Y-133997441D01*
X80512110Y-134142431D01*
X80764000Y-134193440D01*
X81964000Y-134193440D01*
X82199317Y-134149162D01*
X82415441Y-134010090D01*
X82520726Y-133856000D01*
X82738000Y-133856000D01*
X82738000Y-133953250D01*
X82896750Y-134112000D01*
X83996000Y-134112000D01*
X83996000Y-134092000D01*
X84250000Y-134092000D01*
X84250000Y-134112000D01*
X85349250Y-134112000D01*
X85508000Y-133953250D01*
X85508000Y-133812690D01*
X85418194Y-133595878D01*
X85469431Y-133520890D01*
X85520440Y-133269000D01*
X85520440Y-132669000D01*
X85480926Y-132459000D01*
X86807198Y-132459000D01*
X87251000Y-132902802D01*
X87251000Y-134940198D01*
X86172198Y-136019000D01*
X85477914Y-136019000D01*
X85520440Y-135809000D01*
X85520440Y-135209000D01*
X85476162Y-134973683D01*
X85417822Y-134883020D01*
X85508000Y-134665310D01*
X85508000Y-134524750D01*
X85349250Y-134366000D01*
X84250000Y-134366000D01*
X84250000Y-134386000D01*
X83996000Y-134386000D01*
X83996000Y-134366000D01*
X82896750Y-134366000D01*
X82738000Y-134524750D01*
X82738000Y-134665310D01*
X82775051Y-134754758D01*
X82513160Y-134806852D01*
X82266599Y-134971599D01*
X81885599Y-135352599D01*
X81720852Y-135599161D01*
X81663000Y-135890000D01*
X81663000Y-136210198D01*
X81143000Y-136730198D01*
X81143000Y-136671998D01*
X80984252Y-136671998D01*
X81143000Y-136513250D01*
X81143000Y-135922691D01*
X81046327Y-135689302D01*
X80867699Y-135510673D01*
X80634310Y-135414000D01*
X80168750Y-135414000D01*
X80010000Y-135572750D01*
X80010000Y-136672000D01*
X80030000Y-136672000D01*
X80030000Y-136926000D01*
X80010000Y-136926000D01*
X80010000Y-136946000D01*
X79756000Y-136946000D01*
X79756000Y-136926000D01*
X78781750Y-136926000D01*
X78623000Y-137084750D01*
X78623000Y-137675309D01*
X78719673Y-137908698D01*
X78860910Y-138049936D01*
X78806559Y-138084910D01*
X78661569Y-138297110D01*
X78661197Y-138298945D01*
X78508327Y-138145808D01*
X78164799Y-138003162D01*
X77792833Y-138002838D01*
X77449057Y-138144883D01*
X77185808Y-138407673D01*
X77043162Y-138751201D01*
X77042838Y-139123167D01*
X77184883Y-139466943D01*
X77447673Y-139730192D01*
X77791201Y-139872838D01*
X77856216Y-139872895D01*
X78048161Y-140001148D01*
X78339000Y-140059000D01*
X78612442Y-140059000D01*
X78654838Y-140284317D01*
X78793910Y-140500441D01*
X79006110Y-140645431D01*
X79258000Y-140696440D01*
X80508000Y-140696440D01*
X80743317Y-140652162D01*
X80959441Y-140513090D01*
X81028000Y-140412751D01*
X81028000Y-141000895D01*
X80886559Y-141091910D01*
X80741569Y-141304110D01*
X80690560Y-141556000D01*
X80690560Y-142756000D01*
X80734838Y-142991317D01*
X80873910Y-143207441D01*
X80942006Y-143253969D01*
X80799673Y-143396302D01*
X80703000Y-143629691D01*
X80703000Y-144070250D01*
X80861750Y-144229000D01*
X81661000Y-144229000D01*
X81661000Y-144209000D01*
X81915000Y-144209000D01*
X81915000Y-144229000D01*
X82714250Y-144229000D01*
X82873000Y-144070250D01*
X82873000Y-143629691D01*
X82776327Y-143396302D01*
X82635090Y-143255064D01*
X82689441Y-143220090D01*
X82697497Y-143208299D01*
X83282599Y-143793401D01*
X83529161Y-143958148D01*
X83820000Y-144016000D01*
X84993895Y-144016000D01*
X85084910Y-144157441D01*
X85297110Y-144302431D01*
X85549000Y-144353440D01*
X86749000Y-144353440D01*
X86984317Y-144309162D01*
X87200441Y-144170090D01*
X87248134Y-144100289D01*
X87284910Y-144157441D01*
X87497110Y-144302431D01*
X87749000Y-144353440D01*
X88949000Y-144353440D01*
X89184317Y-144309162D01*
X89400441Y-144170090D01*
X89505726Y-144016000D01*
X89855198Y-144016000D01*
X97538000Y-151698802D01*
X97538000Y-152938813D01*
X97220314Y-153070078D01*
X96683961Y-153605495D01*
X96393332Y-154305410D01*
X96392670Y-155063265D01*
X96682078Y-155763686D01*
X97217495Y-156300039D01*
X97917410Y-156590668D01*
X98675265Y-156591330D01*
X99375686Y-156301922D01*
X99912039Y-155766505D01*
X100202668Y-155066590D01*
X100203330Y-154308735D01*
X99913922Y-153608314D01*
X99378505Y-153071961D01*
X99058000Y-152938876D01*
X99058000Y-151821802D01*
X101224151Y-153987953D01*
X101092332Y-154305410D01*
X101091670Y-155063265D01*
X101381078Y-155763686D01*
X101916495Y-156300039D01*
X102616410Y-156590668D01*
X103374265Y-156591330D01*
X104074686Y-156301922D01*
X104611039Y-155766505D01*
X104901668Y-155066590D01*
X104901670Y-155063265D01*
X105790670Y-155063265D01*
X106080078Y-155763686D01*
X106615495Y-156300039D01*
X107315410Y-156590668D01*
X108073265Y-156591330D01*
X108773686Y-156301922D01*
X109310039Y-155766505D01*
X109600668Y-155066590D01*
X109601330Y-154308735D01*
X109311922Y-153608314D01*
X108776505Y-153071961D01*
X108076590Y-152781332D01*
X107318735Y-152780670D01*
X106618314Y-153070078D01*
X106081961Y-153605495D01*
X105791332Y-154305410D01*
X105790670Y-155063265D01*
X104901670Y-155063265D01*
X104902330Y-154308735D01*
X104612922Y-153608314D01*
X104077505Y-153071961D01*
X103377590Y-152781332D01*
X102619735Y-152780670D01*
X102298998Y-152913196D01*
X99916602Y-150530800D01*
X108859960Y-150530800D01*
X108859960Y-151830800D01*
X108904238Y-152066117D01*
X109043310Y-152282241D01*
X109247400Y-152421690D01*
X109247400Y-152552400D01*
X109305252Y-152843239D01*
X109469999Y-153089801D01*
X110368151Y-153987953D01*
X110236332Y-154305410D01*
X110235670Y-155063265D01*
X110525078Y-155763686D01*
X111060495Y-156300039D01*
X111760410Y-156590668D01*
X112518265Y-156591330D01*
X113218686Y-156301922D01*
X113755039Y-155766505D01*
X114045668Y-155066590D01*
X114046330Y-154308735D01*
X113756922Y-153608314D01*
X113221505Y-153071961D01*
X112521590Y-152781332D01*
X111763735Y-152780670D01*
X111442998Y-152913196D01*
X110877216Y-152347414D01*
X110958841Y-152294890D01*
X111103831Y-152082690D01*
X111154840Y-151830800D01*
X111154840Y-150530800D01*
X111110562Y-150295483D01*
X110971490Y-150079359D01*
X110759290Y-149934369D01*
X110507400Y-149883360D01*
X109507400Y-149883360D01*
X109272083Y-149927638D01*
X109055959Y-150066710D01*
X108910969Y-150278910D01*
X108859960Y-150530800D01*
X99916602Y-150530800D01*
X99820000Y-150434198D01*
X99820000Y-141097000D01*
X99762148Y-140806161D01*
X99597401Y-140559599D01*
X97341493Y-138303691D01*
X101473000Y-138303691D01*
X101473000Y-138906250D01*
X101631750Y-139065000D01*
X102743000Y-139065000D01*
X102743000Y-137953750D01*
X102997000Y-137953750D01*
X102997000Y-139065000D01*
X104108250Y-139065000D01*
X104267000Y-138906250D01*
X104267000Y-138303691D01*
X104170327Y-138070302D01*
X103991699Y-137891673D01*
X103758310Y-137795000D01*
X103155750Y-137795000D01*
X102997000Y-137953750D01*
X102743000Y-137953750D01*
X102584250Y-137795000D01*
X101981690Y-137795000D01*
X101748301Y-137891673D01*
X101569673Y-138070302D01*
X101473000Y-138303691D01*
X97341493Y-138303691D01*
X95306802Y-136269000D01*
X95704165Y-136269000D01*
X95811910Y-136436441D01*
X96024110Y-136581431D01*
X96276000Y-136632440D01*
X97526000Y-136632440D01*
X97761317Y-136588162D01*
X97977441Y-136449090D01*
X98122431Y-136236890D01*
X98171415Y-135995000D01*
X98318000Y-135995000D01*
X98608839Y-135937148D01*
X98855401Y-135772401D01*
X99072680Y-135555122D01*
X99118167Y-135555162D01*
X99461943Y-135413117D01*
X99725192Y-135150327D01*
X99867838Y-134806799D01*
X99868162Y-134434833D01*
X99726117Y-134091057D01*
X99463327Y-133827808D01*
X99119799Y-133685162D01*
X98747833Y-133684838D01*
X98404057Y-133826883D01*
X98140808Y-134089673D01*
X98095857Y-134197926D01*
X97990090Y-134033559D01*
X97921994Y-133987031D01*
X98064327Y-133844698D01*
X98161000Y-133611309D01*
X98161000Y-133020750D01*
X98002250Y-132862000D01*
X97028000Y-132862000D01*
X97028000Y-132882000D01*
X96774000Y-132882000D01*
X96774000Y-132862000D01*
X95799750Y-132862000D01*
X95641000Y-133020750D01*
X95641000Y-133611309D01*
X95737673Y-133844698D01*
X95878910Y-133985936D01*
X95824559Y-134020910D01*
X95679569Y-134233110D01*
X95628560Y-134485000D01*
X95628560Y-134749000D01*
X94773334Y-134749000D01*
X94808000Y-134665310D01*
X94808000Y-134524750D01*
X94649250Y-134366000D01*
X93550000Y-134366000D01*
X93550000Y-134386000D01*
X93296000Y-134386000D01*
X93296000Y-134366000D01*
X92196750Y-134366000D01*
X92038000Y-134524750D01*
X92038000Y-134665310D01*
X92127806Y-134882122D01*
X92076569Y-134957110D01*
X92025560Y-135209000D01*
X92025560Y-135809000D01*
X92069838Y-136044317D01*
X92133678Y-136143528D01*
X92076569Y-136227110D01*
X92025560Y-136479000D01*
X92025560Y-137079000D01*
X92069838Y-137314317D01*
X92133678Y-137413528D01*
X92076569Y-137497110D01*
X92025560Y-137749000D01*
X92025560Y-138349000D01*
X92045006Y-138452347D01*
X91880799Y-138384162D01*
X91508833Y-138383838D01*
X91165057Y-138525883D01*
X90901808Y-138788673D01*
X90759162Y-139132201D01*
X90758838Y-139504167D01*
X90900883Y-139847943D01*
X91163673Y-140111192D01*
X91507201Y-140253838D01*
X91879167Y-140254162D01*
X92046627Y-140184969D01*
X92025560Y-140289000D01*
X92025560Y-140889000D01*
X92069838Y-141124317D01*
X92208910Y-141340441D01*
X92421110Y-141485431D01*
X92673000Y-141536440D01*
X94173000Y-141536440D01*
X94408317Y-141492162D01*
X94624441Y-141353090D01*
X94769431Y-141140890D01*
X94820440Y-140889000D01*
X94820440Y-140289000D01*
X94776162Y-140053683D01*
X94712322Y-139954472D01*
X94769431Y-139870890D01*
X94820440Y-139619000D01*
X94820440Y-139019000D01*
X94776162Y-138783683D01*
X94712322Y-138684472D01*
X94769431Y-138600890D01*
X94820440Y-138349000D01*
X94820440Y-137932242D01*
X98300000Y-141411802D01*
X98300000Y-150311198D01*
X90930000Y-142941198D01*
X90930000Y-141986000D01*
X90872148Y-141695161D01*
X90707401Y-141448599D01*
X88040401Y-138781599D01*
X87793839Y-138616852D01*
X87503000Y-138559000D01*
X85477914Y-138559000D01*
X85520440Y-138349000D01*
X85520440Y-137749000D01*
X85480926Y-137539000D01*
X86487000Y-137539000D01*
X86777839Y-137481148D01*
X87024401Y-137316401D01*
X88548401Y-135792401D01*
X88713148Y-135545840D01*
X88738410Y-135418839D01*
X88771000Y-135255000D01*
X88771000Y-132588000D01*
X88713148Y-132297161D01*
X88548401Y-132050599D01*
X87659401Y-131161599D01*
X87412839Y-130996852D01*
X87122000Y-130939000D01*
X85324563Y-130939000D01*
X85124890Y-130802569D01*
X84873000Y-130751560D01*
X84250363Y-130751560D01*
X83902000Y-130403198D01*
X83902000Y-125273334D01*
X83977317Y-125259162D01*
X84193441Y-125120090D01*
X84298726Y-124966000D01*
X86726617Y-124966000D01*
X86735910Y-124980441D01*
X86948110Y-125125431D01*
X87200000Y-125176440D01*
X88400000Y-125176440D01*
X88635317Y-125132162D01*
X88851441Y-124993090D01*
X88899134Y-124923289D01*
X88935910Y-124980441D01*
X89148110Y-125125431D01*
X89240000Y-125144039D01*
X89240000Y-126576000D01*
X89297852Y-126866839D01*
X89462599Y-127113401D01*
X90807000Y-128457802D01*
X90807000Y-132334000D01*
X90864852Y-132624839D01*
X91029599Y-132871401D01*
X91664599Y-133506401D01*
X91911161Y-133671148D01*
X92082511Y-133705232D01*
X92038000Y-133812690D01*
X92038000Y-133953250D01*
X92196750Y-134112000D01*
X93296000Y-134112000D01*
X93296000Y-134092000D01*
X93550000Y-134092000D01*
X93550000Y-134112000D01*
X94649250Y-134112000D01*
X94808000Y-133953250D01*
X94808000Y-133812690D01*
X94718194Y-133595878D01*
X94769431Y-133520890D01*
X94820440Y-133269000D01*
X94820440Y-132669000D01*
X94811351Y-132620691D01*
X106817000Y-132620691D01*
X106817000Y-133211250D01*
X106975750Y-133370000D01*
X107950000Y-133370000D01*
X107950000Y-132270750D01*
X107791250Y-132112000D01*
X107325690Y-132112000D01*
X107092301Y-132208673D01*
X106913673Y-132387302D01*
X106817000Y-132620691D01*
X94811351Y-132620691D01*
X94776162Y-132433683D01*
X94772317Y-132427707D01*
X94905839Y-132401148D01*
X95152401Y-132236401D01*
X95719411Y-131669391D01*
X95641000Y-131858691D01*
X95641000Y-132449250D01*
X95799750Y-132608000D01*
X96774000Y-132608000D01*
X96774000Y-131508750D01*
X97028000Y-131508750D01*
X97028000Y-132608000D01*
X98002250Y-132608000D01*
X98161000Y-132449250D01*
X98161000Y-131858691D01*
X98064327Y-131625302D01*
X97885699Y-131446673D01*
X97652310Y-131350000D01*
X97186750Y-131350000D01*
X97028000Y-131508750D01*
X96774000Y-131508750D01*
X96615250Y-131350000D01*
X96149690Y-131350000D01*
X95960392Y-131428410D01*
X96199802Y-131189000D01*
X101672469Y-131189000D01*
X101684990Y-131219303D01*
X102077630Y-131612629D01*
X102590900Y-131825757D01*
X103146661Y-131826242D01*
X103660303Y-131614010D01*
X104053629Y-131221370D01*
X104266757Y-130708100D01*
X104267242Y-130152339D01*
X104055010Y-129638697D01*
X103662370Y-129245371D01*
X103630000Y-129231930D01*
X103630000Y-129086531D01*
X103660303Y-129074010D01*
X104053629Y-128681370D01*
X104266757Y-128168100D01*
X104267242Y-127612339D01*
X104055010Y-127098697D01*
X103702167Y-126745237D01*
X103867317Y-126714162D01*
X104083441Y-126575090D01*
X104228431Y-126362890D01*
X104279440Y-126111000D01*
X104279440Y-124587000D01*
X104255167Y-124458000D01*
X107980895Y-124458000D01*
X108071910Y-124599441D01*
X108284110Y-124744431D01*
X108536000Y-124795440D01*
X109736000Y-124795440D01*
X109971317Y-124751162D01*
X110187441Y-124612090D01*
X110235134Y-124542289D01*
X110271910Y-124599441D01*
X110484110Y-124744431D01*
X110736000Y-124795440D01*
X111936000Y-124795440D01*
X112171317Y-124751162D01*
X112387441Y-124612090D01*
X112492726Y-124458000D01*
X112799198Y-124458000D01*
X113456560Y-125115362D01*
X113456560Y-125738000D01*
X113500838Y-125973317D01*
X113639910Y-126189441D01*
X113709711Y-126237134D01*
X113652559Y-126273910D01*
X113507569Y-126486110D01*
X113456560Y-126738000D01*
X113456560Y-127360638D01*
X112539834Y-128277364D01*
X112527090Y-128257559D01*
X112314890Y-128112569D01*
X112063000Y-128061560D01*
X110863000Y-128061560D01*
X110627683Y-128105838D01*
X110411559Y-128244910D01*
X110363866Y-128314711D01*
X110327090Y-128257559D01*
X110114890Y-128112569D01*
X109863000Y-128061560D01*
X108663000Y-128061560D01*
X108427683Y-128105838D01*
X108211559Y-128244910D01*
X108066569Y-128457110D01*
X108015560Y-128709000D01*
X108015560Y-129609000D01*
X108059838Y-129844317D01*
X108198910Y-130060441D01*
X108411110Y-130205431D01*
X108503000Y-130224039D01*
X108503000Y-131615000D01*
X108560852Y-131905839D01*
X108698604Y-132112000D01*
X108362750Y-132112000D01*
X108204000Y-132270750D01*
X108204000Y-133370000D01*
X109178250Y-133370000D01*
X109337000Y-133211250D01*
X109337000Y-132763802D01*
X110079599Y-133506401D01*
X110326161Y-133671148D01*
X110617000Y-133729000D01*
X111220666Y-133729000D01*
X111186000Y-133812690D01*
X111186000Y-133953250D01*
X111344750Y-134112000D01*
X112444000Y-134112000D01*
X112444000Y-134092000D01*
X112698000Y-134092000D01*
X112698000Y-134112000D01*
X113797250Y-134112000D01*
X113956000Y-133953250D01*
X113956000Y-133812690D01*
X113921334Y-133729000D01*
X114046000Y-133729000D01*
X114336839Y-133671148D01*
X114583401Y-133506401D01*
X120964802Y-127125000D01*
X121219000Y-127125000D01*
X121509839Y-127067148D01*
X121756401Y-126902401D01*
X122541362Y-126117440D01*
X123089000Y-126117440D01*
X123324317Y-126073162D01*
X123540441Y-125934090D01*
X123685431Y-125721890D01*
X123736440Y-125470000D01*
X123736440Y-124720000D01*
X123692162Y-124484683D01*
X123553090Y-124268559D01*
X123340890Y-124123569D01*
X123249000Y-124104961D01*
X123249000Y-121975905D01*
X123413441Y-121870090D01*
X123558431Y-121657890D01*
X123609440Y-121406000D01*
X123609440Y-120656000D01*
X123565162Y-120420683D01*
X123426090Y-120204559D01*
X123213890Y-120059569D01*
X123122000Y-120040961D01*
X123122000Y-117832334D01*
X123197317Y-117818162D01*
X123413441Y-117679090D01*
X123558431Y-117466890D01*
X123609440Y-117215000D01*
X123609440Y-116465000D01*
X123565162Y-116229683D01*
X123426090Y-116013559D01*
X123213890Y-115868569D01*
X122983925Y-115822000D01*
X126177198Y-115822000D01*
X128084198Y-117729000D01*
X127508690Y-117729000D01*
X127275301Y-117825673D01*
X127096673Y-118004302D01*
X127000000Y-118237691D01*
X127000000Y-118840250D01*
X127158750Y-118999000D01*
X128270000Y-118999000D01*
X128270000Y-118979000D01*
X128524000Y-118979000D01*
X128524000Y-118999000D01*
X128544000Y-118999000D01*
X128544000Y-119253000D01*
X128524000Y-119253000D01*
X128524000Y-119273000D01*
X128270000Y-119273000D01*
X128270000Y-119253000D01*
X127158750Y-119253000D01*
X127000000Y-119411750D01*
X127000000Y-120014309D01*
X127096673Y-120247698D01*
X127275301Y-120426327D01*
X127508690Y-120523000D01*
X127564614Y-120523000D01*
X127213371Y-120873630D01*
X127000243Y-121386900D01*
X126999758Y-121942661D01*
X127013143Y-121975055D01*
X124260599Y-124727599D01*
X124095852Y-124974161D01*
X124038000Y-125265000D01*
X124038000Y-127964666D01*
X123962683Y-127978838D01*
X123746559Y-128117910D01*
X123698866Y-128187711D01*
X123662090Y-128130559D01*
X123449890Y-127985569D01*
X123198000Y-127934560D01*
X121998000Y-127934560D01*
X121762683Y-127978838D01*
X121546559Y-128117910D01*
X121441274Y-128272000D01*
X120904000Y-128272000D01*
X120613161Y-128329852D01*
X120366599Y-128494599D01*
X117191599Y-131669599D01*
X117026852Y-131916161D01*
X116969000Y-132207000D01*
X116969000Y-133670198D01*
X113956000Y-136683198D01*
X113956000Y-136651998D01*
X113797252Y-136651998D01*
X113956000Y-136493250D01*
X113956000Y-136352690D01*
X113866194Y-136135878D01*
X113917431Y-136060890D01*
X113968440Y-135809000D01*
X113968440Y-135209000D01*
X113924162Y-134973683D01*
X113865822Y-134883020D01*
X113956000Y-134665310D01*
X113956000Y-134524750D01*
X113797250Y-134366000D01*
X112698000Y-134366000D01*
X112698000Y-134386000D01*
X112444000Y-134386000D01*
X112444000Y-134366000D01*
X111344750Y-134366000D01*
X111186000Y-134524750D01*
X111186000Y-134665310D01*
X111220666Y-134749000D01*
X109098026Y-134749000D01*
X109240327Y-134606698D01*
X109337000Y-134373309D01*
X109337000Y-133782750D01*
X109178250Y-133624000D01*
X108204000Y-133624000D01*
X108204000Y-133644000D01*
X107950000Y-133644000D01*
X107950000Y-133624000D01*
X106975750Y-133624000D01*
X106817000Y-133782750D01*
X106817000Y-134373309D01*
X106913673Y-134606698D01*
X107054910Y-134747936D01*
X107000559Y-134782910D01*
X106946671Y-134861778D01*
X106838117Y-134599057D01*
X106575327Y-134335808D01*
X106231799Y-134193162D01*
X105859833Y-134192838D01*
X105516057Y-134334883D01*
X105252808Y-134597673D01*
X105110162Y-134941201D01*
X105109838Y-135313167D01*
X105251883Y-135656943D01*
X105514673Y-135920192D01*
X105858201Y-136062838D01*
X105905077Y-136062879D01*
X106376599Y-136534401D01*
X106623161Y-136699148D01*
X106804560Y-136735231D01*
X106804560Y-136747000D01*
X106848838Y-136982317D01*
X106987910Y-137198441D01*
X107200110Y-137343431D01*
X107452000Y-137394440D01*
X108702000Y-137394440D01*
X108937317Y-137350162D01*
X109153441Y-137211090D01*
X109298431Y-136998890D01*
X109349440Y-136747000D01*
X109349440Y-136269000D01*
X111220666Y-136269000D01*
X111186000Y-136352690D01*
X111186000Y-136493250D01*
X111344750Y-136652000D01*
X112444000Y-136652000D01*
X112444000Y-136632000D01*
X112698000Y-136632000D01*
X112698000Y-136652000D01*
X112718000Y-136652000D01*
X112718000Y-136906000D01*
X112698000Y-136906000D01*
X112698000Y-136926000D01*
X112444000Y-136926000D01*
X112444000Y-136906000D01*
X111344750Y-136906000D01*
X111186000Y-137064750D01*
X111186000Y-137205310D01*
X111220666Y-137289000D01*
X109855000Y-137289000D01*
X109644407Y-137330890D01*
X109564160Y-137346852D01*
X109317599Y-137511599D01*
X108658864Y-138170334D01*
X108651890Y-138165569D01*
X108400000Y-138114560D01*
X107500000Y-138114560D01*
X107264683Y-138158838D01*
X107048559Y-138297910D01*
X106903569Y-138510110D01*
X106852560Y-138762000D01*
X106852560Y-139962000D01*
X106896838Y-140197317D01*
X107035910Y-140413441D01*
X107105711Y-140461134D01*
X107048559Y-140497910D01*
X106903569Y-140710110D01*
X106852560Y-140962000D01*
X106852560Y-140972000D01*
X104067531Y-140972000D01*
X104055010Y-140941697D01*
X103702928Y-140589000D01*
X103758310Y-140589000D01*
X103991699Y-140492327D01*
X104170327Y-140313698D01*
X104267000Y-140080309D01*
X104267000Y-139477750D01*
X104108250Y-139319000D01*
X102997000Y-139319000D01*
X102997000Y-139339000D01*
X102743000Y-139339000D01*
X102743000Y-139319000D01*
X101631750Y-139319000D01*
X101473000Y-139477750D01*
X101473000Y-140080309D01*
X101569673Y-140313698D01*
X101748301Y-140492327D01*
X101981690Y-140589000D01*
X102037614Y-140589000D01*
X101686371Y-140939630D01*
X101473243Y-141452900D01*
X101472758Y-142008661D01*
X101684990Y-142522303D01*
X102077630Y-142915629D01*
X102285512Y-143001949D01*
X102079697Y-143086990D01*
X101686371Y-143479630D01*
X101473243Y-143992900D01*
X101472758Y-144548661D01*
X101684990Y-145062303D01*
X102077630Y-145455629D01*
X102590900Y-145668757D01*
X103146661Y-145669242D01*
X103660303Y-145457010D01*
X104053629Y-145064370D01*
X104266757Y-144551100D01*
X104267242Y-143995339D01*
X104055010Y-143481697D01*
X103662370Y-143088371D01*
X103454488Y-143002051D01*
X103660303Y-142917010D01*
X104053629Y-142524370D01*
X104067070Y-142492000D01*
X106957765Y-142492000D01*
X107035910Y-142613441D01*
X107248110Y-142758431D01*
X107500000Y-142809440D01*
X108400000Y-142809440D01*
X108635317Y-142765162D01*
X108851441Y-142626090D01*
X108996431Y-142413890D01*
X109047440Y-142162000D01*
X109047440Y-140962000D01*
X109003162Y-140726683D01*
X108864090Y-140510559D01*
X108794289Y-140462866D01*
X108851441Y-140426090D01*
X108996431Y-140213890D01*
X109047440Y-139962000D01*
X109047440Y-139920757D01*
X109079401Y-139899401D01*
X110169802Y-138809000D01*
X111216086Y-138809000D01*
X111173560Y-139019000D01*
X111173560Y-139619000D01*
X111217838Y-139854317D01*
X111281678Y-139953528D01*
X111224569Y-140037110D01*
X111173560Y-140289000D01*
X111173560Y-140889000D01*
X111217838Y-141124317D01*
X111356910Y-141340441D01*
X111569110Y-141485431D01*
X111821000Y-141536440D01*
X113321000Y-141536440D01*
X113556317Y-141492162D01*
X113772441Y-141353090D01*
X113917431Y-141140890D01*
X113968440Y-140889000D01*
X113968440Y-140443242D01*
X114853000Y-141327802D01*
X114853000Y-143331666D01*
X114777683Y-143345838D01*
X114561559Y-143484910D01*
X114456274Y-143639000D01*
X109601000Y-143639000D01*
X109310160Y-143696852D01*
X109063599Y-143861599D01*
X107719999Y-145205199D01*
X107555252Y-145451761D01*
X107497400Y-145742600D01*
X107497400Y-146143521D01*
X107305959Y-146266710D01*
X107160969Y-146478910D01*
X107109960Y-146730800D01*
X107109960Y-148030800D01*
X107154238Y-148266117D01*
X107293310Y-148482241D01*
X107505510Y-148627231D01*
X107757400Y-148678240D01*
X108757400Y-148678240D01*
X108992717Y-148633962D01*
X109208841Y-148494890D01*
X109353831Y-148282690D01*
X109404840Y-148030800D01*
X109404840Y-146730800D01*
X109360562Y-146495483D01*
X109221490Y-146279359D01*
X109017400Y-146139910D01*
X109017400Y-146057402D01*
X109915802Y-145159000D01*
X114457895Y-145159000D01*
X114548910Y-145300441D01*
X114761110Y-145445431D01*
X114853000Y-145464039D01*
X114853000Y-145998666D01*
X114777683Y-146012838D01*
X114561559Y-146151910D01*
X114416569Y-146364110D01*
X114365560Y-146616000D01*
X114365560Y-147516000D01*
X114409838Y-147751317D01*
X114548910Y-147967441D01*
X114761110Y-148112431D01*
X115013000Y-148163440D01*
X116213000Y-148163440D01*
X116448317Y-148119162D01*
X116664441Y-147980090D01*
X116712134Y-147910289D01*
X116748910Y-147967441D01*
X116961110Y-148112431D01*
X117213000Y-148163440D01*
X117413638Y-148163440D01*
X118048560Y-148798362D01*
X118048560Y-149354000D01*
X114995803Y-149354000D01*
X112904840Y-147263038D01*
X112904840Y-146730800D01*
X112860562Y-146495483D01*
X112721490Y-146279359D01*
X112509290Y-146134369D01*
X112257400Y-146083360D01*
X111257400Y-146083360D01*
X111022083Y-146127638D01*
X110805959Y-146266710D01*
X110660969Y-146478910D01*
X110609960Y-146730800D01*
X110609960Y-148030800D01*
X110654238Y-148266117D01*
X110793310Y-148482241D01*
X111005510Y-148627231D01*
X111257400Y-148678240D01*
X112170438Y-148678240D01*
X114143599Y-150651402D01*
X114390161Y-150816148D01*
X114681000Y-150874000D01*
X119831198Y-150874000D01*
X117717522Y-152987676D01*
X117220590Y-152781332D01*
X116462735Y-152780670D01*
X115762314Y-153070078D01*
X115225961Y-153605495D01*
X114935332Y-154305410D01*
X114934670Y-155063265D01*
X115224078Y-155763686D01*
X115759495Y-156300039D01*
X116459410Y-156590668D01*
X117217265Y-156591330D01*
X117917686Y-156301922D01*
X118186299Y-156033777D01*
X120370828Y-156033777D01*
X120502520Y-156328657D01*
X121210036Y-156600261D01*
X121967632Y-156580436D01*
X122575480Y-156328657D01*
X122707172Y-156033777D01*
X121539000Y-154865605D01*
X120370828Y-156033777D01*
X118186299Y-156033777D01*
X118454039Y-155766505D01*
X118744668Y-155066590D01*
X118745287Y-154357036D01*
X119624739Y-154357036D01*
X119644564Y-155114632D01*
X119896343Y-155722480D01*
X120191223Y-155854172D01*
X121359395Y-154686000D01*
X121718605Y-154686000D01*
X122886777Y-155854172D01*
X123181657Y-155722480D01*
X123453261Y-155014964D01*
X123433436Y-154257368D01*
X123181657Y-153649520D01*
X122886777Y-153517828D01*
X121718605Y-154686000D01*
X121359395Y-154686000D01*
X120191223Y-153517828D01*
X119896343Y-153649520D01*
X119624739Y-154357036D01*
X118745287Y-154357036D01*
X118745330Y-154308735D01*
X118687069Y-154167733D01*
X119516579Y-153338223D01*
X120370828Y-153338223D01*
X121539000Y-154506395D01*
X122707172Y-153338223D01*
X122575480Y-153043343D01*
X121867964Y-152771739D01*
X121110368Y-152791564D01*
X120502520Y-153043343D01*
X120370828Y-153338223D01*
X119516579Y-153338223D01*
X121853802Y-151001000D01*
X122428000Y-151001000D01*
X122718839Y-150943148D01*
X122965401Y-150778401D01*
X123981401Y-149762401D01*
X124146148Y-149515839D01*
X124204000Y-149225000D01*
X124204000Y-143062802D01*
X129696401Y-137570401D01*
X129861148Y-137323839D01*
X129919000Y-137033000D01*
X129919000Y-136494105D01*
X130060441Y-136403090D01*
X130205431Y-136190890D01*
X130256440Y-135939000D01*
X130256440Y-134999000D01*
X132493646Y-134999000D01*
X132541110Y-135031431D01*
X132760000Y-135075757D01*
X132760000Y-136219666D01*
X132684683Y-136233838D01*
X132468559Y-136372910D01*
X132323569Y-136585110D01*
X132272560Y-136837000D01*
X132272560Y-137737000D01*
X132316838Y-137972317D01*
X132455910Y-138188441D01*
X132668110Y-138333431D01*
X132920000Y-138384440D01*
X134120000Y-138384440D01*
X134355317Y-138340162D01*
X134571441Y-138201090D01*
X134619134Y-138131289D01*
X134655910Y-138188441D01*
X134868110Y-138333431D01*
X135120000Y-138384440D01*
X135130000Y-138384440D01*
X135130000Y-138623198D01*
X134940198Y-138813000D01*
X133404463Y-138813000D01*
X133372327Y-138780808D01*
X133028799Y-138638162D01*
X132656833Y-138637838D01*
X132313057Y-138779883D01*
X132049808Y-139042673D01*
X131907162Y-139386201D01*
X131906838Y-139758167D01*
X132048883Y-140101943D01*
X132311673Y-140365192D01*
X132655201Y-140507838D01*
X133027167Y-140508162D01*
X133370943Y-140366117D01*
X133404118Y-140333000D01*
X135255000Y-140333000D01*
X135545839Y-140275148D01*
X135792401Y-140110401D01*
X136427401Y-139475401D01*
X136592148Y-139228839D01*
X136650000Y-138938000D01*
X136650000Y-138279235D01*
X136771441Y-138201090D01*
X136916431Y-137988890D01*
X136967440Y-137737000D01*
X136967440Y-136837000D01*
X136923162Y-136601683D01*
X136784090Y-136385559D01*
X136571890Y-136240569D01*
X136320000Y-136189560D01*
X135120000Y-136189560D01*
X134884683Y-136233838D01*
X134668559Y-136372910D01*
X134620866Y-136442711D01*
X134584090Y-136385559D01*
X134371890Y-136240569D01*
X134280000Y-136221961D01*
X134280000Y-135004905D01*
X134444441Y-134899090D01*
X134490969Y-134830994D01*
X134633302Y-134973327D01*
X134866691Y-135070000D01*
X135307250Y-135070000D01*
X135466000Y-134911250D01*
X135466000Y-134112000D01*
X135720000Y-134112000D01*
X135720000Y-134911250D01*
X135878750Y-135070000D01*
X136319309Y-135070000D01*
X136552698Y-134973327D01*
X136731327Y-134794699D01*
X136828000Y-134561310D01*
X136828000Y-134270750D01*
X136669250Y-134112000D01*
X135720000Y-134112000D01*
X135466000Y-134112000D01*
X135446000Y-134112000D01*
X135446000Y-133858000D01*
X135466000Y-133858000D01*
X135466000Y-133058750D01*
X135720000Y-133058750D01*
X135720000Y-133858000D01*
X136669250Y-133858000D01*
X136828000Y-133699250D01*
X136828000Y-133408690D01*
X136731327Y-133175301D01*
X136552698Y-132996673D01*
X136319309Y-132900000D01*
X135878750Y-132900000D01*
X135720000Y-133058750D01*
X135466000Y-133058750D01*
X135307250Y-132900000D01*
X134866691Y-132900000D01*
X134633302Y-132996673D01*
X134492064Y-133137910D01*
X134457090Y-133083559D01*
X134244890Y-132938569D01*
X133993000Y-132887560D01*
X132855242Y-132887560D01*
X134851362Y-130891440D01*
X135898000Y-130891440D01*
X136133317Y-130847162D01*
X136349441Y-130708090D01*
X136397134Y-130638289D01*
X136433910Y-130695441D01*
X136646110Y-130840431D01*
X136898000Y-130891440D01*
X138098000Y-130891440D01*
X138333317Y-130847162D01*
X138549441Y-130708090D01*
X138654726Y-130554000D01*
X138811000Y-130554000D01*
X139101839Y-130496148D01*
X139348401Y-130331401D01*
X143285401Y-126394401D01*
X143450148Y-126147839D01*
X143508000Y-125857000D01*
X143508000Y-111633000D01*
X143450148Y-111342161D01*
X143285401Y-111095599D01*
X139348401Y-107158599D01*
X139101839Y-106993852D01*
X138811000Y-106936000D01*
X109280802Y-106936000D01*
X94753000Y-92408198D01*
X94753000Y-69049440D01*
X95343000Y-69049440D01*
X95578317Y-69005162D01*
X95794441Y-68866090D01*
X95939431Y-68653890D01*
X95990440Y-68402000D01*
X95990440Y-65202000D01*
X95946162Y-64966683D01*
X95807090Y-64750559D01*
X95628000Y-64628192D01*
X95628000Y-64529005D01*
X95628001Y-64529000D01*
X95503543Y-63903312D01*
X95149120Y-63372880D01*
X92313000Y-60536760D01*
X92313000Y-59955750D01*
X94244000Y-59955750D01*
X94244000Y-60546309D01*
X94340673Y-60779698D01*
X94519301Y-60958327D01*
X94752690Y-61055000D01*
X95218250Y-61055000D01*
X95377000Y-60896250D01*
X95377000Y-59797000D01*
X95631000Y-59797000D01*
X95631000Y-60896250D01*
X95789750Y-61055000D01*
X96255310Y-61055000D01*
X96488699Y-60958327D01*
X96667327Y-60779698D01*
X96764000Y-60546309D01*
X96764000Y-59955750D01*
X96605250Y-59797000D01*
X95631000Y-59797000D01*
X95377000Y-59797000D01*
X94402750Y-59797000D01*
X94244000Y-59955750D01*
X92313000Y-59955750D01*
X92313000Y-56007000D01*
X92188543Y-55381313D01*
X91985204Y-55076994D01*
X91958100Y-54940732D01*
X91657746Y-54491221D01*
X91431428Y-54340000D01*
X93302760Y-54340000D01*
X93869000Y-54906239D01*
X93869000Y-57170000D01*
X93993457Y-57795687D01*
X94347880Y-58326120D01*
X94414308Y-58370506D01*
X94414910Y-58371441D01*
X94483006Y-58417969D01*
X94340673Y-58560302D01*
X94244000Y-58793691D01*
X94244000Y-59384250D01*
X94402750Y-59543000D01*
X95377000Y-59543000D01*
X95377000Y-59523000D01*
X95631000Y-59523000D01*
X95631000Y-59543000D01*
X96605250Y-59543000D01*
X96764000Y-59384250D01*
X96764000Y-58793691D01*
X96667327Y-58560302D01*
X96526090Y-58419064D01*
X96580441Y-58384090D01*
X96586388Y-58375386D01*
X96660120Y-58326120D01*
X97014543Y-57795687D01*
X97139000Y-57170000D01*
X97139000Y-54389240D01*
X99077202Y-56327441D01*
X99330802Y-56941200D01*
X99862003Y-57473330D01*
X100174000Y-57602882D01*
X100174000Y-62493038D01*
X99999683Y-62525838D01*
X99783559Y-62664910D01*
X99638569Y-62877110D01*
X99587560Y-63129000D01*
X99587560Y-64379000D01*
X99631838Y-64614317D01*
X99770910Y-64830441D01*
X99983110Y-64975431D01*
X100235000Y-65026440D01*
X100860000Y-65026440D01*
X100860000Y-67817442D01*
X100634683Y-67859838D01*
X100418559Y-67998910D01*
X100273569Y-68211110D01*
X100222560Y-68463000D01*
X100222560Y-69713000D01*
X100266838Y-69948317D01*
X100405910Y-70164441D01*
X100618110Y-70309431D01*
X100860000Y-70358415D01*
X100860000Y-71166197D01*
X100190320Y-71835878D01*
X100144833Y-71835838D01*
X99801057Y-71977883D01*
X99537808Y-72240673D01*
X99395162Y-72584201D01*
X99394838Y-72956167D01*
X99536883Y-73299943D01*
X99799673Y-73563192D01*
X100143201Y-73705838D01*
X100515167Y-73706162D01*
X100858943Y-73564117D01*
X101122192Y-73301327D01*
X101264838Y-72957799D01*
X101264879Y-72910923D01*
X102157401Y-72018402D01*
X102224959Y-71917294D01*
X102556201Y-72054838D01*
X102928167Y-72055162D01*
X103271943Y-71913117D01*
X103360000Y-71825214D01*
X103360000Y-72477000D01*
X103417852Y-72767839D01*
X103582599Y-73014401D01*
X103778560Y-73210362D01*
X103778560Y-74158000D01*
X103822838Y-74393317D01*
X103961910Y-74609441D01*
X104174110Y-74754431D01*
X104426000Y-74805440D01*
X105926000Y-74805440D01*
X106161317Y-74761162D01*
X106377441Y-74622090D01*
X106425134Y-74552289D01*
X106461910Y-74609441D01*
X106674110Y-74754431D01*
X106916000Y-74803415D01*
X106916000Y-75926000D01*
X106973852Y-76216839D01*
X107014931Y-76278318D01*
X107014838Y-76385167D01*
X107156883Y-76728943D01*
X107419673Y-76992192D01*
X107763201Y-77134838D01*
X108135167Y-77135162D01*
X108478943Y-76993117D01*
X108742192Y-76730327D01*
X108884838Y-76386799D01*
X108885162Y-76014833D01*
X108743117Y-75671057D01*
X108480327Y-75407808D01*
X108436000Y-75389402D01*
X108436000Y-74803558D01*
X108661317Y-74761162D01*
X108877441Y-74622090D01*
X109022431Y-74409890D01*
X109046102Y-74293000D01*
X110490000Y-74293000D01*
X110780839Y-74235148D01*
X111027401Y-74070401D01*
X112458500Y-72639302D01*
X112475878Y-72656680D01*
X112475838Y-72702167D01*
X112617883Y-73045943D01*
X112880673Y-73309192D01*
X113224201Y-73451838D01*
X113596167Y-73452162D01*
X113939943Y-73310117D01*
X114203192Y-73047327D01*
X114345838Y-72703799D01*
X114346162Y-72331833D01*
X114204117Y-71988057D01*
X113941327Y-71724808D01*
X113597799Y-71582162D01*
X113550923Y-71582121D01*
X113533302Y-71564500D01*
X113694401Y-71403401D01*
X113859148Y-71156840D01*
X113917000Y-70866000D01*
X113917000Y-66314000D01*
X113859148Y-66023161D01*
X113859148Y-66023160D01*
X113694401Y-65776599D01*
X112248440Y-64330638D01*
X112248440Y-63383000D01*
X112204162Y-63147683D01*
X112065090Y-62931559D01*
X111852890Y-62786569D01*
X111611000Y-62737585D01*
X111611000Y-57703362D01*
X112163200Y-57475198D01*
X112695330Y-56943997D01*
X112983671Y-56249594D01*
X112984327Y-55497705D01*
X112697198Y-54802800D01*
X112165997Y-54270670D01*
X111471594Y-53982329D01*
X110719705Y-53981673D01*
X110024800Y-54268802D01*
X109492670Y-54800003D01*
X109204329Y-55494406D01*
X109203673Y-56246295D01*
X109490802Y-56941200D01*
X110022003Y-57473330D01*
X110091000Y-57501980D01*
X110091000Y-62737442D01*
X109865683Y-62779838D01*
X109649559Y-62918910D01*
X109603031Y-62987006D01*
X109460698Y-62844673D01*
X109227309Y-62748000D01*
X108636750Y-62748000D01*
X108478000Y-62906750D01*
X108478000Y-63881000D01*
X108498000Y-63881000D01*
X108498000Y-64135000D01*
X108478000Y-64135000D01*
X108478000Y-65109250D01*
X108636750Y-65268000D01*
X109227309Y-65268000D01*
X109460698Y-65171327D01*
X109601936Y-65030090D01*
X109636910Y-65084441D01*
X109849110Y-65229431D01*
X110101000Y-65280440D01*
X111048638Y-65280440D01*
X112397000Y-66628802D01*
X112397000Y-70551198D01*
X110175198Y-72773000D01*
X109048038Y-72773000D01*
X109029162Y-72672683D01*
X108890090Y-72456559D01*
X108677890Y-72311569D01*
X108426000Y-72260560D01*
X108329638Y-72260560D01*
X108213401Y-72086599D01*
X107725401Y-71598599D01*
X107478839Y-71433852D01*
X107188000Y-71376000D01*
X106353463Y-71376000D01*
X106321327Y-71343808D01*
X105977799Y-71201162D01*
X105605833Y-71200838D01*
X105262057Y-71342883D01*
X104998808Y-71605673D01*
X104880000Y-71891793D01*
X104880000Y-70358558D01*
X105105317Y-70316162D01*
X105321441Y-70177090D01*
X105466431Y-69964890D01*
X105490102Y-69848000D01*
X107223730Y-69848000D01*
X107263910Y-69910441D01*
X107476110Y-70055431D01*
X107728000Y-70106440D01*
X109228000Y-70106440D01*
X109463317Y-70062162D01*
X109679441Y-69923090D01*
X109725969Y-69854994D01*
X109868302Y-69997327D01*
X110101691Y-70094000D01*
X110692250Y-70094000D01*
X110851000Y-69935250D01*
X110851000Y-68961000D01*
X111105000Y-68961000D01*
X111105000Y-69935250D01*
X111263750Y-70094000D01*
X111854309Y-70094000D01*
X112087698Y-69997327D01*
X112266327Y-69818699D01*
X112363000Y-69585310D01*
X112363000Y-69119750D01*
X112204250Y-68961000D01*
X111105000Y-68961000D01*
X110851000Y-68961000D01*
X110831000Y-68961000D01*
X110831000Y-68707000D01*
X110851000Y-68707000D01*
X110851000Y-67732750D01*
X111105000Y-67732750D01*
X111105000Y-68707000D01*
X112204250Y-68707000D01*
X112363000Y-68548250D01*
X112363000Y-68082690D01*
X112266327Y-67849301D01*
X112087698Y-67670673D01*
X111854309Y-67574000D01*
X111263750Y-67574000D01*
X111105000Y-67732750D01*
X110851000Y-67732750D01*
X110692250Y-67574000D01*
X110101691Y-67574000D01*
X109868302Y-67670673D01*
X109727064Y-67811910D01*
X109692090Y-67757559D01*
X109479890Y-67612569D01*
X109228000Y-67561560D01*
X107728000Y-67561560D01*
X107492683Y-67605838D01*
X107276559Y-67744910D01*
X107131569Y-67957110D01*
X107080560Y-68209000D01*
X107080560Y-68328000D01*
X105492038Y-68328000D01*
X105473162Y-68227683D01*
X105334090Y-68011559D01*
X105121890Y-67866569D01*
X104870000Y-67815560D01*
X103370000Y-67815560D01*
X103134683Y-67859838D01*
X102918559Y-67998910D01*
X102870866Y-68068711D01*
X102834090Y-68011559D01*
X102621890Y-67866569D01*
X102380000Y-67817585D01*
X102380000Y-64919273D01*
X102608691Y-65014000D01*
X103199250Y-65014000D01*
X103358000Y-64855250D01*
X103358000Y-63881000D01*
X103612000Y-63881000D01*
X103612000Y-64855250D01*
X103770750Y-65014000D01*
X104361309Y-65014000D01*
X104594698Y-64917327D01*
X104773327Y-64738699D01*
X104870000Y-64505310D01*
X104870000Y-64293750D01*
X106966000Y-64293750D01*
X106966000Y-64759310D01*
X107062673Y-64992699D01*
X107241302Y-65171327D01*
X107474691Y-65268000D01*
X108065250Y-65268000D01*
X108224000Y-65109250D01*
X108224000Y-64135000D01*
X107124750Y-64135000D01*
X106966000Y-64293750D01*
X104870000Y-64293750D01*
X104870000Y-64039750D01*
X104711250Y-63881000D01*
X103612000Y-63881000D01*
X103358000Y-63881000D01*
X103338000Y-63881000D01*
X103338000Y-63627000D01*
X103358000Y-63627000D01*
X103358000Y-62652750D01*
X103612000Y-62652750D01*
X103612000Y-63627000D01*
X104711250Y-63627000D01*
X104870000Y-63468250D01*
X104870000Y-63256690D01*
X106966000Y-63256690D01*
X106966000Y-63722250D01*
X107124750Y-63881000D01*
X108224000Y-63881000D01*
X108224000Y-62906750D01*
X108065250Y-62748000D01*
X107474691Y-62748000D01*
X107241302Y-62844673D01*
X107062673Y-63023301D01*
X106966000Y-63256690D01*
X104870000Y-63256690D01*
X104870000Y-63002690D01*
X104773327Y-62769301D01*
X104594698Y-62590673D01*
X104361309Y-62494000D01*
X103770750Y-62494000D01*
X103612000Y-62652750D01*
X103358000Y-62652750D01*
X103199250Y-62494000D01*
X102608691Y-62494000D01*
X102375302Y-62590673D01*
X102234064Y-62731910D01*
X102199090Y-62677559D01*
X101986890Y-62532569D01*
X101735000Y-62481560D01*
X101694000Y-62481560D01*
X101694000Y-57602957D01*
X102003200Y-57475198D01*
X102269929Y-57208934D01*
X104856671Y-57208934D01*
X104986530Y-57502257D01*
X105688614Y-57771357D01*
X106440235Y-57751297D01*
X107041470Y-57502257D01*
X107171329Y-57208934D01*
X106014000Y-56051605D01*
X104856671Y-57208934D01*
X102269929Y-57208934D01*
X102535330Y-56943997D01*
X102823671Y-56249594D01*
X102824284Y-55546614D01*
X104114643Y-55546614D01*
X104134703Y-56298235D01*
X104383743Y-56899470D01*
X104677066Y-57029329D01*
X105834395Y-55872000D01*
X106193605Y-55872000D01*
X107350934Y-57029329D01*
X107644257Y-56899470D01*
X107913357Y-56197386D01*
X107893297Y-55445765D01*
X107644257Y-54844530D01*
X107350934Y-54714671D01*
X106193605Y-55872000D01*
X105834395Y-55872000D01*
X104677066Y-54714671D01*
X104383743Y-54844530D01*
X104114643Y-55546614D01*
X102824284Y-55546614D01*
X102824327Y-55497705D01*
X102537198Y-54802800D01*
X102269932Y-54535066D01*
X104856671Y-54535066D01*
X106014000Y-55692395D01*
X107171329Y-54535066D01*
X107041470Y-54241743D01*
X106339386Y-53972643D01*
X105587765Y-53992703D01*
X104986530Y-54241743D01*
X104856671Y-54535066D01*
X102269932Y-54535066D01*
X102005997Y-54270670D01*
X101388504Y-54014265D01*
X98923120Y-51548880D01*
X98392688Y-51194457D01*
X97767000Y-51069999D01*
X97766995Y-51070000D01*
X93980005Y-51070000D01*
X93980000Y-51069999D01*
X93979995Y-51070000D01*
X89408000Y-51070000D01*
X88782312Y-51194457D01*
X88569851Y-51336419D01*
X88251880Y-51548880D01*
X88251878Y-51548883D01*
X86981880Y-52818880D01*
X86627457Y-53349312D01*
X86502999Y-53975000D01*
X86503000Y-53975005D01*
X86503000Y-54441277D01*
X86128235Y-54190867D01*
X85598000Y-54085397D01*
X85067765Y-54190867D01*
X84618254Y-54491221D01*
X84317900Y-54940732D01*
X84212430Y-55470967D01*
X84212430Y-56543033D01*
X84317900Y-57073268D01*
X84618254Y-57522779D01*
X84838000Y-57669609D01*
X84838000Y-61849000D01*
X84895852Y-62139839D01*
X85060599Y-62386401D01*
X87228758Y-64554560D01*
X84743000Y-64554560D01*
X84507683Y-64598838D01*
X84291559Y-64737910D01*
X84146569Y-64950110D01*
X84102648Y-65167000D01*
X81449239Y-65167000D01*
X76026000Y-59743760D01*
X76026000Y-57335934D01*
X78313671Y-57335934D01*
X78443530Y-57629257D01*
X79145614Y-57898357D01*
X79897235Y-57878297D01*
X80498470Y-57629257D01*
X80628329Y-57335934D01*
X79471000Y-56178605D01*
X78313671Y-57335934D01*
X76026000Y-57335934D01*
X76026000Y-56989911D01*
X76280671Y-56376594D01*
X76281284Y-55673614D01*
X77571643Y-55673614D01*
X77591703Y-56425235D01*
X77840743Y-57026470D01*
X78134066Y-57156329D01*
X79291395Y-55999000D01*
X79650605Y-55999000D01*
X80807934Y-57156329D01*
X81101257Y-57026470D01*
X81370357Y-56324386D01*
X81350297Y-55572765D01*
X81101257Y-54971530D01*
X80807934Y-54841671D01*
X79650605Y-55999000D01*
X79291395Y-55999000D01*
X78134066Y-54841671D01*
X77840743Y-54971530D01*
X77571643Y-55673614D01*
X76281284Y-55673614D01*
X76281327Y-55624705D01*
X75994198Y-54929800D01*
X75726932Y-54662066D01*
X78313671Y-54662066D01*
X79471000Y-55819395D01*
X80628329Y-54662066D01*
X80498470Y-54368743D01*
X79796386Y-54099643D01*
X79044765Y-54119703D01*
X78443530Y-54368743D01*
X78313671Y-54662066D01*
X75726932Y-54662066D01*
X75462997Y-54397670D01*
X74768594Y-54109329D01*
X74016705Y-54108673D01*
X73321800Y-54395802D01*
X72789670Y-54927003D01*
X72501329Y-55621406D01*
X72500673Y-56373295D01*
X72756000Y-56991233D01*
X72756000Y-60420995D01*
X72755999Y-60421000D01*
X72880457Y-61046688D01*
X73234880Y-61577120D01*
X79615878Y-67958117D01*
X79615880Y-67958120D01*
X80019311Y-68227683D01*
X80146313Y-68312543D01*
X80772000Y-68437001D01*
X80772005Y-68437000D01*
X84102146Y-68437000D01*
X84139838Y-68637317D01*
X84278910Y-68853441D01*
X84491110Y-68998431D01*
X84743000Y-69049440D01*
X85333000Y-69049440D01*
X85333000Y-97396000D01*
X85390852Y-97686839D01*
X85555599Y-97933401D01*
X107776878Y-120154680D01*
X107776838Y-120200167D01*
X107918883Y-120543943D01*
X108181673Y-120807192D01*
X108525201Y-120949838D01*
X108897167Y-120950162D01*
X109240943Y-120808117D01*
X109504192Y-120545327D01*
X109646838Y-120201799D01*
X109647162Y-119829833D01*
X109505117Y-119486057D01*
X109242327Y-119222808D01*
X108898799Y-119080162D01*
X108851923Y-119080121D01*
X86853000Y-97081198D01*
X86853000Y-69049440D01*
X87443000Y-69049440D01*
X87678317Y-69005162D01*
X87886000Y-68871522D01*
X87886000Y-94234000D01*
X87943852Y-94524839D01*
X88108599Y-94771401D01*
X103094599Y-109757401D01*
X103341160Y-109922148D01*
X103389414Y-109931746D01*
X103632000Y-109980000D01*
X111675040Y-109980000D01*
X111513559Y-110083910D01*
X111368569Y-110296110D01*
X111317560Y-110548000D01*
X111317560Y-111213068D01*
X111238252Y-111331761D01*
X111180400Y-111622600D01*
X111180400Y-115028521D01*
X110988959Y-115151710D01*
X110843969Y-115363910D01*
X110792960Y-115615800D01*
X110792960Y-116915800D01*
X110837238Y-117151117D01*
X110976310Y-117367241D01*
X111188510Y-117512231D01*
X111440400Y-117563240D01*
X112440400Y-117563240D01*
X112675717Y-117518962D01*
X112891841Y-117379890D01*
X113036831Y-117167690D01*
X113087840Y-116915800D01*
X113087840Y-115615800D01*
X113043562Y-115380483D01*
X112904490Y-115164359D01*
X112700400Y-115024910D01*
X112700400Y-112095440D01*
X113165000Y-112095440D01*
X113400317Y-112051162D01*
X113616441Y-111912090D01*
X113664134Y-111842289D01*
X113700910Y-111899441D01*
X113913110Y-112044431D01*
X114005000Y-112063039D01*
X114005000Y-113520198D01*
X113381599Y-114143599D01*
X113216852Y-114390161D01*
X113159000Y-114681000D01*
X113159000Y-118237000D01*
X113216852Y-118527839D01*
X113377563Y-118768360D01*
X113190400Y-118768360D01*
X112955083Y-118812638D01*
X112738959Y-118951710D01*
X112593969Y-119163910D01*
X112542960Y-119415800D01*
X112542960Y-120715800D01*
X112587238Y-120951117D01*
X112726310Y-121167241D01*
X112938510Y-121312231D01*
X113190400Y-121363240D01*
X113913038Y-121363240D01*
X115064000Y-122514202D01*
X115064000Y-123902710D01*
X115004000Y-123890560D01*
X114381362Y-123890560D01*
X113651401Y-123160599D01*
X113404839Y-122995852D01*
X113114000Y-122938000D01*
X112491105Y-122938000D01*
X112400090Y-122796559D01*
X112187890Y-122651569D01*
X111936000Y-122600560D01*
X110736000Y-122600560D01*
X110500683Y-122644838D01*
X110284559Y-122783910D01*
X110236866Y-122853711D01*
X110200090Y-122796559D01*
X109987890Y-122651569D01*
X109736000Y-122600560D01*
X108536000Y-122600560D01*
X108300683Y-122644838D01*
X108084559Y-122783910D01*
X107979274Y-122938000D01*
X102803802Y-122938000D01*
X102137401Y-122271599D01*
X101890839Y-122106852D01*
X101600000Y-122049000D01*
X89070000Y-122049000D01*
X88779160Y-122106852D01*
X88532599Y-122271599D01*
X87822638Y-122981560D01*
X87200000Y-122981560D01*
X86964683Y-123025838D01*
X86748559Y-123164910D01*
X86603569Y-123377110D01*
X86589618Y-123446000D01*
X84297105Y-123446000D01*
X84206090Y-123304559D01*
X83993890Y-123159569D01*
X83742000Y-123108560D01*
X82542000Y-123108560D01*
X82306683Y-123152838D01*
X82090559Y-123291910D01*
X82042866Y-123361711D01*
X82006090Y-123304559D01*
X81793890Y-123159569D01*
X81542000Y-123108560D01*
X80342000Y-123108560D01*
X80106683Y-123152838D01*
X79890559Y-123291910D01*
X79745569Y-123504110D01*
X79694560Y-123756000D01*
X79694560Y-124656000D01*
X79738838Y-124891317D01*
X79877910Y-125107441D01*
X80090110Y-125252431D01*
X80223000Y-125279342D01*
X80223000Y-126567666D01*
X80147683Y-126581838D01*
X79931559Y-126720910D01*
X79883866Y-126790711D01*
X79847090Y-126733559D01*
X79634890Y-126588569D01*
X79383000Y-126537560D01*
X78183000Y-126537560D01*
X77947683Y-126581838D01*
X77731559Y-126720910D01*
X77586569Y-126933110D01*
X77549618Y-127115580D01*
X76473566Y-128191632D01*
X76417160Y-128202852D01*
X76170599Y-128367599D01*
X74646599Y-129891599D01*
X74481852Y-130138161D01*
X74424000Y-130429000D01*
X74424000Y-132422953D01*
X74326117Y-132186057D01*
X74063327Y-131922808D01*
X73719799Y-131780162D01*
X73347833Y-131779838D01*
X73004057Y-131921883D01*
X72740808Y-132184673D01*
X72598162Y-132528201D01*
X72597838Y-132900167D01*
X72644939Y-133014162D01*
X72545683Y-133032838D01*
X72329559Y-133171910D01*
X72184569Y-133384110D01*
X72133560Y-133636000D01*
X72133560Y-133860000D01*
X71389914Y-133860000D01*
X71432440Y-133650000D01*
X71432440Y-133050000D01*
X71388162Y-132814683D01*
X71249090Y-132598559D01*
X71036890Y-132453569D01*
X70785000Y-132402560D01*
X70770000Y-132402560D01*
X70770000Y-128684000D01*
X70712148Y-128393161D01*
X70547401Y-128146599D01*
X69517608Y-127116806D01*
X69486162Y-126949683D01*
X69347090Y-126733559D01*
X69134890Y-126588569D01*
X68883000Y-126537560D01*
X67683000Y-126537560D01*
X67447683Y-126581838D01*
X67231559Y-126720910D01*
X67183866Y-126790711D01*
X67147090Y-126733559D01*
X66934890Y-126588569D01*
X66683000Y-126537560D01*
X65483000Y-126537560D01*
X65247683Y-126581838D01*
X65031559Y-126720910D01*
X64886569Y-126933110D01*
X64835560Y-127185000D01*
X64835560Y-127807638D01*
X64072599Y-128570599D01*
X63907852Y-128817161D01*
X63850000Y-129108000D01*
X63850000Y-132402560D01*
X63835000Y-132402560D01*
X63599683Y-132446838D01*
X63383559Y-132585910D01*
X63238569Y-132798110D01*
X63187560Y-133050000D01*
X63187560Y-133650000D01*
X63231838Y-133885317D01*
X63295678Y-133984528D01*
X63238569Y-134068110D01*
X63187560Y-134320000D01*
X63187560Y-134920000D01*
X63227074Y-135130000D01*
X62863000Y-135130000D01*
X62863000Y-57889247D01*
X62954295Y-57889327D01*
X63649200Y-57602198D01*
X63915929Y-57335934D01*
X66502671Y-57335934D01*
X66632530Y-57629257D01*
X67334614Y-57898357D01*
X68086235Y-57878297D01*
X68687470Y-57629257D01*
X68817329Y-57335934D01*
X67660000Y-56178605D01*
X66502671Y-57335934D01*
X63915929Y-57335934D01*
X64181330Y-57070997D01*
X64469671Y-56376594D01*
X64470284Y-55673614D01*
X65760643Y-55673614D01*
X65780703Y-56425235D01*
X66029743Y-57026470D01*
X66323066Y-57156329D01*
X67480395Y-55999000D01*
X67839605Y-55999000D01*
X68996934Y-57156329D01*
X69290257Y-57026470D01*
X69559357Y-56324386D01*
X69539297Y-55572765D01*
X69290257Y-54971530D01*
X68996934Y-54841671D01*
X67839605Y-55999000D01*
X67480395Y-55999000D01*
X66323066Y-54841671D01*
X66029743Y-54971530D01*
X65760643Y-55673614D01*
X64470284Y-55673614D01*
X64470327Y-55624705D01*
X64183198Y-54929800D01*
X63915932Y-54662066D01*
X66502671Y-54662066D01*
X67660000Y-55819395D01*
X68817329Y-54662066D01*
X68687470Y-54368743D01*
X67985386Y-54099643D01*
X67233765Y-54119703D01*
X66632530Y-54368743D01*
X66502671Y-54662066D01*
X63915932Y-54662066D01*
X63651997Y-54397670D01*
X62957594Y-54109329D01*
X62205705Y-54108673D01*
X61510800Y-54395802D01*
X60978670Y-54927003D01*
X60690329Y-55621406D01*
X60689673Y-56373295D01*
X60976802Y-57068200D01*
X61343000Y-57435038D01*
X61343000Y-135575198D01*
X60475198Y-136443000D01*
X60249334Y-136443000D01*
X60235162Y-136367683D01*
X60096090Y-136151559D01*
X59883890Y-136006569D01*
X59632000Y-135955560D01*
X58732000Y-135955560D01*
X58496683Y-135999838D01*
X58280559Y-136138910D01*
X58135569Y-136351110D01*
X58116961Y-136443000D01*
X57488000Y-136443000D01*
X57197161Y-136500852D01*
X56950599Y-136665599D01*
X51786599Y-141829599D01*
X51621852Y-142076161D01*
X51564000Y-142367000D01*
X50710000Y-142367000D01*
X50710000Y-50710000D01*
X149290000Y-50710000D01*
X149290000Y-169290000D01*
X149290000Y-169290000D01*
G37*
X149290000Y-169290000D02*
X119760484Y-169290000D01*
X120457686Y-169001922D01*
X120994039Y-168466505D01*
X121284668Y-167766590D01*
X121285330Y-167008735D01*
X120995922Y-166308314D01*
X120460505Y-165771961D01*
X119760590Y-165481332D01*
X119002735Y-165480670D01*
X118302314Y-165770078D01*
X117765961Y-166305495D01*
X117475332Y-167005410D01*
X117474670Y-167763265D01*
X117764078Y-168463686D01*
X118299495Y-169000039D01*
X118997801Y-169290000D01*
X114680484Y-169290000D01*
X115377686Y-169001922D01*
X115914039Y-168466505D01*
X116204668Y-167766590D01*
X116205330Y-167008735D01*
X115915922Y-166308314D01*
X115380505Y-165771961D01*
X114680590Y-165481332D01*
X113922735Y-165480670D01*
X113222314Y-165770078D01*
X112685961Y-166305495D01*
X112395332Y-167005410D01*
X112394670Y-167763265D01*
X112684078Y-168463686D01*
X113219495Y-169000039D01*
X113917801Y-169290000D01*
X105917484Y-169290000D01*
X106614686Y-169001922D01*
X107151039Y-168466505D01*
X107441668Y-167766590D01*
X107442330Y-167008735D01*
X107152922Y-166308314D01*
X106617505Y-165771961D01*
X105917590Y-165481332D01*
X105159735Y-165480670D01*
X104459314Y-165770078D01*
X103922961Y-166305495D01*
X103632332Y-167005410D01*
X103631670Y-167763265D01*
X103921078Y-168463686D01*
X104456495Y-169000039D01*
X105154801Y-169290000D01*
X100837484Y-169290000D01*
X101534686Y-169001922D01*
X102071039Y-168466505D01*
X102361668Y-167766590D01*
X102362330Y-167008735D01*
X102072922Y-166308314D01*
X101537505Y-165771961D01*
X100837590Y-165481332D01*
X100079735Y-165480670D01*
X99379314Y-165770078D01*
X98842961Y-166305495D01*
X98552332Y-167005410D01*
X98551670Y-167763265D01*
X98841078Y-168463686D01*
X99376495Y-169000039D01*
X100074801Y-169290000D01*
X80263484Y-169290000D01*
X80960686Y-169001922D01*
X81497039Y-168466505D01*
X81787668Y-167766590D01*
X81788330Y-167008735D01*
X81498922Y-166308314D01*
X80963505Y-165771961D01*
X80263590Y-165481332D01*
X79505735Y-165480670D01*
X78805314Y-165770078D01*
X78268961Y-166305495D01*
X77978332Y-167005410D01*
X77977670Y-167763265D01*
X78267078Y-168463686D01*
X78802495Y-169000039D01*
X79500801Y-169290000D01*
X75183484Y-169290000D01*
X75880686Y-169001922D01*
X76417039Y-168466505D01*
X76707668Y-167766590D01*
X76708330Y-167008735D01*
X76418922Y-166308314D01*
X75883505Y-165771961D01*
X75183590Y-165481332D01*
X74425735Y-165480670D01*
X73725314Y-165770078D01*
X73188961Y-166305495D01*
X72898332Y-167005410D01*
X72897670Y-167763265D01*
X73187078Y-168463686D01*
X73722495Y-169000039D01*
X74420801Y-169290000D01*
X50710000Y-169290000D01*
X50710000Y-164715265D01*
X59816670Y-164715265D01*
X60106078Y-165415686D01*
X60641495Y-165952039D01*
X61341410Y-166242668D01*
X62099265Y-166243330D01*
X62799686Y-165953922D01*
X63336039Y-165418505D01*
X63626668Y-164718590D01*
X63626670Y-164715265D01*
X69976670Y-164715265D01*
X70266078Y-165415686D01*
X70801495Y-165952039D01*
X71501410Y-166242668D01*
X72259265Y-166243330D01*
X72959686Y-165953922D01*
X73496039Y-165418505D01*
X73786668Y-164718590D01*
X73787330Y-163960735D01*
X73497922Y-163260314D01*
X72962505Y-162723961D01*
X72262590Y-162433332D01*
X71504735Y-162432670D01*
X70804314Y-162722078D01*
X70267961Y-163257495D01*
X69977332Y-163957410D01*
X69976670Y-164715265D01*
X63626670Y-164715265D01*
X63627330Y-163960735D01*
X63337922Y-163260314D01*
X62802505Y-162723961D01*
X62102590Y-162433332D01*
X61344735Y-162432670D01*
X60644314Y-162722078D01*
X60107961Y-163257495D01*
X59817332Y-163957410D01*
X59816670Y-164715265D01*
X50710000Y-164715265D01*
X50710000Y-156336133D01*
X63553472Y-156336133D01*
X63607303Y-156565179D01*
X64084664Y-156730681D01*
X64589023Y-156700906D01*
X64916697Y-156565179D01*
X64970528Y-156336133D01*
X64262000Y-155627605D01*
X63553472Y-156336133D01*
X50710000Y-156336133D01*
X50710000Y-155270664D01*
X62979319Y-155270664D01*
X63009094Y-155775023D01*
X63144821Y-156102697D01*
X63373867Y-156156528D01*
X64082395Y-155448000D01*
X64441605Y-155448000D01*
X65150133Y-156156528D01*
X65379179Y-156102697D01*
X65531812Y-155662453D01*
X65531780Y-155699510D01*
X65724718Y-156166458D01*
X66081663Y-156524026D01*
X66548273Y-156717779D01*
X66550488Y-156717781D01*
X66083542Y-156910718D01*
X65725974Y-157267663D01*
X65532221Y-157734273D01*
X65531780Y-158239510D01*
X65724718Y-158706458D01*
X66081663Y-159064026D01*
X66548273Y-159257779D01*
X67053510Y-159258220D01*
X67520458Y-159065282D01*
X67878026Y-158708337D01*
X68071779Y-158241727D01*
X68072220Y-157736490D01*
X67879282Y-157269542D01*
X67522337Y-156911974D01*
X67055727Y-156718221D01*
X67053512Y-156718219D01*
X67520458Y-156525282D01*
X67709937Y-156336133D01*
X68633472Y-156336133D01*
X68687303Y-156565179D01*
X69164664Y-156730681D01*
X69669023Y-156700906D01*
X69996697Y-156565179D01*
X70050528Y-156336133D01*
X69342000Y-155627605D01*
X68633472Y-156336133D01*
X67709937Y-156336133D01*
X67878026Y-156168337D01*
X68071779Y-155701727D01*
X68071968Y-155484929D01*
X68089094Y-155775023D01*
X68224821Y-156102697D01*
X68453867Y-156156528D01*
X69162395Y-155448000D01*
X69521605Y-155448000D01*
X70230133Y-156156528D01*
X70459179Y-156102697D01*
X70624681Y-155625336D01*
X70594906Y-155120977D01*
X70459179Y-154793303D01*
X70230133Y-154739472D01*
X69521605Y-155448000D01*
X69162395Y-155448000D01*
X68453867Y-154739472D01*
X68224821Y-154793303D01*
X68072188Y-155233547D01*
X68072220Y-155196490D01*
X67879282Y-154729542D01*
X67709903Y-154559867D01*
X68633472Y-154559867D01*
X69342000Y-155268395D01*
X70050528Y-154559867D01*
X69996697Y-154330821D01*
X69519336Y-154165319D01*
X69014977Y-154195094D01*
X68687303Y-154330821D01*
X68633472Y-154559867D01*
X67709903Y-154559867D01*
X67522337Y-154371974D01*
X67055727Y-154178221D01*
X66550490Y-154177780D01*
X66083542Y-154370718D01*
X65725974Y-154727663D01*
X65532221Y-155194273D01*
X65532032Y-155411071D01*
X65514906Y-155120977D01*
X65379179Y-154793303D01*
X65150133Y-154739472D01*
X64441605Y-155448000D01*
X64082395Y-155448000D01*
X63373867Y-154739472D01*
X63144821Y-154793303D01*
X62979319Y-155270664D01*
X50710000Y-155270664D01*
X50710000Y-154559867D01*
X63553472Y-154559867D01*
X64262000Y-155268395D01*
X64970528Y-154559867D01*
X64916697Y-154330821D01*
X64439336Y-154165319D01*
X63934977Y-154195094D01*
X63607303Y-154330821D01*
X63553472Y-154559867D01*
X50710000Y-154559867D01*
X50710000Y-142367000D01*
X51564000Y-142367000D01*
X51564000Y-150749000D01*
X51621852Y-151039839D01*
X51786599Y-151286401D01*
X53056599Y-152556401D01*
X53303160Y-152721148D01*
X53594000Y-152779000D01*
X69408198Y-152779000D01*
X70796627Y-154167429D01*
X70739332Y-154305410D01*
X70738670Y-155063265D01*
X71028078Y-155763686D01*
X71563495Y-156300039D01*
X72263410Y-156590668D01*
X73021265Y-156591330D01*
X73721686Y-156301922D01*
X74258039Y-155766505D01*
X74548668Y-155066590D01*
X74548670Y-155063265D01*
X75437670Y-155063265D01*
X75727078Y-155763686D01*
X76262495Y-156300039D01*
X76962410Y-156590668D01*
X77720265Y-156591330D01*
X78420686Y-156301922D01*
X78957039Y-155766505D01*
X79247668Y-155066590D01*
X79247670Y-155063265D01*
X80136670Y-155063265D01*
X80426078Y-155763686D01*
X80961495Y-156300039D01*
X81661410Y-156590668D01*
X82419265Y-156591330D01*
X83119686Y-156301922D01*
X83656039Y-155766505D01*
X83946668Y-155066590D01*
X83947330Y-154308735D01*
X83657922Y-153608314D01*
X83122505Y-153071961D01*
X82422590Y-152781332D01*
X81664735Y-152780670D01*
X80964314Y-153070078D01*
X80427961Y-153605495D01*
X80137332Y-154305410D01*
X80136670Y-155063265D01*
X79247670Y-155063265D01*
X79248330Y-154308735D01*
X78958922Y-153608314D01*
X78423505Y-153071961D01*
X77723590Y-152781332D01*
X76965735Y-152780670D01*
X76265314Y-153070078D01*
X75728961Y-153605495D01*
X75438332Y-154305410D01*
X75437670Y-155063265D01*
X74548670Y-155063265D01*
X74549330Y-154308735D01*
X74259922Y-153608314D01*
X73724505Y-153071961D01*
X73024590Y-152781332D01*
X72266735Y-152780670D01*
X71766263Y-152987461D01*
X70260401Y-151481599D01*
X70013839Y-151316852D01*
X69723000Y-151259000D01*
X53908802Y-151259000D01*
X53084000Y-150434198D01*
X53084000Y-149952750D01*
X53727000Y-149952750D01*
X53727000Y-150393309D01*
X53823673Y-150626698D01*
X54002301Y-150805327D01*
X54235690Y-150902000D01*
X54451250Y-150902000D01*
X54610000Y-150743250D01*
X54610000Y-149794000D01*
X54864000Y-149794000D01*
X54864000Y-150743250D01*
X55022750Y-150902000D01*
X55238310Y-150902000D01*
X55471699Y-150805327D01*
X55650327Y-150626698D01*
X55747000Y-150393309D01*
X55747000Y-149998750D01*
X58176000Y-149998750D01*
X58176000Y-150589309D01*
X58272673Y-150822698D01*
X58451301Y-151001327D01*
X58684690Y-151098000D01*
X59150250Y-151098000D01*
X59309000Y-150939250D01*
X59309000Y-149840000D01*
X59563000Y-149840000D01*
X59563000Y-150939250D01*
X59721750Y-151098000D01*
X60187310Y-151098000D01*
X60420699Y-151001327D01*
X60599327Y-150822698D01*
X60696000Y-150589309D01*
X60696000Y-150145750D01*
X63581000Y-150145750D01*
X63581000Y-150286310D01*
X63677673Y-150519699D01*
X63856302Y-150698327D01*
X64089691Y-150795000D01*
X64705250Y-150795000D01*
X64864000Y-150636250D01*
X64864000Y-149987000D01*
X65118000Y-149987000D01*
X65118000Y-150636250D01*
X65276750Y-150795000D01*
X65892309Y-150795000D01*
X66125698Y-150698327D01*
X66304327Y-150519699D01*
X66401000Y-150286310D01*
X66401000Y-150145750D01*
X66242250Y-149987000D01*
X65118000Y-149987000D01*
X64864000Y-149987000D01*
X63739750Y-149987000D01*
X63581000Y-150145750D01*
X60696000Y-150145750D01*
X60696000Y-149998750D01*
X60537250Y-149840000D01*
X59563000Y-149840000D01*
X59309000Y-149840000D01*
X58334750Y-149840000D01*
X58176000Y-149998750D01*
X55747000Y-149998750D01*
X55747000Y-149952750D01*
X55588250Y-149794000D01*
X54864000Y-149794000D01*
X54610000Y-149794000D01*
X53885750Y-149794000D01*
X53727000Y-149952750D01*
X53084000Y-149952750D01*
X53084000Y-142681802D01*
X57802802Y-137963000D01*
X58114666Y-137963000D01*
X58128838Y-138038317D01*
X58267910Y-138254441D01*
X58337711Y-138302134D01*
X58280559Y-138338910D01*
X58135569Y-138551110D01*
X58084560Y-138803000D01*
X58084560Y-140003000D01*
X58128838Y-140238317D01*
X58267910Y-140454441D01*
X58480110Y-140599431D01*
X58732000Y-140650440D01*
X59632000Y-140650440D01*
X59867317Y-140606162D01*
X60083441Y-140467090D01*
X60211243Y-140280045D01*
X65033758Y-145102560D01*
X64216000Y-145102560D01*
X63980683Y-145146838D01*
X63764559Y-145285910D01*
X63619569Y-145498110D01*
X63568560Y-145750000D01*
X63568560Y-146350000D01*
X63608074Y-146560000D01*
X60708440Y-146560000D01*
X60708440Y-146463000D01*
X60664162Y-146227683D01*
X60525090Y-146011559D01*
X60312890Y-145866569D01*
X60061000Y-145815560D01*
X58811000Y-145815560D01*
X58575683Y-145859838D01*
X58359559Y-145998910D01*
X58214569Y-146211110D01*
X58163560Y-146463000D01*
X58163560Y-147007000D01*
X55729334Y-147007000D01*
X55715162Y-146931683D01*
X55576090Y-146715559D01*
X55363890Y-146570569D01*
X55112000Y-146519560D01*
X54362000Y-146519560D01*
X54126683Y-146563838D01*
X53910559Y-146702910D01*
X53765569Y-146915110D01*
X53714560Y-147167000D01*
X53714560Y-148367000D01*
X53758838Y-148602317D01*
X53825329Y-148705646D01*
X53823673Y-148707302D01*
X53727000Y-148940691D01*
X53727000Y-149381250D01*
X53885750Y-149540000D01*
X54610000Y-149540000D01*
X54610000Y-149520000D01*
X54864000Y-149520000D01*
X54864000Y-149540000D01*
X55588250Y-149540000D01*
X55747000Y-149381250D01*
X55747000Y-148940691D01*
X55650327Y-148707302D01*
X55648957Y-148705932D01*
X55708431Y-148618890D01*
X55727039Y-148527000D01*
X58348975Y-148527000D01*
X58272673Y-148603302D01*
X58176000Y-148836691D01*
X58176000Y-149427250D01*
X58334750Y-149586000D01*
X59309000Y-149586000D01*
X59309000Y-149566000D01*
X59563000Y-149566000D01*
X59563000Y-149586000D01*
X60537250Y-149586000D01*
X60696000Y-149427250D01*
X60696000Y-148836691D01*
X60599327Y-148603302D01*
X60458090Y-148462064D01*
X60512441Y-148427090D01*
X60657431Y-148214890D01*
X60684747Y-148080000D01*
X63611086Y-148080000D01*
X63568560Y-148290000D01*
X63568560Y-148890000D01*
X63612838Y-149125317D01*
X63671178Y-149215980D01*
X63581000Y-149433690D01*
X63581000Y-149574250D01*
X63739750Y-149733000D01*
X64864000Y-149733000D01*
X64864000Y-149713000D01*
X65118000Y-149713000D01*
X65118000Y-149733000D01*
X66242250Y-149733000D01*
X66401000Y-149574250D01*
X66401000Y-149433690D01*
X66311194Y-149216878D01*
X66362431Y-149141890D01*
X66413440Y-148890000D01*
X66413440Y-148290000D01*
X66375642Y-148089121D01*
X66398673Y-148112192D01*
X66742201Y-148254838D01*
X67114167Y-148255162D01*
X67457943Y-148113117D01*
X67721192Y-147850327D01*
X67738894Y-147807696D01*
X69002715Y-149071517D01*
X69012838Y-149125317D01*
X69076678Y-149224528D01*
X69019569Y-149308110D01*
X68968560Y-149560000D01*
X68968560Y-150160000D01*
X69012838Y-150395317D01*
X69151910Y-150611441D01*
X69364110Y-150756431D01*
X69616000Y-150807440D01*
X71166000Y-150807440D01*
X71401317Y-150763162D01*
X71476551Y-150714750D01*
X73539000Y-150714750D01*
X73539000Y-151155309D01*
X73635673Y-151388698D01*
X73814301Y-151567327D01*
X74047690Y-151664000D01*
X74263250Y-151664000D01*
X74422000Y-151505250D01*
X74422000Y-150556000D01*
X74676000Y-150556000D01*
X74676000Y-151505250D01*
X74834750Y-151664000D01*
X75050310Y-151664000D01*
X75283699Y-151567327D01*
X75462327Y-151388698D01*
X75559000Y-151155309D01*
X75559000Y-150714750D01*
X75400250Y-150556000D01*
X74676000Y-150556000D01*
X74422000Y-150556000D01*
X73697750Y-150556000D01*
X73539000Y-150714750D01*
X71476551Y-150714750D01*
X71617441Y-150624090D01*
X71762431Y-150411890D01*
X71813440Y-150160000D01*
X71813440Y-149560000D01*
X71773926Y-149350000D01*
X73568144Y-149350000D01*
X73570838Y-149364317D01*
X73637329Y-149467646D01*
X73635673Y-149469302D01*
X73539000Y-149702691D01*
X73539000Y-150143250D01*
X73697750Y-150302000D01*
X74422000Y-150302000D01*
X74422000Y-150282000D01*
X74676000Y-150282000D01*
X74676000Y-150302000D01*
X75400250Y-150302000D01*
X75559000Y-150143250D01*
X75559000Y-149702691D01*
X75465516Y-149477000D01*
X79024895Y-149477000D01*
X79115910Y-149618441D01*
X79328110Y-149763431D01*
X79580000Y-149814440D01*
X80780000Y-149814440D01*
X81015317Y-149770162D01*
X81231441Y-149631090D01*
X81279134Y-149561289D01*
X81315910Y-149618441D01*
X81528110Y-149763431D01*
X81780000Y-149814440D01*
X82402638Y-149814440D01*
X85976000Y-153387802D01*
X85976000Y-154508150D01*
X84736199Y-155020425D01*
X83740920Y-156013969D01*
X83201615Y-157312760D01*
X83200387Y-158719070D01*
X83737425Y-160018801D01*
X84730969Y-161014080D01*
X85586211Y-161369207D01*
X84736199Y-161720425D01*
X83740920Y-162713969D01*
X83201615Y-164012760D01*
X83200387Y-165419070D01*
X83737425Y-166718801D01*
X84730969Y-167714080D01*
X86029760Y-168253385D01*
X87436070Y-168254613D01*
X88735801Y-167717575D01*
X89731080Y-166724031D01*
X90270385Y-165425240D01*
X90271613Y-164018930D01*
X89734575Y-162719199D01*
X89648165Y-162632638D01*
X90834401Y-161446402D01*
X90999147Y-161199840D01*
X90999148Y-161199839D01*
X91057000Y-160909000D01*
X91057000Y-155829000D01*
X90999148Y-155538161D01*
X90999148Y-155538160D01*
X90834401Y-155291599D01*
X86528000Y-150985198D01*
X86528000Y-149530334D01*
X86603317Y-149516162D01*
X86819441Y-149377090D01*
X86865969Y-149308994D01*
X87008302Y-149451327D01*
X87241691Y-149548000D01*
X87682250Y-149548000D01*
X87841000Y-149389250D01*
X87841000Y-148590000D01*
X88095000Y-148590000D01*
X88095000Y-149389250D01*
X88253750Y-149548000D01*
X88694309Y-149548000D01*
X88927698Y-149451327D01*
X89106327Y-149272699D01*
X89203000Y-149039310D01*
X89203000Y-148748750D01*
X89044250Y-148590000D01*
X88095000Y-148590000D01*
X87841000Y-148590000D01*
X87821000Y-148590000D01*
X87821000Y-148336000D01*
X87841000Y-148336000D01*
X87841000Y-148316000D01*
X88095000Y-148316000D01*
X88095000Y-148336000D01*
X89044250Y-148336000D01*
X89196724Y-148183526D01*
X90807172Y-149793974D01*
X90085920Y-150513969D01*
X89546615Y-151812760D01*
X89545387Y-153219070D01*
X90082425Y-154518801D01*
X91075969Y-155514080D01*
X92374760Y-156053385D01*
X93781070Y-156054613D01*
X95080801Y-155517575D01*
X96076080Y-154524031D01*
X96615385Y-153225240D01*
X96616613Y-151818930D01*
X96079575Y-150519199D01*
X95086031Y-149523920D01*
X93787240Y-148984615D01*
X92380930Y-148983387D01*
X92214823Y-149052021D01*
X89564401Y-146401599D01*
X89317839Y-146236852D01*
X89027000Y-146179000D01*
X78546802Y-146179000D01*
X77009552Y-144641750D01*
X80703000Y-144641750D01*
X80703000Y-145082309D01*
X80799673Y-145315698D01*
X80978301Y-145494327D01*
X81211690Y-145591000D01*
X81502250Y-145591000D01*
X81661000Y-145432250D01*
X81661000Y-144483000D01*
X81915000Y-144483000D01*
X81915000Y-145432250D01*
X82073750Y-145591000D01*
X82364310Y-145591000D01*
X82597699Y-145494327D01*
X82776327Y-145315698D01*
X82873000Y-145082309D01*
X82873000Y-144641750D01*
X82714250Y-144483000D01*
X81915000Y-144483000D01*
X81661000Y-144483000D01*
X80861750Y-144483000D01*
X80703000Y-144641750D01*
X77009552Y-144641750D01*
X70514401Y-138146599D01*
X70437177Y-138095000D01*
X70911309Y-138095000D01*
X71144698Y-137998327D01*
X71323327Y-137819699D01*
X71420000Y-137586310D01*
X71420000Y-137445750D01*
X71261250Y-137287000D01*
X70137000Y-137287000D01*
X70137000Y-137307000D01*
X69883000Y-137307000D01*
X69883000Y-137287000D01*
X69863000Y-137287000D01*
X69863000Y-137171750D01*
X72146000Y-137171750D01*
X72146000Y-137762309D01*
X72242673Y-137995698D01*
X72421301Y-138174327D01*
X72654690Y-138271000D01*
X73120250Y-138271000D01*
X73279000Y-138112250D01*
X73279000Y-137013000D01*
X73533000Y-137013000D01*
X73533000Y-138112250D01*
X73691750Y-138271000D01*
X74157310Y-138271000D01*
X74390699Y-138174327D01*
X74569327Y-137995698D01*
X74666000Y-137762309D01*
X74666000Y-137171750D01*
X74507250Y-137013000D01*
X73533000Y-137013000D01*
X73279000Y-137013000D01*
X72304750Y-137013000D01*
X72146000Y-137171750D01*
X69863000Y-137171750D01*
X69863000Y-137033000D01*
X69883000Y-137033000D01*
X69883000Y-137013000D01*
X70137000Y-137013000D01*
X70137000Y-137033000D01*
X71261250Y-137033000D01*
X71420000Y-136874250D01*
X71420000Y-136733690D01*
X71330194Y-136516878D01*
X71381431Y-136441890D01*
X71390724Y-136396000D01*
X72146000Y-136396000D01*
X72146000Y-136600250D01*
X72304750Y-136759000D01*
X73279000Y-136759000D01*
X73279000Y-136739000D01*
X73533000Y-136739000D01*
X73533000Y-136759000D01*
X74507250Y-136759000D01*
X74666000Y-136600250D01*
X74666000Y-136199728D01*
X74705401Y-136173401D01*
X74956111Y-135922691D01*
X78623000Y-135922691D01*
X78623000Y-136513250D01*
X78781750Y-136672000D01*
X79756000Y-136672000D01*
X79756000Y-135572750D01*
X79597250Y-135414000D01*
X79131690Y-135414000D01*
X78898301Y-135510673D01*
X78719673Y-135689302D01*
X78623000Y-135922691D01*
X74956111Y-135922691D01*
X75721401Y-135157401D01*
X75795256Y-135046869D01*
X76131167Y-135047162D01*
X76474943Y-134905117D01*
X76738192Y-134642327D01*
X76880838Y-134298799D01*
X76880990Y-134124812D01*
X77149802Y-133856000D01*
X78008895Y-133856000D01*
X78099910Y-133997441D01*
X78312110Y-134142431D01*
X78564000Y-134193440D01*
X79764000Y-134193440D01*
X79999317Y-134149162D01*
X80215441Y-134010090D01*
X80263134Y-133940289D01*
X80299910Y-133997441D01*
X80512110Y-134142431D01*
X80764000Y-134193440D01*
X81964000Y-134193440D01*
X82199317Y-134149162D01*
X82415441Y-134010090D01*
X82520726Y-133856000D01*
X82738000Y-133856000D01*
X82738000Y-133953250D01*
X82896750Y-134112000D01*
X83996000Y-134112000D01*
X83996000Y-134092000D01*
X84250000Y-134092000D01*
X84250000Y-134112000D01*
X85349250Y-134112000D01*
X85508000Y-133953250D01*
X85508000Y-133812690D01*
X85418194Y-133595878D01*
X85469431Y-133520890D01*
X85520440Y-133269000D01*
X85520440Y-132669000D01*
X85480926Y-132459000D01*
X86807198Y-132459000D01*
X87251000Y-132902802D01*
X87251000Y-134940198D01*
X86172198Y-136019000D01*
X85477914Y-136019000D01*
X85520440Y-135809000D01*
X85520440Y-135209000D01*
X85476162Y-134973683D01*
X85417822Y-134883020D01*
X85508000Y-134665310D01*
X85508000Y-134524750D01*
X85349250Y-134366000D01*
X84250000Y-134366000D01*
X84250000Y-134386000D01*
X83996000Y-134386000D01*
X83996000Y-134366000D01*
X82896750Y-134366000D01*
X82738000Y-134524750D01*
X82738000Y-134665310D01*
X82775051Y-134754758D01*
X82513160Y-134806852D01*
X82266599Y-134971599D01*
X81885599Y-135352599D01*
X81720852Y-135599161D01*
X81663000Y-135890000D01*
X81663000Y-136210198D01*
X81143000Y-136730198D01*
X81143000Y-136671998D01*
X80984252Y-136671998D01*
X81143000Y-136513250D01*
X81143000Y-135922691D01*
X81046327Y-135689302D01*
X80867699Y-135510673D01*
X80634310Y-135414000D01*
X80168750Y-135414000D01*
X80010000Y-135572750D01*
X80010000Y-136672000D01*
X80030000Y-136672000D01*
X80030000Y-136926000D01*
X80010000Y-136926000D01*
X80010000Y-136946000D01*
X79756000Y-136946000D01*
X79756000Y-136926000D01*
X78781750Y-136926000D01*
X78623000Y-137084750D01*
X78623000Y-137675309D01*
X78719673Y-137908698D01*
X78860910Y-138049936D01*
X78806559Y-138084910D01*
X78661569Y-138297110D01*
X78661197Y-138298945D01*
X78508327Y-138145808D01*
X78164799Y-138003162D01*
X77792833Y-138002838D01*
X77449057Y-138144883D01*
X77185808Y-138407673D01*
X77043162Y-138751201D01*
X77042838Y-139123167D01*
X77184883Y-139466943D01*
X77447673Y-139730192D01*
X77791201Y-139872838D01*
X77856216Y-139872895D01*
X78048161Y-140001148D01*
X78339000Y-140059000D01*
X78612442Y-140059000D01*
X78654838Y-140284317D01*
X78793910Y-140500441D01*
X79006110Y-140645431D01*
X79258000Y-140696440D01*
X80508000Y-140696440D01*
X80743317Y-140652162D01*
X80959441Y-140513090D01*
X81028000Y-140412751D01*
X81028000Y-141000895D01*
X80886559Y-141091910D01*
X80741569Y-141304110D01*
X80690560Y-141556000D01*
X80690560Y-142756000D01*
X80734838Y-142991317D01*
X80873910Y-143207441D01*
X80942006Y-143253969D01*
X80799673Y-143396302D01*
X80703000Y-143629691D01*
X80703000Y-144070250D01*
X80861750Y-144229000D01*
X81661000Y-144229000D01*
X81661000Y-144209000D01*
X81915000Y-144209000D01*
X81915000Y-144229000D01*
X82714250Y-144229000D01*
X82873000Y-144070250D01*
X82873000Y-143629691D01*
X82776327Y-143396302D01*
X82635090Y-143255064D01*
X82689441Y-143220090D01*
X82697497Y-143208299D01*
X83282599Y-143793401D01*
X83529161Y-143958148D01*
X83820000Y-144016000D01*
X84993895Y-144016000D01*
X85084910Y-144157441D01*
X85297110Y-144302431D01*
X85549000Y-144353440D01*
X86749000Y-144353440D01*
X86984317Y-144309162D01*
X87200441Y-144170090D01*
X87248134Y-144100289D01*
X87284910Y-144157441D01*
X87497110Y-144302431D01*
X87749000Y-144353440D01*
X88949000Y-144353440D01*
X89184317Y-144309162D01*
X89400441Y-144170090D01*
X89505726Y-144016000D01*
X89855198Y-144016000D01*
X97538000Y-151698802D01*
X97538000Y-152938813D01*
X97220314Y-153070078D01*
X96683961Y-153605495D01*
X96393332Y-154305410D01*
X96392670Y-155063265D01*
X96682078Y-155763686D01*
X97217495Y-156300039D01*
X97917410Y-156590668D01*
X98675265Y-156591330D01*
X99375686Y-156301922D01*
X99912039Y-155766505D01*
X100202668Y-155066590D01*
X100203330Y-154308735D01*
X99913922Y-153608314D01*
X99378505Y-153071961D01*
X99058000Y-152938876D01*
X99058000Y-151821802D01*
X101224151Y-153987953D01*
X101092332Y-154305410D01*
X101091670Y-155063265D01*
X101381078Y-155763686D01*
X101916495Y-156300039D01*
X102616410Y-156590668D01*
X103374265Y-156591330D01*
X104074686Y-156301922D01*
X104611039Y-155766505D01*
X104901668Y-155066590D01*
X104901670Y-155063265D01*
X105790670Y-155063265D01*
X106080078Y-155763686D01*
X106615495Y-156300039D01*
X107315410Y-156590668D01*
X108073265Y-156591330D01*
X108773686Y-156301922D01*
X109310039Y-155766505D01*
X109600668Y-155066590D01*
X109601330Y-154308735D01*
X109311922Y-153608314D01*
X108776505Y-153071961D01*
X108076590Y-152781332D01*
X107318735Y-152780670D01*
X106618314Y-153070078D01*
X106081961Y-153605495D01*
X105791332Y-154305410D01*
X105790670Y-155063265D01*
X104901670Y-155063265D01*
X104902330Y-154308735D01*
X104612922Y-153608314D01*
X104077505Y-153071961D01*
X103377590Y-152781332D01*
X102619735Y-152780670D01*
X102298998Y-152913196D01*
X99916602Y-150530800D01*
X108859960Y-150530800D01*
X108859960Y-151830800D01*
X108904238Y-152066117D01*
X109043310Y-152282241D01*
X109247400Y-152421690D01*
X109247400Y-152552400D01*
X109305252Y-152843239D01*
X109469999Y-153089801D01*
X110368151Y-153987953D01*
X110236332Y-154305410D01*
X110235670Y-155063265D01*
X110525078Y-155763686D01*
X111060495Y-156300039D01*
X111760410Y-156590668D01*
X112518265Y-156591330D01*
X113218686Y-156301922D01*
X113755039Y-155766505D01*
X114045668Y-155066590D01*
X114046330Y-154308735D01*
X113756922Y-153608314D01*
X113221505Y-153071961D01*
X112521590Y-152781332D01*
X111763735Y-152780670D01*
X111442998Y-152913196D01*
X110877216Y-152347414D01*
X110958841Y-152294890D01*
X111103831Y-152082690D01*
X111154840Y-151830800D01*
X111154840Y-150530800D01*
X111110562Y-150295483D01*
X110971490Y-150079359D01*
X110759290Y-149934369D01*
X110507400Y-149883360D01*
X109507400Y-149883360D01*
X109272083Y-149927638D01*
X109055959Y-150066710D01*
X108910969Y-150278910D01*
X108859960Y-150530800D01*
X99916602Y-150530800D01*
X99820000Y-150434198D01*
X99820000Y-141097000D01*
X99762148Y-140806161D01*
X99597401Y-140559599D01*
X97341493Y-138303691D01*
X101473000Y-138303691D01*
X101473000Y-138906250D01*
X101631750Y-139065000D01*
X102743000Y-139065000D01*
X102743000Y-137953750D01*
X102997000Y-137953750D01*
X102997000Y-139065000D01*
X104108250Y-139065000D01*
X104267000Y-138906250D01*
X104267000Y-138303691D01*
X104170327Y-138070302D01*
X103991699Y-137891673D01*
X103758310Y-137795000D01*
X103155750Y-137795000D01*
X102997000Y-137953750D01*
X102743000Y-137953750D01*
X102584250Y-137795000D01*
X101981690Y-137795000D01*
X101748301Y-137891673D01*
X101569673Y-138070302D01*
X101473000Y-138303691D01*
X97341493Y-138303691D01*
X95306802Y-136269000D01*
X95704165Y-136269000D01*
X95811910Y-136436441D01*
X96024110Y-136581431D01*
X96276000Y-136632440D01*
X97526000Y-136632440D01*
X97761317Y-136588162D01*
X97977441Y-136449090D01*
X98122431Y-136236890D01*
X98171415Y-135995000D01*
X98318000Y-135995000D01*
X98608839Y-135937148D01*
X98855401Y-135772401D01*
X99072680Y-135555122D01*
X99118167Y-135555162D01*
X99461943Y-135413117D01*
X99725192Y-135150327D01*
X99867838Y-134806799D01*
X99868162Y-134434833D01*
X99726117Y-134091057D01*
X99463327Y-133827808D01*
X99119799Y-133685162D01*
X98747833Y-133684838D01*
X98404057Y-133826883D01*
X98140808Y-134089673D01*
X98095857Y-134197926D01*
X97990090Y-134033559D01*
X97921994Y-133987031D01*
X98064327Y-133844698D01*
X98161000Y-133611309D01*
X98161000Y-133020750D01*
X98002250Y-132862000D01*
X97028000Y-132862000D01*
X97028000Y-132882000D01*
X96774000Y-132882000D01*
X96774000Y-132862000D01*
X95799750Y-132862000D01*
X95641000Y-133020750D01*
X95641000Y-133611309D01*
X95737673Y-133844698D01*
X95878910Y-133985936D01*
X95824559Y-134020910D01*
X95679569Y-134233110D01*
X95628560Y-134485000D01*
X95628560Y-134749000D01*
X94773334Y-134749000D01*
X94808000Y-134665310D01*
X94808000Y-134524750D01*
X94649250Y-134366000D01*
X93550000Y-134366000D01*
X93550000Y-134386000D01*
X93296000Y-134386000D01*
X93296000Y-134366000D01*
X92196750Y-134366000D01*
X92038000Y-134524750D01*
X92038000Y-134665310D01*
X92127806Y-134882122D01*
X92076569Y-134957110D01*
X92025560Y-135209000D01*
X92025560Y-135809000D01*
X92069838Y-136044317D01*
X92133678Y-136143528D01*
X92076569Y-136227110D01*
X92025560Y-136479000D01*
X92025560Y-137079000D01*
X92069838Y-137314317D01*
X92133678Y-137413528D01*
X92076569Y-137497110D01*
X92025560Y-137749000D01*
X92025560Y-138349000D01*
X92045006Y-138452347D01*
X91880799Y-138384162D01*
X91508833Y-138383838D01*
X91165057Y-138525883D01*
X90901808Y-138788673D01*
X90759162Y-139132201D01*
X90758838Y-139504167D01*
X90900883Y-139847943D01*
X91163673Y-140111192D01*
X91507201Y-140253838D01*
X91879167Y-140254162D01*
X92046627Y-140184969D01*
X92025560Y-140289000D01*
X92025560Y-140889000D01*
X92069838Y-141124317D01*
X92208910Y-141340441D01*
X92421110Y-141485431D01*
X92673000Y-141536440D01*
X94173000Y-141536440D01*
X94408317Y-141492162D01*
X94624441Y-141353090D01*
X94769431Y-141140890D01*
X94820440Y-140889000D01*
X94820440Y-140289000D01*
X94776162Y-140053683D01*
X94712322Y-139954472D01*
X94769431Y-139870890D01*
X94820440Y-139619000D01*
X94820440Y-139019000D01*
X94776162Y-138783683D01*
X94712322Y-138684472D01*
X94769431Y-138600890D01*
X94820440Y-138349000D01*
X94820440Y-137932242D01*
X98300000Y-141411802D01*
X98300000Y-150311198D01*
X90930000Y-142941198D01*
X90930000Y-141986000D01*
X90872148Y-141695161D01*
X90707401Y-141448599D01*
X88040401Y-138781599D01*
X87793839Y-138616852D01*
X87503000Y-138559000D01*
X85477914Y-138559000D01*
X85520440Y-138349000D01*
X85520440Y-137749000D01*
X85480926Y-137539000D01*
X86487000Y-137539000D01*
X86777839Y-137481148D01*
X87024401Y-137316401D01*
X88548401Y-135792401D01*
X88713148Y-135545840D01*
X88738410Y-135418839D01*
X88771000Y-135255000D01*
X88771000Y-132588000D01*
X88713148Y-132297161D01*
X88548401Y-132050599D01*
X87659401Y-131161599D01*
X87412839Y-130996852D01*
X87122000Y-130939000D01*
X85324563Y-130939000D01*
X85124890Y-130802569D01*
X84873000Y-130751560D01*
X84250363Y-130751560D01*
X83902000Y-130403198D01*
X83902000Y-125273334D01*
X83977317Y-125259162D01*
X84193441Y-125120090D01*
X84298726Y-124966000D01*
X86726617Y-124966000D01*
X86735910Y-124980441D01*
X86948110Y-125125431D01*
X87200000Y-125176440D01*
X88400000Y-125176440D01*
X88635317Y-125132162D01*
X88851441Y-124993090D01*
X88899134Y-124923289D01*
X88935910Y-124980441D01*
X89148110Y-125125431D01*
X89240000Y-125144039D01*
X89240000Y-126576000D01*
X89297852Y-126866839D01*
X89462599Y-127113401D01*
X90807000Y-128457802D01*
X90807000Y-132334000D01*
X90864852Y-132624839D01*
X91029599Y-132871401D01*
X91664599Y-133506401D01*
X91911161Y-133671148D01*
X92082511Y-133705232D01*
X92038000Y-133812690D01*
X92038000Y-133953250D01*
X92196750Y-134112000D01*
X93296000Y-134112000D01*
X93296000Y-134092000D01*
X93550000Y-134092000D01*
X93550000Y-134112000D01*
X94649250Y-134112000D01*
X94808000Y-133953250D01*
X94808000Y-133812690D01*
X94718194Y-133595878D01*
X94769431Y-133520890D01*
X94820440Y-133269000D01*
X94820440Y-132669000D01*
X94811351Y-132620691D01*
X106817000Y-132620691D01*
X106817000Y-133211250D01*
X106975750Y-133370000D01*
X107950000Y-133370000D01*
X107950000Y-132270750D01*
X107791250Y-132112000D01*
X107325690Y-132112000D01*
X107092301Y-132208673D01*
X106913673Y-132387302D01*
X106817000Y-132620691D01*
X94811351Y-132620691D01*
X94776162Y-132433683D01*
X94772317Y-132427707D01*
X94905839Y-132401148D01*
X95152401Y-132236401D01*
X95719411Y-131669391D01*
X95641000Y-131858691D01*
X95641000Y-132449250D01*
X95799750Y-132608000D01*
X96774000Y-132608000D01*
X96774000Y-131508750D01*
X97028000Y-131508750D01*
X97028000Y-132608000D01*
X98002250Y-132608000D01*
X98161000Y-132449250D01*
X98161000Y-131858691D01*
X98064327Y-131625302D01*
X97885699Y-131446673D01*
X97652310Y-131350000D01*
X97186750Y-131350000D01*
X97028000Y-131508750D01*
X96774000Y-131508750D01*
X96615250Y-131350000D01*
X96149690Y-131350000D01*
X95960392Y-131428410D01*
X96199802Y-131189000D01*
X101672469Y-131189000D01*
X101684990Y-131219303D01*
X102077630Y-131612629D01*
X102590900Y-131825757D01*
X103146661Y-131826242D01*
X103660303Y-131614010D01*
X104053629Y-131221370D01*
X104266757Y-130708100D01*
X104267242Y-130152339D01*
X104055010Y-129638697D01*
X103662370Y-129245371D01*
X103630000Y-129231930D01*
X103630000Y-129086531D01*
X103660303Y-129074010D01*
X104053629Y-128681370D01*
X104266757Y-128168100D01*
X104267242Y-127612339D01*
X104055010Y-127098697D01*
X103702167Y-126745237D01*
X103867317Y-126714162D01*
X104083441Y-126575090D01*
X104228431Y-126362890D01*
X104279440Y-126111000D01*
X104279440Y-124587000D01*
X104255167Y-124458000D01*
X107980895Y-124458000D01*
X108071910Y-124599441D01*
X108284110Y-124744431D01*
X108536000Y-124795440D01*
X109736000Y-124795440D01*
X109971317Y-124751162D01*
X110187441Y-124612090D01*
X110235134Y-124542289D01*
X110271910Y-124599441D01*
X110484110Y-124744431D01*
X110736000Y-124795440D01*
X111936000Y-124795440D01*
X112171317Y-124751162D01*
X112387441Y-124612090D01*
X112492726Y-124458000D01*
X112799198Y-124458000D01*
X113456560Y-125115362D01*
X113456560Y-125738000D01*
X113500838Y-125973317D01*
X113639910Y-126189441D01*
X113709711Y-126237134D01*
X113652559Y-126273910D01*
X113507569Y-126486110D01*
X113456560Y-126738000D01*
X113456560Y-127360638D01*
X112539834Y-128277364D01*
X112527090Y-128257559D01*
X112314890Y-128112569D01*
X112063000Y-128061560D01*
X110863000Y-128061560D01*
X110627683Y-128105838D01*
X110411559Y-128244910D01*
X110363866Y-128314711D01*
X110327090Y-128257559D01*
X110114890Y-128112569D01*
X109863000Y-128061560D01*
X108663000Y-128061560D01*
X108427683Y-128105838D01*
X108211559Y-128244910D01*
X108066569Y-128457110D01*
X108015560Y-128709000D01*
X108015560Y-129609000D01*
X108059838Y-129844317D01*
X108198910Y-130060441D01*
X108411110Y-130205431D01*
X108503000Y-130224039D01*
X108503000Y-131615000D01*
X108560852Y-131905839D01*
X108698604Y-132112000D01*
X108362750Y-132112000D01*
X108204000Y-132270750D01*
X108204000Y-133370000D01*
X109178250Y-133370000D01*
X109337000Y-133211250D01*
X109337000Y-132763802D01*
X110079599Y-133506401D01*
X110326161Y-133671148D01*
X110617000Y-133729000D01*
X111220666Y-133729000D01*
X111186000Y-133812690D01*
X111186000Y-133953250D01*
X111344750Y-134112000D01*
X112444000Y-134112000D01*
X112444000Y-134092000D01*
X112698000Y-134092000D01*
X112698000Y-134112000D01*
X113797250Y-134112000D01*
X113956000Y-133953250D01*
X113956000Y-133812690D01*
X113921334Y-133729000D01*
X114046000Y-133729000D01*
X114336839Y-133671148D01*
X114583401Y-133506401D01*
X120964802Y-127125000D01*
X121219000Y-127125000D01*
X121509839Y-127067148D01*
X121756401Y-126902401D01*
X122541362Y-126117440D01*
X123089000Y-126117440D01*
X123324317Y-126073162D01*
X123540441Y-125934090D01*
X123685431Y-125721890D01*
X123736440Y-125470000D01*
X123736440Y-124720000D01*
X123692162Y-124484683D01*
X123553090Y-124268559D01*
X123340890Y-124123569D01*
X123249000Y-124104961D01*
X123249000Y-121975905D01*
X123413441Y-121870090D01*
X123558431Y-121657890D01*
X123609440Y-121406000D01*
X123609440Y-120656000D01*
X123565162Y-120420683D01*
X123426090Y-120204559D01*
X123213890Y-120059569D01*
X123122000Y-120040961D01*
X123122000Y-117832334D01*
X123197317Y-117818162D01*
X123413441Y-117679090D01*
X123558431Y-117466890D01*
X123609440Y-117215000D01*
X123609440Y-116465000D01*
X123565162Y-116229683D01*
X123426090Y-116013559D01*
X123213890Y-115868569D01*
X122983925Y-115822000D01*
X126177198Y-115822000D01*
X128084198Y-117729000D01*
X127508690Y-117729000D01*
X127275301Y-117825673D01*
X127096673Y-118004302D01*
X127000000Y-118237691D01*
X127000000Y-118840250D01*
X127158750Y-118999000D01*
X128270000Y-118999000D01*
X128270000Y-118979000D01*
X128524000Y-118979000D01*
X128524000Y-118999000D01*
X128544000Y-118999000D01*
X128544000Y-119253000D01*
X128524000Y-119253000D01*
X128524000Y-119273000D01*
X128270000Y-119273000D01*
X128270000Y-119253000D01*
X127158750Y-119253000D01*
X127000000Y-119411750D01*
X127000000Y-120014309D01*
X127096673Y-120247698D01*
X127275301Y-120426327D01*
X127508690Y-120523000D01*
X127564614Y-120523000D01*
X127213371Y-120873630D01*
X127000243Y-121386900D01*
X126999758Y-121942661D01*
X127013143Y-121975055D01*
X124260599Y-124727599D01*
X124095852Y-124974161D01*
X124038000Y-125265000D01*
X124038000Y-127964666D01*
X123962683Y-127978838D01*
X123746559Y-128117910D01*
X123698866Y-128187711D01*
X123662090Y-128130559D01*
X123449890Y-127985569D01*
X123198000Y-127934560D01*
X121998000Y-127934560D01*
X121762683Y-127978838D01*
X121546559Y-128117910D01*
X121441274Y-128272000D01*
X120904000Y-128272000D01*
X120613161Y-128329852D01*
X120366599Y-128494599D01*
X117191599Y-131669599D01*
X117026852Y-131916161D01*
X116969000Y-132207000D01*
X116969000Y-133670198D01*
X113956000Y-136683198D01*
X113956000Y-136651998D01*
X113797252Y-136651998D01*
X113956000Y-136493250D01*
X113956000Y-136352690D01*
X113866194Y-136135878D01*
X113917431Y-136060890D01*
X113968440Y-135809000D01*
X113968440Y-135209000D01*
X113924162Y-134973683D01*
X113865822Y-134883020D01*
X113956000Y-134665310D01*
X113956000Y-134524750D01*
X113797250Y-134366000D01*
X112698000Y-134366000D01*
X112698000Y-134386000D01*
X112444000Y-134386000D01*
X112444000Y-134366000D01*
X111344750Y-134366000D01*
X111186000Y-134524750D01*
X111186000Y-134665310D01*
X111220666Y-134749000D01*
X109098026Y-134749000D01*
X109240327Y-134606698D01*
X109337000Y-134373309D01*
X109337000Y-133782750D01*
X109178250Y-133624000D01*
X108204000Y-133624000D01*
X108204000Y-133644000D01*
X107950000Y-133644000D01*
X107950000Y-133624000D01*
X106975750Y-133624000D01*
X106817000Y-133782750D01*
X106817000Y-134373309D01*
X106913673Y-134606698D01*
X107054910Y-134747936D01*
X107000559Y-134782910D01*
X106946671Y-134861778D01*
X106838117Y-134599057D01*
X106575327Y-134335808D01*
X106231799Y-134193162D01*
X105859833Y-134192838D01*
X105516057Y-134334883D01*
X105252808Y-134597673D01*
X105110162Y-134941201D01*
X105109838Y-135313167D01*
X105251883Y-135656943D01*
X105514673Y-135920192D01*
X105858201Y-136062838D01*
X105905077Y-136062879D01*
X106376599Y-136534401D01*
X106623161Y-136699148D01*
X106804560Y-136735231D01*
X106804560Y-136747000D01*
X106848838Y-136982317D01*
X106987910Y-137198441D01*
X107200110Y-137343431D01*
X107452000Y-137394440D01*
X108702000Y-137394440D01*
X108937317Y-137350162D01*
X109153441Y-137211090D01*
X109298431Y-136998890D01*
X109349440Y-136747000D01*
X109349440Y-136269000D01*
X111220666Y-136269000D01*
X111186000Y-136352690D01*
X111186000Y-136493250D01*
X111344750Y-136652000D01*
X112444000Y-136652000D01*
X112444000Y-136632000D01*
X112698000Y-136632000D01*
X112698000Y-136652000D01*
X112718000Y-136652000D01*
X112718000Y-136906000D01*
X112698000Y-136906000D01*
X112698000Y-136926000D01*
X112444000Y-136926000D01*
X112444000Y-136906000D01*
X111344750Y-136906000D01*
X111186000Y-137064750D01*
X111186000Y-137205310D01*
X111220666Y-137289000D01*
X109855000Y-137289000D01*
X109644407Y-137330890D01*
X109564160Y-137346852D01*
X109317599Y-137511599D01*
X108658864Y-138170334D01*
X108651890Y-138165569D01*
X108400000Y-138114560D01*
X107500000Y-138114560D01*
X107264683Y-138158838D01*
X107048559Y-138297910D01*
X106903569Y-138510110D01*
X106852560Y-138762000D01*
X106852560Y-139962000D01*
X106896838Y-140197317D01*
X107035910Y-140413441D01*
X107105711Y-140461134D01*
X107048559Y-140497910D01*
X106903569Y-140710110D01*
X106852560Y-140962000D01*
X106852560Y-140972000D01*
X104067531Y-140972000D01*
X104055010Y-140941697D01*
X103702928Y-140589000D01*
X103758310Y-140589000D01*
X103991699Y-140492327D01*
X104170327Y-140313698D01*
X104267000Y-140080309D01*
X104267000Y-139477750D01*
X104108250Y-139319000D01*
X102997000Y-139319000D01*
X102997000Y-139339000D01*
X102743000Y-139339000D01*
X102743000Y-139319000D01*
X101631750Y-139319000D01*
X101473000Y-139477750D01*
X101473000Y-140080309D01*
X101569673Y-140313698D01*
X101748301Y-140492327D01*
X101981690Y-140589000D01*
X102037614Y-140589000D01*
X101686371Y-140939630D01*
X101473243Y-141452900D01*
X101472758Y-142008661D01*
X101684990Y-142522303D01*
X102077630Y-142915629D01*
X102285512Y-143001949D01*
X102079697Y-143086990D01*
X101686371Y-143479630D01*
X101473243Y-143992900D01*
X101472758Y-144548661D01*
X101684990Y-145062303D01*
X102077630Y-145455629D01*
X102590900Y-145668757D01*
X103146661Y-145669242D01*
X103660303Y-145457010D01*
X104053629Y-145064370D01*
X104266757Y-144551100D01*
X104267242Y-143995339D01*
X104055010Y-143481697D01*
X103662370Y-143088371D01*
X103454488Y-143002051D01*
X103660303Y-142917010D01*
X104053629Y-142524370D01*
X104067070Y-142492000D01*
X106957765Y-142492000D01*
X107035910Y-142613441D01*
X107248110Y-142758431D01*
X107500000Y-142809440D01*
X108400000Y-142809440D01*
X108635317Y-142765162D01*
X108851441Y-142626090D01*
X108996431Y-142413890D01*
X109047440Y-142162000D01*
X109047440Y-140962000D01*
X109003162Y-140726683D01*
X108864090Y-140510559D01*
X108794289Y-140462866D01*
X108851441Y-140426090D01*
X108996431Y-140213890D01*
X109047440Y-139962000D01*
X109047440Y-139920757D01*
X109079401Y-139899401D01*
X110169802Y-138809000D01*
X111216086Y-138809000D01*
X111173560Y-139019000D01*
X111173560Y-139619000D01*
X111217838Y-139854317D01*
X111281678Y-139953528D01*
X111224569Y-140037110D01*
X111173560Y-140289000D01*
X111173560Y-140889000D01*
X111217838Y-141124317D01*
X111356910Y-141340441D01*
X111569110Y-141485431D01*
X111821000Y-141536440D01*
X113321000Y-141536440D01*
X113556317Y-141492162D01*
X113772441Y-141353090D01*
X113917431Y-141140890D01*
X113968440Y-140889000D01*
X113968440Y-140443242D01*
X114853000Y-141327802D01*
X114853000Y-143331666D01*
X114777683Y-143345838D01*
X114561559Y-143484910D01*
X114456274Y-143639000D01*
X109601000Y-143639000D01*
X109310160Y-143696852D01*
X109063599Y-143861599D01*
X107719999Y-145205199D01*
X107555252Y-145451761D01*
X107497400Y-145742600D01*
X107497400Y-146143521D01*
X107305959Y-146266710D01*
X107160969Y-146478910D01*
X107109960Y-146730800D01*
X107109960Y-148030800D01*
X107154238Y-148266117D01*
X107293310Y-148482241D01*
X107505510Y-148627231D01*
X107757400Y-148678240D01*
X108757400Y-148678240D01*
X108992717Y-148633962D01*
X109208841Y-148494890D01*
X109353831Y-148282690D01*
X109404840Y-148030800D01*
X109404840Y-146730800D01*
X109360562Y-146495483D01*
X109221490Y-146279359D01*
X109017400Y-146139910D01*
X109017400Y-146057402D01*
X109915802Y-145159000D01*
X114457895Y-145159000D01*
X114548910Y-145300441D01*
X114761110Y-145445431D01*
X114853000Y-145464039D01*
X114853000Y-145998666D01*
X114777683Y-146012838D01*
X114561559Y-146151910D01*
X114416569Y-146364110D01*
X114365560Y-146616000D01*
X114365560Y-147516000D01*
X114409838Y-147751317D01*
X114548910Y-147967441D01*
X114761110Y-148112431D01*
X115013000Y-148163440D01*
X116213000Y-148163440D01*
X116448317Y-148119162D01*
X116664441Y-147980090D01*
X116712134Y-147910289D01*
X116748910Y-147967441D01*
X116961110Y-148112431D01*
X117213000Y-148163440D01*
X117413638Y-148163440D01*
X118048560Y-148798362D01*
X118048560Y-149354000D01*
X114995803Y-149354000D01*
X112904840Y-147263038D01*
X112904840Y-146730800D01*
X112860562Y-146495483D01*
X112721490Y-146279359D01*
X112509290Y-146134369D01*
X112257400Y-146083360D01*
X111257400Y-146083360D01*
X111022083Y-146127638D01*
X110805959Y-146266710D01*
X110660969Y-146478910D01*
X110609960Y-146730800D01*
X110609960Y-148030800D01*
X110654238Y-148266117D01*
X110793310Y-148482241D01*
X111005510Y-148627231D01*
X111257400Y-148678240D01*
X112170438Y-148678240D01*
X114143599Y-150651402D01*
X114390161Y-150816148D01*
X114681000Y-150874000D01*
X119831198Y-150874000D01*
X117717522Y-152987676D01*
X117220590Y-152781332D01*
X116462735Y-152780670D01*
X115762314Y-153070078D01*
X115225961Y-153605495D01*
X114935332Y-154305410D01*
X114934670Y-155063265D01*
X115224078Y-155763686D01*
X115759495Y-156300039D01*
X116459410Y-156590668D01*
X117217265Y-156591330D01*
X117917686Y-156301922D01*
X118186299Y-156033777D01*
X120370828Y-156033777D01*
X120502520Y-156328657D01*
X121210036Y-156600261D01*
X121967632Y-156580436D01*
X122575480Y-156328657D01*
X122707172Y-156033777D01*
X121539000Y-154865605D01*
X120370828Y-156033777D01*
X118186299Y-156033777D01*
X118454039Y-155766505D01*
X118744668Y-155066590D01*
X118745287Y-154357036D01*
X119624739Y-154357036D01*
X119644564Y-155114632D01*
X119896343Y-155722480D01*
X120191223Y-155854172D01*
X121359395Y-154686000D01*
X121718605Y-154686000D01*
X122886777Y-155854172D01*
X123181657Y-155722480D01*
X123453261Y-155014964D01*
X123433436Y-154257368D01*
X123181657Y-153649520D01*
X122886777Y-153517828D01*
X121718605Y-154686000D01*
X121359395Y-154686000D01*
X120191223Y-153517828D01*
X119896343Y-153649520D01*
X119624739Y-154357036D01*
X118745287Y-154357036D01*
X118745330Y-154308735D01*
X118687069Y-154167733D01*
X119516579Y-153338223D01*
X120370828Y-153338223D01*
X121539000Y-154506395D01*
X122707172Y-153338223D01*
X122575480Y-153043343D01*
X121867964Y-152771739D01*
X121110368Y-152791564D01*
X120502520Y-153043343D01*
X120370828Y-153338223D01*
X119516579Y-153338223D01*
X121853802Y-151001000D01*
X122428000Y-151001000D01*
X122718839Y-150943148D01*
X122965401Y-150778401D01*
X123981401Y-149762401D01*
X124146148Y-149515839D01*
X124204000Y-149225000D01*
X124204000Y-143062802D01*
X129696401Y-137570401D01*
X129861148Y-137323839D01*
X129919000Y-137033000D01*
X129919000Y-136494105D01*
X130060441Y-136403090D01*
X130205431Y-136190890D01*
X130256440Y-135939000D01*
X130256440Y-134999000D01*
X132493646Y-134999000D01*
X132541110Y-135031431D01*
X132760000Y-135075757D01*
X132760000Y-136219666D01*
X132684683Y-136233838D01*
X132468559Y-136372910D01*
X132323569Y-136585110D01*
X132272560Y-136837000D01*
X132272560Y-137737000D01*
X132316838Y-137972317D01*
X132455910Y-138188441D01*
X132668110Y-138333431D01*
X132920000Y-138384440D01*
X134120000Y-138384440D01*
X134355317Y-138340162D01*
X134571441Y-138201090D01*
X134619134Y-138131289D01*
X134655910Y-138188441D01*
X134868110Y-138333431D01*
X135120000Y-138384440D01*
X135130000Y-138384440D01*
X135130000Y-138623198D01*
X134940198Y-138813000D01*
X133404463Y-138813000D01*
X133372327Y-138780808D01*
X133028799Y-138638162D01*
X132656833Y-138637838D01*
X132313057Y-138779883D01*
X132049808Y-139042673D01*
X131907162Y-139386201D01*
X131906838Y-139758167D01*
X132048883Y-140101943D01*
X132311673Y-140365192D01*
X132655201Y-140507838D01*
X133027167Y-140508162D01*
X133370943Y-140366117D01*
X133404118Y-140333000D01*
X135255000Y-140333000D01*
X135545839Y-140275148D01*
X135792401Y-140110401D01*
X136427401Y-139475401D01*
X136592148Y-139228839D01*
X136650000Y-138938000D01*
X136650000Y-138279235D01*
X136771441Y-138201090D01*
X136916431Y-137988890D01*
X136967440Y-137737000D01*
X136967440Y-136837000D01*
X136923162Y-136601683D01*
X136784090Y-136385559D01*
X136571890Y-136240569D01*
X136320000Y-136189560D01*
X135120000Y-136189560D01*
X134884683Y-136233838D01*
X134668559Y-136372910D01*
X134620866Y-136442711D01*
X134584090Y-136385559D01*
X134371890Y-136240569D01*
X134280000Y-136221961D01*
X134280000Y-135004905D01*
X134444441Y-134899090D01*
X134490969Y-134830994D01*
X134633302Y-134973327D01*
X134866691Y-135070000D01*
X135307250Y-135070000D01*
X135466000Y-134911250D01*
X135466000Y-134112000D01*
X135720000Y-134112000D01*
X135720000Y-134911250D01*
X135878750Y-135070000D01*
X136319309Y-135070000D01*
X136552698Y-134973327D01*
X136731327Y-134794699D01*
X136828000Y-134561310D01*
X136828000Y-134270750D01*
X136669250Y-134112000D01*
X135720000Y-134112000D01*
X135466000Y-134112000D01*
X135446000Y-134112000D01*
X135446000Y-133858000D01*
X135466000Y-133858000D01*
X135466000Y-133058750D01*
X135720000Y-133058750D01*
X135720000Y-133858000D01*
X136669250Y-133858000D01*
X136828000Y-133699250D01*
X136828000Y-133408690D01*
X136731327Y-133175301D01*
X136552698Y-132996673D01*
X136319309Y-132900000D01*
X135878750Y-132900000D01*
X135720000Y-133058750D01*
X135466000Y-133058750D01*
X135307250Y-132900000D01*
X134866691Y-132900000D01*
X134633302Y-132996673D01*
X134492064Y-133137910D01*
X134457090Y-133083559D01*
X134244890Y-132938569D01*
X133993000Y-132887560D01*
X132855242Y-132887560D01*
X134851362Y-130891440D01*
X135898000Y-130891440D01*
X136133317Y-130847162D01*
X136349441Y-130708090D01*
X136397134Y-130638289D01*
X136433910Y-130695441D01*
X136646110Y-130840431D01*
X136898000Y-130891440D01*
X138098000Y-130891440D01*
X138333317Y-130847162D01*
X138549441Y-130708090D01*
X138654726Y-130554000D01*
X138811000Y-130554000D01*
X139101839Y-130496148D01*
X139348401Y-130331401D01*
X143285401Y-126394401D01*
X143450148Y-126147839D01*
X143508000Y-125857000D01*
X143508000Y-111633000D01*
X143450148Y-111342161D01*
X143285401Y-111095599D01*
X139348401Y-107158599D01*
X139101839Y-106993852D01*
X138811000Y-106936000D01*
X109280802Y-106936000D01*
X94753000Y-92408198D01*
X94753000Y-69049440D01*
X95343000Y-69049440D01*
X95578317Y-69005162D01*
X95794441Y-68866090D01*
X95939431Y-68653890D01*
X95990440Y-68402000D01*
X95990440Y-65202000D01*
X95946162Y-64966683D01*
X95807090Y-64750559D01*
X95628000Y-64628192D01*
X95628000Y-64529005D01*
X95628001Y-64529000D01*
X95503543Y-63903312D01*
X95149120Y-63372880D01*
X92313000Y-60536760D01*
X92313000Y-59955750D01*
X94244000Y-59955750D01*
X94244000Y-60546309D01*
X94340673Y-60779698D01*
X94519301Y-60958327D01*
X94752690Y-61055000D01*
X95218250Y-61055000D01*
X95377000Y-60896250D01*
X95377000Y-59797000D01*
X95631000Y-59797000D01*
X95631000Y-60896250D01*
X95789750Y-61055000D01*
X96255310Y-61055000D01*
X96488699Y-60958327D01*
X96667327Y-60779698D01*
X96764000Y-60546309D01*
X96764000Y-59955750D01*
X96605250Y-59797000D01*
X95631000Y-59797000D01*
X95377000Y-59797000D01*
X94402750Y-59797000D01*
X94244000Y-59955750D01*
X92313000Y-59955750D01*
X92313000Y-56007000D01*
X92188543Y-55381313D01*
X91985204Y-55076994D01*
X91958100Y-54940732D01*
X91657746Y-54491221D01*
X91431428Y-54340000D01*
X93302760Y-54340000D01*
X93869000Y-54906239D01*
X93869000Y-57170000D01*
X93993457Y-57795687D01*
X94347880Y-58326120D01*
X94414308Y-58370506D01*
X94414910Y-58371441D01*
X94483006Y-58417969D01*
X94340673Y-58560302D01*
X94244000Y-58793691D01*
X94244000Y-59384250D01*
X94402750Y-59543000D01*
X95377000Y-59543000D01*
X95377000Y-59523000D01*
X95631000Y-59523000D01*
X95631000Y-59543000D01*
X96605250Y-59543000D01*
X96764000Y-59384250D01*
X96764000Y-58793691D01*
X96667327Y-58560302D01*
X96526090Y-58419064D01*
X96580441Y-58384090D01*
X96586388Y-58375386D01*
X96660120Y-58326120D01*
X97014543Y-57795687D01*
X97139000Y-57170000D01*
X97139000Y-54389240D01*
X99077202Y-56327441D01*
X99330802Y-56941200D01*
X99862003Y-57473330D01*
X100174000Y-57602882D01*
X100174000Y-62493038D01*
X99999683Y-62525838D01*
X99783559Y-62664910D01*
X99638569Y-62877110D01*
X99587560Y-63129000D01*
X99587560Y-64379000D01*
X99631838Y-64614317D01*
X99770910Y-64830441D01*
X99983110Y-64975431D01*
X100235000Y-65026440D01*
X100860000Y-65026440D01*
X100860000Y-67817442D01*
X100634683Y-67859838D01*
X100418559Y-67998910D01*
X100273569Y-68211110D01*
X100222560Y-68463000D01*
X100222560Y-69713000D01*
X100266838Y-69948317D01*
X100405910Y-70164441D01*
X100618110Y-70309431D01*
X100860000Y-70358415D01*
X100860000Y-71166197D01*
X100190320Y-71835878D01*
X100144833Y-71835838D01*
X99801057Y-71977883D01*
X99537808Y-72240673D01*
X99395162Y-72584201D01*
X99394838Y-72956167D01*
X99536883Y-73299943D01*
X99799673Y-73563192D01*
X100143201Y-73705838D01*
X100515167Y-73706162D01*
X100858943Y-73564117D01*
X101122192Y-73301327D01*
X101264838Y-72957799D01*
X101264879Y-72910923D01*
X102157401Y-72018402D01*
X102224959Y-71917294D01*
X102556201Y-72054838D01*
X102928167Y-72055162D01*
X103271943Y-71913117D01*
X103360000Y-71825214D01*
X103360000Y-72477000D01*
X103417852Y-72767839D01*
X103582599Y-73014401D01*
X103778560Y-73210362D01*
X103778560Y-74158000D01*
X103822838Y-74393317D01*
X103961910Y-74609441D01*
X104174110Y-74754431D01*
X104426000Y-74805440D01*
X105926000Y-74805440D01*
X106161317Y-74761162D01*
X106377441Y-74622090D01*
X106425134Y-74552289D01*
X106461910Y-74609441D01*
X106674110Y-74754431D01*
X106916000Y-74803415D01*
X106916000Y-75926000D01*
X106973852Y-76216839D01*
X107014931Y-76278318D01*
X107014838Y-76385167D01*
X107156883Y-76728943D01*
X107419673Y-76992192D01*
X107763201Y-77134838D01*
X108135167Y-77135162D01*
X108478943Y-76993117D01*
X108742192Y-76730327D01*
X108884838Y-76386799D01*
X108885162Y-76014833D01*
X108743117Y-75671057D01*
X108480327Y-75407808D01*
X108436000Y-75389402D01*
X108436000Y-74803558D01*
X108661317Y-74761162D01*
X108877441Y-74622090D01*
X109022431Y-74409890D01*
X109046102Y-74293000D01*
X110490000Y-74293000D01*
X110780839Y-74235148D01*
X111027401Y-74070401D01*
X112458500Y-72639302D01*
X112475878Y-72656680D01*
X112475838Y-72702167D01*
X112617883Y-73045943D01*
X112880673Y-73309192D01*
X113224201Y-73451838D01*
X113596167Y-73452162D01*
X113939943Y-73310117D01*
X114203192Y-73047327D01*
X114345838Y-72703799D01*
X114346162Y-72331833D01*
X114204117Y-71988057D01*
X113941327Y-71724808D01*
X113597799Y-71582162D01*
X113550923Y-71582121D01*
X113533302Y-71564500D01*
X113694401Y-71403401D01*
X113859148Y-71156840D01*
X113917000Y-70866000D01*
X113917000Y-66314000D01*
X113859148Y-66023161D01*
X113859148Y-66023160D01*
X113694401Y-65776599D01*
X112248440Y-64330638D01*
X112248440Y-63383000D01*
X112204162Y-63147683D01*
X112065090Y-62931559D01*
X111852890Y-62786569D01*
X111611000Y-62737585D01*
X111611000Y-57703362D01*
X112163200Y-57475198D01*
X112695330Y-56943997D01*
X112983671Y-56249594D01*
X112984327Y-55497705D01*
X112697198Y-54802800D01*
X112165997Y-54270670D01*
X111471594Y-53982329D01*
X110719705Y-53981673D01*
X110024800Y-54268802D01*
X109492670Y-54800003D01*
X109204329Y-55494406D01*
X109203673Y-56246295D01*
X109490802Y-56941200D01*
X110022003Y-57473330D01*
X110091000Y-57501980D01*
X110091000Y-62737442D01*
X109865683Y-62779838D01*
X109649559Y-62918910D01*
X109603031Y-62987006D01*
X109460698Y-62844673D01*
X109227309Y-62748000D01*
X108636750Y-62748000D01*
X108478000Y-62906750D01*
X108478000Y-63881000D01*
X108498000Y-63881000D01*
X108498000Y-64135000D01*
X108478000Y-64135000D01*
X108478000Y-65109250D01*
X108636750Y-65268000D01*
X109227309Y-65268000D01*
X109460698Y-65171327D01*
X109601936Y-65030090D01*
X109636910Y-65084441D01*
X109849110Y-65229431D01*
X110101000Y-65280440D01*
X111048638Y-65280440D01*
X112397000Y-66628802D01*
X112397000Y-70551198D01*
X110175198Y-72773000D01*
X109048038Y-72773000D01*
X109029162Y-72672683D01*
X108890090Y-72456559D01*
X108677890Y-72311569D01*
X108426000Y-72260560D01*
X108329638Y-72260560D01*
X108213401Y-72086599D01*
X107725401Y-71598599D01*
X107478839Y-71433852D01*
X107188000Y-71376000D01*
X106353463Y-71376000D01*
X106321327Y-71343808D01*
X105977799Y-71201162D01*
X105605833Y-71200838D01*
X105262057Y-71342883D01*
X104998808Y-71605673D01*
X104880000Y-71891793D01*
X104880000Y-70358558D01*
X105105317Y-70316162D01*
X105321441Y-70177090D01*
X105466431Y-69964890D01*
X105490102Y-69848000D01*
X107223730Y-69848000D01*
X107263910Y-69910441D01*
X107476110Y-70055431D01*
X107728000Y-70106440D01*
X109228000Y-70106440D01*
X109463317Y-70062162D01*
X109679441Y-69923090D01*
X109725969Y-69854994D01*
X109868302Y-69997327D01*
X110101691Y-70094000D01*
X110692250Y-70094000D01*
X110851000Y-69935250D01*
X110851000Y-68961000D01*
X111105000Y-68961000D01*
X111105000Y-69935250D01*
X111263750Y-70094000D01*
X111854309Y-70094000D01*
X112087698Y-69997327D01*
X112266327Y-69818699D01*
X112363000Y-69585310D01*
X112363000Y-69119750D01*
X112204250Y-68961000D01*
X111105000Y-68961000D01*
X110851000Y-68961000D01*
X110831000Y-68961000D01*
X110831000Y-68707000D01*
X110851000Y-68707000D01*
X110851000Y-67732750D01*
X111105000Y-67732750D01*
X111105000Y-68707000D01*
X112204250Y-68707000D01*
X112363000Y-68548250D01*
X112363000Y-68082690D01*
X112266327Y-67849301D01*
X112087698Y-67670673D01*
X111854309Y-67574000D01*
X111263750Y-67574000D01*
X111105000Y-67732750D01*
X110851000Y-67732750D01*
X110692250Y-67574000D01*
X110101691Y-67574000D01*
X109868302Y-67670673D01*
X109727064Y-67811910D01*
X109692090Y-67757559D01*
X109479890Y-67612569D01*
X109228000Y-67561560D01*
X107728000Y-67561560D01*
X107492683Y-67605838D01*
X107276559Y-67744910D01*
X107131569Y-67957110D01*
X107080560Y-68209000D01*
X107080560Y-68328000D01*
X105492038Y-68328000D01*
X105473162Y-68227683D01*
X105334090Y-68011559D01*
X105121890Y-67866569D01*
X104870000Y-67815560D01*
X103370000Y-67815560D01*
X103134683Y-67859838D01*
X102918559Y-67998910D01*
X102870866Y-68068711D01*
X102834090Y-68011559D01*
X102621890Y-67866569D01*
X102380000Y-67817585D01*
X102380000Y-64919273D01*
X102608691Y-65014000D01*
X103199250Y-65014000D01*
X103358000Y-64855250D01*
X103358000Y-63881000D01*
X103612000Y-63881000D01*
X103612000Y-64855250D01*
X103770750Y-65014000D01*
X104361309Y-65014000D01*
X104594698Y-64917327D01*
X104773327Y-64738699D01*
X104870000Y-64505310D01*
X104870000Y-64293750D01*
X106966000Y-64293750D01*
X106966000Y-64759310D01*
X107062673Y-64992699D01*
X107241302Y-65171327D01*
X107474691Y-65268000D01*
X108065250Y-65268000D01*
X108224000Y-65109250D01*
X108224000Y-64135000D01*
X107124750Y-64135000D01*
X106966000Y-64293750D01*
X104870000Y-64293750D01*
X104870000Y-64039750D01*
X104711250Y-63881000D01*
X103612000Y-63881000D01*
X103358000Y-63881000D01*
X103338000Y-63881000D01*
X103338000Y-63627000D01*
X103358000Y-63627000D01*
X103358000Y-62652750D01*
X103612000Y-62652750D01*
X103612000Y-63627000D01*
X104711250Y-63627000D01*
X104870000Y-63468250D01*
X104870000Y-63256690D01*
X106966000Y-63256690D01*
X106966000Y-63722250D01*
X107124750Y-63881000D01*
X108224000Y-63881000D01*
X108224000Y-62906750D01*
X108065250Y-62748000D01*
X107474691Y-62748000D01*
X107241302Y-62844673D01*
X107062673Y-63023301D01*
X106966000Y-63256690D01*
X104870000Y-63256690D01*
X104870000Y-63002690D01*
X104773327Y-62769301D01*
X104594698Y-62590673D01*
X104361309Y-62494000D01*
X103770750Y-62494000D01*
X103612000Y-62652750D01*
X103358000Y-62652750D01*
X103199250Y-62494000D01*
X102608691Y-62494000D01*
X102375302Y-62590673D01*
X102234064Y-62731910D01*
X102199090Y-62677559D01*
X101986890Y-62532569D01*
X101735000Y-62481560D01*
X101694000Y-62481560D01*
X101694000Y-57602957D01*
X102003200Y-57475198D01*
X102269929Y-57208934D01*
X104856671Y-57208934D01*
X104986530Y-57502257D01*
X105688614Y-57771357D01*
X106440235Y-57751297D01*
X107041470Y-57502257D01*
X107171329Y-57208934D01*
X106014000Y-56051605D01*
X104856671Y-57208934D01*
X102269929Y-57208934D01*
X102535330Y-56943997D01*
X102823671Y-56249594D01*
X102824284Y-55546614D01*
X104114643Y-55546614D01*
X104134703Y-56298235D01*
X104383743Y-56899470D01*
X104677066Y-57029329D01*
X105834395Y-55872000D01*
X106193605Y-55872000D01*
X107350934Y-57029329D01*
X107644257Y-56899470D01*
X107913357Y-56197386D01*
X107893297Y-55445765D01*
X107644257Y-54844530D01*
X107350934Y-54714671D01*
X106193605Y-55872000D01*
X105834395Y-55872000D01*
X104677066Y-54714671D01*
X104383743Y-54844530D01*
X104114643Y-55546614D01*
X102824284Y-55546614D01*
X102824327Y-55497705D01*
X102537198Y-54802800D01*
X102269932Y-54535066D01*
X104856671Y-54535066D01*
X106014000Y-55692395D01*
X107171329Y-54535066D01*
X107041470Y-54241743D01*
X106339386Y-53972643D01*
X105587765Y-53992703D01*
X104986530Y-54241743D01*
X104856671Y-54535066D01*
X102269932Y-54535066D01*
X102005997Y-54270670D01*
X101388504Y-54014265D01*
X98923120Y-51548880D01*
X98392688Y-51194457D01*
X97767000Y-51069999D01*
X97766995Y-51070000D01*
X93980005Y-51070000D01*
X93980000Y-51069999D01*
X93979995Y-51070000D01*
X89408000Y-51070000D01*
X88782312Y-51194457D01*
X88569851Y-51336419D01*
X88251880Y-51548880D01*
X88251878Y-51548883D01*
X86981880Y-52818880D01*
X86627457Y-53349312D01*
X86502999Y-53975000D01*
X86503000Y-53975005D01*
X86503000Y-54441277D01*
X86128235Y-54190867D01*
X85598000Y-54085397D01*
X85067765Y-54190867D01*
X84618254Y-54491221D01*
X84317900Y-54940732D01*
X84212430Y-55470967D01*
X84212430Y-56543033D01*
X84317900Y-57073268D01*
X84618254Y-57522779D01*
X84838000Y-57669609D01*
X84838000Y-61849000D01*
X84895852Y-62139839D01*
X85060599Y-62386401D01*
X87228758Y-64554560D01*
X84743000Y-64554560D01*
X84507683Y-64598838D01*
X84291559Y-64737910D01*
X84146569Y-64950110D01*
X84102648Y-65167000D01*
X81449239Y-65167000D01*
X76026000Y-59743760D01*
X76026000Y-57335934D01*
X78313671Y-57335934D01*
X78443530Y-57629257D01*
X79145614Y-57898357D01*
X79897235Y-57878297D01*
X80498470Y-57629257D01*
X80628329Y-57335934D01*
X79471000Y-56178605D01*
X78313671Y-57335934D01*
X76026000Y-57335934D01*
X76026000Y-56989911D01*
X76280671Y-56376594D01*
X76281284Y-55673614D01*
X77571643Y-55673614D01*
X77591703Y-56425235D01*
X77840743Y-57026470D01*
X78134066Y-57156329D01*
X79291395Y-55999000D01*
X79650605Y-55999000D01*
X80807934Y-57156329D01*
X81101257Y-57026470D01*
X81370357Y-56324386D01*
X81350297Y-55572765D01*
X81101257Y-54971530D01*
X80807934Y-54841671D01*
X79650605Y-55999000D01*
X79291395Y-55999000D01*
X78134066Y-54841671D01*
X77840743Y-54971530D01*
X77571643Y-55673614D01*
X76281284Y-55673614D01*
X76281327Y-55624705D01*
X75994198Y-54929800D01*
X75726932Y-54662066D01*
X78313671Y-54662066D01*
X79471000Y-55819395D01*
X80628329Y-54662066D01*
X80498470Y-54368743D01*
X79796386Y-54099643D01*
X79044765Y-54119703D01*
X78443530Y-54368743D01*
X78313671Y-54662066D01*
X75726932Y-54662066D01*
X75462997Y-54397670D01*
X74768594Y-54109329D01*
X74016705Y-54108673D01*
X73321800Y-54395802D01*
X72789670Y-54927003D01*
X72501329Y-55621406D01*
X72500673Y-56373295D01*
X72756000Y-56991233D01*
X72756000Y-60420995D01*
X72755999Y-60421000D01*
X72880457Y-61046688D01*
X73234880Y-61577120D01*
X79615878Y-67958117D01*
X79615880Y-67958120D01*
X80019311Y-68227683D01*
X80146313Y-68312543D01*
X80772000Y-68437001D01*
X80772005Y-68437000D01*
X84102146Y-68437000D01*
X84139838Y-68637317D01*
X84278910Y-68853441D01*
X84491110Y-68998431D01*
X84743000Y-69049440D01*
X85333000Y-69049440D01*
X85333000Y-97396000D01*
X85390852Y-97686839D01*
X85555599Y-97933401D01*
X107776878Y-120154680D01*
X107776838Y-120200167D01*
X107918883Y-120543943D01*
X108181673Y-120807192D01*
X108525201Y-120949838D01*
X108897167Y-120950162D01*
X109240943Y-120808117D01*
X109504192Y-120545327D01*
X109646838Y-120201799D01*
X109647162Y-119829833D01*
X109505117Y-119486057D01*
X109242327Y-119222808D01*
X108898799Y-119080162D01*
X108851923Y-119080121D01*
X86853000Y-97081198D01*
X86853000Y-69049440D01*
X87443000Y-69049440D01*
X87678317Y-69005162D01*
X87886000Y-68871522D01*
X87886000Y-94234000D01*
X87943852Y-94524839D01*
X88108599Y-94771401D01*
X103094599Y-109757401D01*
X103341160Y-109922148D01*
X103389414Y-109931746D01*
X103632000Y-109980000D01*
X111675040Y-109980000D01*
X111513559Y-110083910D01*
X111368569Y-110296110D01*
X111317560Y-110548000D01*
X111317560Y-111213068D01*
X111238252Y-111331761D01*
X111180400Y-111622600D01*
X111180400Y-115028521D01*
X110988959Y-115151710D01*
X110843969Y-115363910D01*
X110792960Y-115615800D01*
X110792960Y-116915800D01*
X110837238Y-117151117D01*
X110976310Y-117367241D01*
X111188510Y-117512231D01*
X111440400Y-117563240D01*
X112440400Y-117563240D01*
X112675717Y-117518962D01*
X112891841Y-117379890D01*
X113036831Y-117167690D01*
X113087840Y-116915800D01*
X113087840Y-115615800D01*
X113043562Y-115380483D01*
X112904490Y-115164359D01*
X112700400Y-115024910D01*
X112700400Y-112095440D01*
X113165000Y-112095440D01*
X113400317Y-112051162D01*
X113616441Y-111912090D01*
X113664134Y-111842289D01*
X113700910Y-111899441D01*
X113913110Y-112044431D01*
X114005000Y-112063039D01*
X114005000Y-113520198D01*
X113381599Y-114143599D01*
X113216852Y-114390161D01*
X113159000Y-114681000D01*
X113159000Y-118237000D01*
X113216852Y-118527839D01*
X113377563Y-118768360D01*
X113190400Y-118768360D01*
X112955083Y-118812638D01*
X112738959Y-118951710D01*
X112593969Y-119163910D01*
X112542960Y-119415800D01*
X112542960Y-120715800D01*
X112587238Y-120951117D01*
X112726310Y-121167241D01*
X112938510Y-121312231D01*
X113190400Y-121363240D01*
X113913038Y-121363240D01*
X115064000Y-122514202D01*
X115064000Y-123902710D01*
X115004000Y-123890560D01*
X114381362Y-123890560D01*
X113651401Y-123160599D01*
X113404839Y-122995852D01*
X113114000Y-122938000D01*
X112491105Y-122938000D01*
X112400090Y-122796559D01*
X112187890Y-122651569D01*
X111936000Y-122600560D01*
X110736000Y-122600560D01*
X110500683Y-122644838D01*
X110284559Y-122783910D01*
X110236866Y-122853711D01*
X110200090Y-122796559D01*
X109987890Y-122651569D01*
X109736000Y-122600560D01*
X108536000Y-122600560D01*
X108300683Y-122644838D01*
X108084559Y-122783910D01*
X107979274Y-122938000D01*
X102803802Y-122938000D01*
X102137401Y-122271599D01*
X101890839Y-122106852D01*
X101600000Y-122049000D01*
X89070000Y-122049000D01*
X88779160Y-122106852D01*
X88532599Y-122271599D01*
X87822638Y-122981560D01*
X87200000Y-122981560D01*
X86964683Y-123025838D01*
X86748559Y-123164910D01*
X86603569Y-123377110D01*
X86589618Y-123446000D01*
X84297105Y-123446000D01*
X84206090Y-123304559D01*
X83993890Y-123159569D01*
X83742000Y-123108560D01*
X82542000Y-123108560D01*
X82306683Y-123152838D01*
X82090559Y-123291910D01*
X82042866Y-123361711D01*
X82006090Y-123304559D01*
X81793890Y-123159569D01*
X81542000Y-123108560D01*
X80342000Y-123108560D01*
X80106683Y-123152838D01*
X79890559Y-123291910D01*
X79745569Y-123504110D01*
X79694560Y-123756000D01*
X79694560Y-124656000D01*
X79738838Y-124891317D01*
X79877910Y-125107441D01*
X80090110Y-125252431D01*
X80223000Y-125279342D01*
X80223000Y-126567666D01*
X80147683Y-126581838D01*
X79931559Y-126720910D01*
X79883866Y-126790711D01*
X79847090Y-126733559D01*
X79634890Y-126588569D01*
X79383000Y-126537560D01*
X78183000Y-126537560D01*
X77947683Y-126581838D01*
X77731559Y-126720910D01*
X77586569Y-126933110D01*
X77549618Y-127115580D01*
X76473566Y-128191632D01*
X76417160Y-128202852D01*
X76170599Y-128367599D01*
X74646599Y-129891599D01*
X74481852Y-130138161D01*
X74424000Y-130429000D01*
X74424000Y-132422953D01*
X74326117Y-132186057D01*
X74063327Y-131922808D01*
X73719799Y-131780162D01*
X73347833Y-131779838D01*
X73004057Y-131921883D01*
X72740808Y-132184673D01*
X72598162Y-132528201D01*
X72597838Y-132900167D01*
X72644939Y-133014162D01*
X72545683Y-133032838D01*
X72329559Y-133171910D01*
X72184569Y-133384110D01*
X72133560Y-133636000D01*
X72133560Y-133860000D01*
X71389914Y-133860000D01*
X71432440Y-133650000D01*
X71432440Y-133050000D01*
X71388162Y-132814683D01*
X71249090Y-132598559D01*
X71036890Y-132453569D01*
X70785000Y-132402560D01*
X70770000Y-132402560D01*
X70770000Y-128684000D01*
X70712148Y-128393161D01*
X70547401Y-128146599D01*
X69517608Y-127116806D01*
X69486162Y-126949683D01*
X69347090Y-126733559D01*
X69134890Y-126588569D01*
X68883000Y-126537560D01*
X67683000Y-126537560D01*
X67447683Y-126581838D01*
X67231559Y-126720910D01*
X67183866Y-126790711D01*
X67147090Y-126733559D01*
X66934890Y-126588569D01*
X66683000Y-126537560D01*
X65483000Y-126537560D01*
X65247683Y-126581838D01*
X65031559Y-126720910D01*
X64886569Y-126933110D01*
X64835560Y-127185000D01*
X64835560Y-127807638D01*
X64072599Y-128570599D01*
X63907852Y-128817161D01*
X63850000Y-129108000D01*
X63850000Y-132402560D01*
X63835000Y-132402560D01*
X63599683Y-132446838D01*
X63383559Y-132585910D01*
X63238569Y-132798110D01*
X63187560Y-133050000D01*
X63187560Y-133650000D01*
X63231838Y-133885317D01*
X63295678Y-133984528D01*
X63238569Y-134068110D01*
X63187560Y-134320000D01*
X63187560Y-134920000D01*
X63227074Y-135130000D01*
X62863000Y-135130000D01*
X62863000Y-57889247D01*
X62954295Y-57889327D01*
X63649200Y-57602198D01*
X63915929Y-57335934D01*
X66502671Y-57335934D01*
X66632530Y-57629257D01*
X67334614Y-57898357D01*
X68086235Y-57878297D01*
X68687470Y-57629257D01*
X68817329Y-57335934D01*
X67660000Y-56178605D01*
X66502671Y-57335934D01*
X63915929Y-57335934D01*
X64181330Y-57070997D01*
X64469671Y-56376594D01*
X64470284Y-55673614D01*
X65760643Y-55673614D01*
X65780703Y-56425235D01*
X66029743Y-57026470D01*
X66323066Y-57156329D01*
X67480395Y-55999000D01*
X67839605Y-55999000D01*
X68996934Y-57156329D01*
X69290257Y-57026470D01*
X69559357Y-56324386D01*
X69539297Y-55572765D01*
X69290257Y-54971530D01*
X68996934Y-54841671D01*
X67839605Y-55999000D01*
X67480395Y-55999000D01*
X66323066Y-54841671D01*
X66029743Y-54971530D01*
X65760643Y-55673614D01*
X64470284Y-55673614D01*
X64470327Y-55624705D01*
X64183198Y-54929800D01*
X63915932Y-54662066D01*
X66502671Y-54662066D01*
X67660000Y-55819395D01*
X68817329Y-54662066D01*
X68687470Y-54368743D01*
X67985386Y-54099643D01*
X67233765Y-54119703D01*
X66632530Y-54368743D01*
X66502671Y-54662066D01*
X63915932Y-54662066D01*
X63651997Y-54397670D01*
X62957594Y-54109329D01*
X62205705Y-54108673D01*
X61510800Y-54395802D01*
X60978670Y-54927003D01*
X60690329Y-55621406D01*
X60689673Y-56373295D01*
X60976802Y-57068200D01*
X61343000Y-57435038D01*
X61343000Y-135575198D01*
X60475198Y-136443000D01*
X60249334Y-136443000D01*
X60235162Y-136367683D01*
X60096090Y-136151559D01*
X59883890Y-136006569D01*
X59632000Y-135955560D01*
X58732000Y-135955560D01*
X58496683Y-135999838D01*
X58280559Y-136138910D01*
X58135569Y-136351110D01*
X58116961Y-136443000D01*
X57488000Y-136443000D01*
X57197161Y-136500852D01*
X56950599Y-136665599D01*
X51786599Y-141829599D01*
X51621852Y-142076161D01*
X51564000Y-142367000D01*
X50710000Y-142367000D01*
X50710000Y-50710000D01*
X149290000Y-50710000D01*
X149290000Y-169290000D01*
G36*
X134105560Y-116577362D02*
X134105560Y-117125000D01*
X134149838Y-117360317D01*
X134223620Y-117474978D01*
X134156569Y-117573110D01*
X134105560Y-117825000D01*
X134105560Y-119025000D01*
X134149838Y-119260317D01*
X134288910Y-119476441D01*
X134501110Y-119621431D01*
X134753000Y-119672440D01*
X134815000Y-119672440D01*
X134815000Y-122959666D01*
X134739683Y-122973838D01*
X134523559Y-123112910D01*
X134378569Y-123325110D01*
X134327560Y-123577000D01*
X134327560Y-124124638D01*
X132050599Y-126401599D01*
X131885852Y-126648161D01*
X131828000Y-126939000D01*
X131828000Y-127320198D01*
X128209198Y-130939000D01*
X123072563Y-130939000D01*
X122872890Y-130802569D01*
X122621000Y-130751560D01*
X121121000Y-130751560D01*
X120885683Y-130795838D01*
X120669559Y-130934910D01*
X120524569Y-131147110D01*
X120473560Y-131399000D01*
X120473560Y-131999000D01*
X120517838Y-132234317D01*
X120581678Y-132333528D01*
X120524569Y-132417110D01*
X120473560Y-132669000D01*
X120473560Y-133269000D01*
X120517838Y-133504317D01*
X120581678Y-133603528D01*
X120524569Y-133687110D01*
X120473560Y-133939000D01*
X120473560Y-134539000D01*
X120517838Y-134774317D01*
X120581678Y-134873528D01*
X120524569Y-134957110D01*
X120473560Y-135209000D01*
X120473560Y-135809000D01*
X120517838Y-136044317D01*
X120576178Y-136134980D01*
X120486000Y-136352690D01*
X120486000Y-136493250D01*
X120644750Y-136652000D01*
X121744000Y-136652000D01*
X121744000Y-136632000D01*
X121998000Y-136632000D01*
X121998000Y-136652000D01*
X123097250Y-136652000D01*
X123256000Y-136493250D01*
X123256000Y-136352690D01*
X123221334Y-136269000D01*
X123695560Y-136269000D01*
X123695560Y-136660000D01*
X123739838Y-136895317D01*
X123878910Y-137111441D01*
X123947006Y-137157969D01*
X123804673Y-137300302D01*
X123708000Y-137533691D01*
X123708000Y-138124250D01*
X123866750Y-138283000D01*
X124841000Y-138283000D01*
X124841000Y-138263000D01*
X125095000Y-138263000D01*
X125095000Y-138283000D01*
X126069250Y-138283000D01*
X126228000Y-138124250D01*
X126228000Y-137533691D01*
X126131327Y-137300302D01*
X125990090Y-137159064D01*
X126044441Y-137124090D01*
X126189431Y-136911890D01*
X126240440Y-136660000D01*
X126240440Y-136615012D01*
X126254839Y-136612148D01*
X126501401Y-136447401D01*
X126504680Y-136444122D01*
X126550167Y-136444162D01*
X126893943Y-136302117D01*
X127157192Y-136039327D01*
X127299838Y-135695799D01*
X127300162Y-135323833D01*
X127165944Y-134999000D01*
X128061560Y-134999000D01*
X128061560Y-135939000D01*
X128105838Y-136174317D01*
X128244910Y-136390441D01*
X128399000Y-136495726D01*
X128399000Y-136718198D01*
X126228000Y-138889198D01*
X126228000Y-138695750D01*
X126069250Y-138537000D01*
X125095000Y-138537000D01*
X125095000Y-139636250D01*
X125253750Y-139795000D01*
X125322198Y-139795000D01*
X123209566Y-141907632D01*
X123153161Y-141918852D01*
X122906599Y-142083599D01*
X122741852Y-142330161D01*
X122684000Y-142621000D01*
X122684000Y-148262121D01*
X122560090Y-148069559D01*
X122347890Y-147924569D01*
X122256000Y-147905961D01*
X122256000Y-143467000D01*
X122198148Y-143176161D01*
X122033401Y-142929599D01*
X121156000Y-142052198D01*
X121156000Y-141536440D01*
X122621000Y-141536440D01*
X122856317Y-141492162D01*
X123072441Y-141353090D01*
X123217431Y-141140890D01*
X123268440Y-140889000D01*
X123268440Y-140289000D01*
X123224162Y-140053683D01*
X123160322Y-139954472D01*
X123217431Y-139870890D01*
X123268440Y-139619000D01*
X123268440Y-139019000D01*
X123224162Y-138783683D01*
X123167580Y-138695750D01*
X123708000Y-138695750D01*
X123708000Y-139286309D01*
X123804673Y-139519698D01*
X123983301Y-139698327D01*
X124216690Y-139795000D01*
X124682250Y-139795000D01*
X124841000Y-139636250D01*
X124841000Y-138537000D01*
X123866750Y-138537000D01*
X123708000Y-138695750D01*
X123167580Y-138695750D01*
X123160322Y-138684472D01*
X123217431Y-138600890D01*
X123268440Y-138349000D01*
X123268440Y-137749000D01*
X123224162Y-137513683D01*
X123165822Y-137423020D01*
X123256000Y-137205310D01*
X123256000Y-137064750D01*
X123097250Y-136906000D01*
X121998000Y-136906000D01*
X121998000Y-136926000D01*
X121744000Y-136926000D01*
X121744000Y-136906000D01*
X120644750Y-136906000D01*
X120486000Y-137064750D01*
X120486000Y-137205310D01*
X120559485Y-137382717D01*
X120366599Y-137511599D01*
X119350599Y-138527599D01*
X119185852Y-138774161D01*
X119128000Y-139065000D01*
X119128000Y-144338198D01*
X119060440Y-144405758D01*
X119060440Y-143949000D01*
X119016162Y-143713683D01*
X118877090Y-143497559D01*
X118664890Y-143352569D01*
X118573000Y-143333961D01*
X118573000Y-142197000D01*
X118515148Y-141906161D01*
X118350401Y-141659599D01*
X114739802Y-138049000D01*
X118266401Y-134522401D01*
X118431148Y-134275839D01*
X118489000Y-133985000D01*
X118489000Y-132521802D01*
X121218802Y-129792000D01*
X121442895Y-129792000D01*
X121533910Y-129933441D01*
X121746110Y-130078431D01*
X121998000Y-130129440D01*
X123198000Y-130129440D01*
X123433317Y-130085162D01*
X123649441Y-129946090D01*
X123697134Y-129876289D01*
X123733910Y-129933441D01*
X123946110Y-130078431D01*
X124198000Y-130129440D01*
X125398000Y-130129440D01*
X125633317Y-130085162D01*
X125849441Y-129946090D01*
X125994431Y-129733890D01*
X126045440Y-129482000D01*
X126045440Y-128582000D01*
X126001162Y-128346683D01*
X125862090Y-128130559D01*
X125649890Y-127985569D01*
X125558000Y-127966961D01*
X125558000Y-125579802D01*
X127000059Y-124137743D01*
X126999758Y-124482661D01*
X127211990Y-124996303D01*
X127604630Y-125389629D01*
X128117900Y-125602757D01*
X128673661Y-125603242D01*
X129187303Y-125391010D01*
X129580629Y-124998370D01*
X129793757Y-124485100D01*
X129794060Y-124137742D01*
X130585401Y-123346401D01*
X130750148Y-123099840D01*
X130808000Y-122809000D01*
X130808000Y-118618000D01*
X130750148Y-118327161D01*
X130750148Y-118327160D01*
X130585401Y-118080599D01*
X127029401Y-114524599D01*
X126782839Y-114359852D01*
X126492000Y-114302000D01*
X122240000Y-114302000D01*
X121949161Y-114359852D01*
X121702599Y-114524599D01*
X120462000Y-115765198D01*
X120425201Y-115728399D01*
X120178639Y-115563652D01*
X119887800Y-115505800D01*
X116567142Y-115505800D01*
X116543562Y-115380483D01*
X116404490Y-115164359D01*
X116192290Y-115019369D01*
X115940400Y-114968360D01*
X114940400Y-114968360D01*
X114705083Y-115012638D01*
X114679000Y-115029422D01*
X114679000Y-114995802D01*
X115302401Y-114372401D01*
X115467148Y-114125839D01*
X115525000Y-113835000D01*
X115525000Y-112065334D01*
X115600317Y-112051162D01*
X115816441Y-111912090D01*
X115961431Y-111699890D01*
X116012440Y-111448000D01*
X116012440Y-110548000D01*
X115968162Y-110312683D01*
X115829090Y-110096559D01*
X115658500Y-109980000D01*
X127508198Y-109980000D01*
X134105560Y-116577362D01*
X134105560Y-116577362D01*
G37*
X134105560Y-116577362D02*
X134105560Y-117125000D01*
X134149838Y-117360317D01*
X134223620Y-117474978D01*
X134156569Y-117573110D01*
X134105560Y-117825000D01*
X134105560Y-119025000D01*
X134149838Y-119260317D01*
X134288910Y-119476441D01*
X134501110Y-119621431D01*
X134753000Y-119672440D01*
X134815000Y-119672440D01*
X134815000Y-122959666D01*
X134739683Y-122973838D01*
X134523559Y-123112910D01*
X134378569Y-123325110D01*
X134327560Y-123577000D01*
X134327560Y-124124638D01*
X132050599Y-126401599D01*
X131885852Y-126648161D01*
X131828000Y-126939000D01*
X131828000Y-127320198D01*
X128209198Y-130939000D01*
X123072563Y-130939000D01*
X122872890Y-130802569D01*
X122621000Y-130751560D01*
X121121000Y-130751560D01*
X120885683Y-130795838D01*
X120669559Y-130934910D01*
X120524569Y-131147110D01*
X120473560Y-131399000D01*
X120473560Y-131999000D01*
X120517838Y-132234317D01*
X120581678Y-132333528D01*
X120524569Y-132417110D01*
X120473560Y-132669000D01*
X120473560Y-133269000D01*
X120517838Y-133504317D01*
X120581678Y-133603528D01*
X120524569Y-133687110D01*
X120473560Y-133939000D01*
X120473560Y-134539000D01*
X120517838Y-134774317D01*
X120581678Y-134873528D01*
X120524569Y-134957110D01*
X120473560Y-135209000D01*
X120473560Y-135809000D01*
X120517838Y-136044317D01*
X120576178Y-136134980D01*
X120486000Y-136352690D01*
X120486000Y-136493250D01*
X120644750Y-136652000D01*
X121744000Y-136652000D01*
X121744000Y-136632000D01*
X121998000Y-136632000D01*
X121998000Y-136652000D01*
X123097250Y-136652000D01*
X123256000Y-136493250D01*
X123256000Y-136352690D01*
X123221334Y-136269000D01*
X123695560Y-136269000D01*
X123695560Y-136660000D01*
X123739838Y-136895317D01*
X123878910Y-137111441D01*
X123947006Y-137157969D01*
X123804673Y-137300302D01*
X123708000Y-137533691D01*
X123708000Y-138124250D01*
X123866750Y-138283000D01*
X124841000Y-138283000D01*
X124841000Y-138263000D01*
X125095000Y-138263000D01*
X125095000Y-138283000D01*
X126069250Y-138283000D01*
X126228000Y-138124250D01*
X126228000Y-137533691D01*
X126131327Y-137300302D01*
X125990090Y-137159064D01*
X126044441Y-137124090D01*
X126189431Y-136911890D01*
X126240440Y-136660000D01*
X126240440Y-136615012D01*
X126254839Y-136612148D01*
X126501401Y-136447401D01*
X126504680Y-136444122D01*
X126550167Y-136444162D01*
X126893943Y-136302117D01*
X127157192Y-136039327D01*
X127299838Y-135695799D01*
X127300162Y-135323833D01*
X127165944Y-134999000D01*
X128061560Y-134999000D01*
X128061560Y-135939000D01*
X128105838Y-136174317D01*
X128244910Y-136390441D01*
X128399000Y-136495726D01*
X128399000Y-136718198D01*
X126228000Y-138889198D01*
X126228000Y-138695750D01*
X126069250Y-138537000D01*
X125095000Y-138537000D01*
X125095000Y-139636250D01*
X125253750Y-139795000D01*
X125322198Y-139795000D01*
X123209566Y-141907632D01*
X123153161Y-141918852D01*
X122906599Y-142083599D01*
X122741852Y-142330161D01*
X122684000Y-142621000D01*
X122684000Y-148262121D01*
X122560090Y-148069559D01*
X122347890Y-147924569D01*
X122256000Y-147905961D01*
X122256000Y-143467000D01*
X122198148Y-143176161D01*
X122033401Y-142929599D01*
X121156000Y-142052198D01*
X121156000Y-141536440D01*
X122621000Y-141536440D01*
X122856317Y-141492162D01*
X123072441Y-141353090D01*
X123217431Y-141140890D01*
X123268440Y-140889000D01*
X123268440Y-140289000D01*
X123224162Y-140053683D01*
X123160322Y-139954472D01*
X123217431Y-139870890D01*
X123268440Y-139619000D01*
X123268440Y-139019000D01*
X123224162Y-138783683D01*
X123167580Y-138695750D01*
X123708000Y-138695750D01*
X123708000Y-139286309D01*
X123804673Y-139519698D01*
X123983301Y-139698327D01*
X124216690Y-139795000D01*
X124682250Y-139795000D01*
X124841000Y-139636250D01*
X124841000Y-138537000D01*
X123866750Y-138537000D01*
X123708000Y-138695750D01*
X123167580Y-138695750D01*
X123160322Y-138684472D01*
X123217431Y-138600890D01*
X123268440Y-138349000D01*
X123268440Y-137749000D01*
X123224162Y-137513683D01*
X123165822Y-137423020D01*
X123256000Y-137205310D01*
X123256000Y-137064750D01*
X123097250Y-136906000D01*
X121998000Y-136906000D01*
X121998000Y-136926000D01*
X121744000Y-136926000D01*
X121744000Y-136906000D01*
X120644750Y-136906000D01*
X120486000Y-137064750D01*
X120486000Y-137205310D01*
X120559485Y-137382717D01*
X120366599Y-137511599D01*
X119350599Y-138527599D01*
X119185852Y-138774161D01*
X119128000Y-139065000D01*
X119128000Y-144338198D01*
X119060440Y-144405758D01*
X119060440Y-143949000D01*
X119016162Y-143713683D01*
X118877090Y-143497559D01*
X118664890Y-143352569D01*
X118573000Y-143333961D01*
X118573000Y-142197000D01*
X118515148Y-141906161D01*
X118350401Y-141659599D01*
X114739802Y-138049000D01*
X118266401Y-134522401D01*
X118431148Y-134275839D01*
X118489000Y-133985000D01*
X118489000Y-132521802D01*
X121218802Y-129792000D01*
X121442895Y-129792000D01*
X121533910Y-129933441D01*
X121746110Y-130078431D01*
X121998000Y-130129440D01*
X123198000Y-130129440D01*
X123433317Y-130085162D01*
X123649441Y-129946090D01*
X123697134Y-129876289D01*
X123733910Y-129933441D01*
X123946110Y-130078431D01*
X124198000Y-130129440D01*
X125398000Y-130129440D01*
X125633317Y-130085162D01*
X125849441Y-129946090D01*
X125994431Y-129733890D01*
X126045440Y-129482000D01*
X126045440Y-128582000D01*
X126001162Y-128346683D01*
X125862090Y-128130559D01*
X125649890Y-127985569D01*
X125558000Y-127966961D01*
X125558000Y-125579802D01*
X127000059Y-124137743D01*
X126999758Y-124482661D01*
X127211990Y-124996303D01*
X127604630Y-125389629D01*
X128117900Y-125602757D01*
X128673661Y-125603242D01*
X129187303Y-125391010D01*
X129580629Y-124998370D01*
X129793757Y-124485100D01*
X129794060Y-124137742D01*
X130585401Y-123346401D01*
X130750148Y-123099840D01*
X130808000Y-122809000D01*
X130808000Y-118618000D01*
X130750148Y-118327161D01*
X130750148Y-118327160D01*
X130585401Y-118080599D01*
X127029401Y-114524599D01*
X126782839Y-114359852D01*
X126492000Y-114302000D01*
X122240000Y-114302000D01*
X121949161Y-114359852D01*
X121702599Y-114524599D01*
X120462000Y-115765198D01*
X120425201Y-115728399D01*
X120178639Y-115563652D01*
X119887800Y-115505800D01*
X116567142Y-115505800D01*
X116543562Y-115380483D01*
X116404490Y-115164359D01*
X116192290Y-115019369D01*
X115940400Y-114968360D01*
X114940400Y-114968360D01*
X114705083Y-115012638D01*
X114679000Y-115029422D01*
X114679000Y-114995802D01*
X115302401Y-114372401D01*
X115467148Y-114125839D01*
X115525000Y-113835000D01*
X115525000Y-112065334D01*
X115600317Y-112051162D01*
X115816441Y-111912090D01*
X115961431Y-111699890D01*
X116012440Y-111448000D01*
X116012440Y-110548000D01*
X115968162Y-110312683D01*
X115829090Y-110096559D01*
X115658500Y-109980000D01*
X127508198Y-109980000D01*
X134105560Y-116577362D01*
G36*
X69005974Y-139041776D02*
X68941000Y-139106750D01*
X68941000Y-140081000D01*
X70040250Y-140081000D01*
X70169724Y-139951526D01*
X77694599Y-147476401D01*
X77941161Y-147641148D01*
X78232000Y-147699000D01*
X79290040Y-147699000D01*
X79128559Y-147802910D01*
X79023274Y-147957000D01*
X75571440Y-147957000D01*
X75571440Y-147929000D01*
X75527162Y-147693683D01*
X75388090Y-147477559D01*
X75175890Y-147332569D01*
X74924000Y-147281560D01*
X74174000Y-147281560D01*
X73938683Y-147325838D01*
X73722559Y-147464910D01*
X73577569Y-147677110D01*
X73546608Y-147830000D01*
X71770914Y-147830000D01*
X71813440Y-147620000D01*
X71813440Y-147020000D01*
X71769162Y-146784683D01*
X71705322Y-146685472D01*
X71762431Y-146601890D01*
X71813440Y-146350000D01*
X71813440Y-145750000D01*
X71769162Y-145514683D01*
X71630090Y-145298559D01*
X71417890Y-145153569D01*
X71166000Y-145102560D01*
X69616000Y-145102560D01*
X69380683Y-145146838D01*
X69164559Y-145285910D01*
X69019569Y-145498110D01*
X68968560Y-145750000D01*
X68968560Y-146350000D01*
X69012838Y-146585317D01*
X69076678Y-146684528D01*
X69019569Y-146768110D01*
X68990830Y-146910028D01*
X60946401Y-138865599D01*
X60699839Y-138700852D01*
X60409000Y-138643000D01*
X60249334Y-138643000D01*
X60235162Y-138567683D01*
X60096090Y-138351559D01*
X60026289Y-138303866D01*
X60083441Y-138267090D01*
X60228431Y-138054890D01*
X60247039Y-137963000D01*
X60790000Y-137963000D01*
X61080839Y-137905148D01*
X61327401Y-137740401D01*
X62417802Y-136650000D01*
X63230086Y-136650000D01*
X63187560Y-136860000D01*
X63187560Y-137460000D01*
X63231838Y-137695317D01*
X63370910Y-137911441D01*
X63583110Y-138056431D01*
X63835000Y-138107440D01*
X63850000Y-138107440D01*
X63850000Y-138504000D01*
X63907852Y-138794839D01*
X64072599Y-139041401D01*
X64916560Y-139885362D01*
X64916560Y-140833000D01*
X64960838Y-141068317D01*
X65099910Y-141284441D01*
X65312110Y-141429431D01*
X65564000Y-141480440D01*
X67064000Y-141480440D01*
X67299317Y-141436162D01*
X67515441Y-141297090D01*
X67561969Y-141228994D01*
X67704302Y-141371327D01*
X67937691Y-141468000D01*
X68528250Y-141468000D01*
X68687000Y-141309250D01*
X68687000Y-140335000D01*
X68941000Y-140335000D01*
X68941000Y-141309250D01*
X69099750Y-141468000D01*
X69690309Y-141468000D01*
X69923698Y-141371327D01*
X70102327Y-141192699D01*
X70199000Y-140959310D01*
X70199000Y-140493750D01*
X70040250Y-140335000D01*
X68941000Y-140335000D01*
X68687000Y-140335000D01*
X68667000Y-140335000D01*
X68667000Y-140081000D01*
X68687000Y-140081000D01*
X68687000Y-139106750D01*
X68528250Y-138948000D01*
X67937691Y-138948000D01*
X67704302Y-139044673D01*
X67563064Y-139185910D01*
X67528090Y-139131559D01*
X67315890Y-138986569D01*
X67142602Y-138951477D01*
X67228838Y-138743799D01*
X67229162Y-138371833D01*
X67087117Y-138028057D01*
X66824327Y-137764808D01*
X66480799Y-137622162D01*
X66108833Y-137621838D01*
X65989699Y-137671063D01*
X66032440Y-137460000D01*
X66032440Y-136860000D01*
X65988162Y-136624683D01*
X65924322Y-136525472D01*
X65981431Y-136441890D01*
X66032440Y-136190000D01*
X66032440Y-136068242D01*
X69005974Y-139041776D01*
X69005974Y-139041776D01*
G37*
X69005974Y-139041776D02*
X68941000Y-139106750D01*
X68941000Y-140081000D01*
X70040250Y-140081000D01*
X70169724Y-139951526D01*
X77694599Y-147476401D01*
X77941161Y-147641148D01*
X78232000Y-147699000D01*
X79290040Y-147699000D01*
X79128559Y-147802910D01*
X79023274Y-147957000D01*
X75571440Y-147957000D01*
X75571440Y-147929000D01*
X75527162Y-147693683D01*
X75388090Y-147477559D01*
X75175890Y-147332569D01*
X74924000Y-147281560D01*
X74174000Y-147281560D01*
X73938683Y-147325838D01*
X73722559Y-147464910D01*
X73577569Y-147677110D01*
X73546608Y-147830000D01*
X71770914Y-147830000D01*
X71813440Y-147620000D01*
X71813440Y-147020000D01*
X71769162Y-146784683D01*
X71705322Y-146685472D01*
X71762431Y-146601890D01*
X71813440Y-146350000D01*
X71813440Y-145750000D01*
X71769162Y-145514683D01*
X71630090Y-145298559D01*
X71417890Y-145153569D01*
X71166000Y-145102560D01*
X69616000Y-145102560D01*
X69380683Y-145146838D01*
X69164559Y-145285910D01*
X69019569Y-145498110D01*
X68968560Y-145750000D01*
X68968560Y-146350000D01*
X69012838Y-146585317D01*
X69076678Y-146684528D01*
X69019569Y-146768110D01*
X68990830Y-146910028D01*
X60946401Y-138865599D01*
X60699839Y-138700852D01*
X60409000Y-138643000D01*
X60249334Y-138643000D01*
X60235162Y-138567683D01*
X60096090Y-138351559D01*
X60026289Y-138303866D01*
X60083441Y-138267090D01*
X60228431Y-138054890D01*
X60247039Y-137963000D01*
X60790000Y-137963000D01*
X61080839Y-137905148D01*
X61327401Y-137740401D01*
X62417802Y-136650000D01*
X63230086Y-136650000D01*
X63187560Y-136860000D01*
X63187560Y-137460000D01*
X63231838Y-137695317D01*
X63370910Y-137911441D01*
X63583110Y-138056431D01*
X63835000Y-138107440D01*
X63850000Y-138107440D01*
X63850000Y-138504000D01*
X63907852Y-138794839D01*
X64072599Y-139041401D01*
X64916560Y-139885362D01*
X64916560Y-140833000D01*
X64960838Y-141068317D01*
X65099910Y-141284441D01*
X65312110Y-141429431D01*
X65564000Y-141480440D01*
X67064000Y-141480440D01*
X67299317Y-141436162D01*
X67515441Y-141297090D01*
X67561969Y-141228994D01*
X67704302Y-141371327D01*
X67937691Y-141468000D01*
X68528250Y-141468000D01*
X68687000Y-141309250D01*
X68687000Y-140335000D01*
X68941000Y-140335000D01*
X68941000Y-141309250D01*
X69099750Y-141468000D01*
X69690309Y-141468000D01*
X69923698Y-141371327D01*
X70102327Y-141192699D01*
X70199000Y-140959310D01*
X70199000Y-140493750D01*
X70040250Y-140335000D01*
X68941000Y-140335000D01*
X68687000Y-140335000D01*
X68667000Y-140335000D01*
X68667000Y-140081000D01*
X68687000Y-140081000D01*
X68687000Y-139106750D01*
X68528250Y-138948000D01*
X67937691Y-138948000D01*
X67704302Y-139044673D01*
X67563064Y-139185910D01*
X67528090Y-139131559D01*
X67315890Y-138986569D01*
X67142602Y-138951477D01*
X67228838Y-138743799D01*
X67229162Y-138371833D01*
X67087117Y-138028057D01*
X66824327Y-137764808D01*
X66480799Y-137622162D01*
X66108833Y-137621838D01*
X65989699Y-137671063D01*
X66032440Y-137460000D01*
X66032440Y-136860000D01*
X65988162Y-136624683D01*
X65924322Y-136525472D01*
X65981431Y-136441890D01*
X66032440Y-136190000D01*
X66032440Y-136068242D01*
X69005974Y-139041776D01*
G36*
X87158254Y-57522779D02*
X87607765Y-57823133D01*
X88138000Y-57928603D01*
X88668235Y-57823133D01*
X89043000Y-57572723D01*
X89043000Y-61213995D01*
X89042999Y-61214000D01*
X89167457Y-61839688D01*
X89521880Y-62370120D01*
X92069017Y-64917257D01*
X92046569Y-64950110D01*
X91995560Y-65202000D01*
X91995560Y-68402000D01*
X92039838Y-68637317D01*
X92178910Y-68853441D01*
X92391110Y-68998431D01*
X92643000Y-69049440D01*
X93233000Y-69049440D01*
X93233000Y-92723000D01*
X93290852Y-93013839D01*
X93455599Y-93260401D01*
X108428599Y-108233401D01*
X108675161Y-108398148D01*
X108966000Y-108456000D01*
X138496198Y-108456000D01*
X141988000Y-111947802D01*
X141988000Y-125542198D01*
X138591670Y-128938528D01*
X138562090Y-128892559D01*
X138349890Y-128747569D01*
X138098000Y-128696560D01*
X136898000Y-128696560D01*
X136662683Y-128740838D01*
X136446559Y-128879910D01*
X136398866Y-128949711D01*
X136362090Y-128892559D01*
X136149890Y-128747569D01*
X136058000Y-128728961D01*
X136058000Y-127559334D01*
X136133317Y-127545162D01*
X136349441Y-127406090D01*
X136397134Y-127336289D01*
X136433910Y-127393441D01*
X136646110Y-127538431D01*
X136898000Y-127589440D01*
X138098000Y-127589440D01*
X138333317Y-127545162D01*
X138549441Y-127406090D01*
X138694431Y-127193890D01*
X138745440Y-126942000D01*
X138745440Y-126042000D01*
X138701162Y-125806683D01*
X138562090Y-125590559D01*
X138349890Y-125445569D01*
X138235000Y-125422303D01*
X138235000Y-124944334D01*
X138310317Y-124930162D01*
X138526441Y-124791090D01*
X138671431Y-124578890D01*
X138722440Y-124327000D01*
X138722440Y-123577000D01*
X138678162Y-123341683D01*
X138539090Y-123125559D01*
X138326890Y-122980569D01*
X138075000Y-122929560D01*
X136875000Y-122929560D01*
X136639683Y-122973838D01*
X136525022Y-123047620D01*
X136426890Y-122980569D01*
X136335000Y-122961961D01*
X136335000Y-118872000D01*
X136332763Y-118860750D01*
X138615000Y-118860750D01*
X138615000Y-119301309D01*
X138711673Y-119534698D01*
X138890301Y-119713327D01*
X139123690Y-119810000D01*
X139414250Y-119810000D01*
X139573000Y-119651250D01*
X139573000Y-118702000D01*
X139827000Y-118702000D01*
X139827000Y-119651250D01*
X139985750Y-119810000D01*
X140276310Y-119810000D01*
X140509699Y-119713327D01*
X140688327Y-119534698D01*
X140785000Y-119301309D01*
X140785000Y-118860750D01*
X140626250Y-118702000D01*
X139827000Y-118702000D01*
X139573000Y-118702000D01*
X138773750Y-118702000D01*
X138615000Y-118860750D01*
X136332763Y-118860750D01*
X136277148Y-118581161D01*
X136277148Y-118581160D01*
X136150440Y-118391528D01*
X136150440Y-117825000D01*
X136106162Y-117589683D01*
X136032380Y-117475022D01*
X136099431Y-117376890D01*
X136118039Y-117285000D01*
X138694895Y-117285000D01*
X138785910Y-117426441D01*
X138854006Y-117472969D01*
X138711673Y-117615302D01*
X138615000Y-117848691D01*
X138615000Y-118289250D01*
X138773750Y-118448000D01*
X139573000Y-118448000D01*
X139573000Y-118428000D01*
X139827000Y-118428000D01*
X139827000Y-118448000D01*
X140626250Y-118448000D01*
X140785000Y-118289250D01*
X140785000Y-117848691D01*
X140688327Y-117615302D01*
X140547090Y-117474064D01*
X140601441Y-117439090D01*
X140746431Y-117226890D01*
X140797440Y-116975000D01*
X140797440Y-115775000D01*
X140753162Y-115539683D01*
X140614090Y-115323559D01*
X140401890Y-115178569D01*
X140150000Y-115127560D01*
X139250000Y-115127560D01*
X139014683Y-115171838D01*
X138798559Y-115310910D01*
X138653569Y-115523110D01*
X138604585Y-115765000D01*
X136120334Y-115765000D01*
X136106162Y-115689683D01*
X135967090Y-115473559D01*
X135754890Y-115328569D01*
X135503000Y-115277560D01*
X134955362Y-115277560D01*
X128360401Y-108682599D01*
X128113839Y-108517852D01*
X127823000Y-108460000D01*
X103946802Y-108460000D01*
X89406000Y-93919198D01*
X89406000Y-64897000D01*
X89348148Y-64606161D01*
X89183401Y-64359599D01*
X86358000Y-61534198D01*
X86358000Y-57669609D01*
X86577746Y-57522779D01*
X86868000Y-57088384D01*
X87158254Y-57522779D01*
X87158254Y-57522779D01*
G37*
X87158254Y-57522779D02*
X87607765Y-57823133D01*
X88138000Y-57928603D01*
X88668235Y-57823133D01*
X89043000Y-57572723D01*
X89043000Y-61213995D01*
X89042999Y-61214000D01*
X89167457Y-61839688D01*
X89521880Y-62370120D01*
X92069017Y-64917257D01*
X92046569Y-64950110D01*
X91995560Y-65202000D01*
X91995560Y-68402000D01*
X92039838Y-68637317D01*
X92178910Y-68853441D01*
X92391110Y-68998431D01*
X92643000Y-69049440D01*
X93233000Y-69049440D01*
X93233000Y-92723000D01*
X93290852Y-93013839D01*
X93455599Y-93260401D01*
X108428599Y-108233401D01*
X108675161Y-108398148D01*
X108966000Y-108456000D01*
X138496198Y-108456000D01*
X141988000Y-111947802D01*
X141988000Y-125542198D01*
X138591670Y-128938528D01*
X138562090Y-128892559D01*
X138349890Y-128747569D01*
X138098000Y-128696560D01*
X136898000Y-128696560D01*
X136662683Y-128740838D01*
X136446559Y-128879910D01*
X136398866Y-128949711D01*
X136362090Y-128892559D01*
X136149890Y-128747569D01*
X136058000Y-128728961D01*
X136058000Y-127559334D01*
X136133317Y-127545162D01*
X136349441Y-127406090D01*
X136397134Y-127336289D01*
X136433910Y-127393441D01*
X136646110Y-127538431D01*
X136898000Y-127589440D01*
X138098000Y-127589440D01*
X138333317Y-127545162D01*
X138549441Y-127406090D01*
X138694431Y-127193890D01*
X138745440Y-126942000D01*
X138745440Y-126042000D01*
X138701162Y-125806683D01*
X138562090Y-125590559D01*
X138349890Y-125445569D01*
X138235000Y-125422303D01*
X138235000Y-124944334D01*
X138310317Y-124930162D01*
X138526441Y-124791090D01*
X138671431Y-124578890D01*
X138722440Y-124327000D01*
X138722440Y-123577000D01*
X138678162Y-123341683D01*
X138539090Y-123125559D01*
X138326890Y-122980569D01*
X138075000Y-122929560D01*
X136875000Y-122929560D01*
X136639683Y-122973838D01*
X136525022Y-123047620D01*
X136426890Y-122980569D01*
X136335000Y-122961961D01*
X136335000Y-118872000D01*
X136332763Y-118860750D01*
X138615000Y-118860750D01*
X138615000Y-119301309D01*
X138711673Y-119534698D01*
X138890301Y-119713327D01*
X139123690Y-119810000D01*
X139414250Y-119810000D01*
X139573000Y-119651250D01*
X139573000Y-118702000D01*
X139827000Y-118702000D01*
X139827000Y-119651250D01*
X139985750Y-119810000D01*
X140276310Y-119810000D01*
X140509699Y-119713327D01*
X140688327Y-119534698D01*
X140785000Y-119301309D01*
X140785000Y-118860750D01*
X140626250Y-118702000D01*
X139827000Y-118702000D01*
X139573000Y-118702000D01*
X138773750Y-118702000D01*
X138615000Y-118860750D01*
X136332763Y-118860750D01*
X136277148Y-118581161D01*
X136277148Y-118581160D01*
X136150440Y-118391528D01*
X136150440Y-117825000D01*
X136106162Y-117589683D01*
X136032380Y-117475022D01*
X136099431Y-117376890D01*
X136118039Y-117285000D01*
X138694895Y-117285000D01*
X138785910Y-117426441D01*
X138854006Y-117472969D01*
X138711673Y-117615302D01*
X138615000Y-117848691D01*
X138615000Y-118289250D01*
X138773750Y-118448000D01*
X139573000Y-118448000D01*
X139573000Y-118428000D01*
X139827000Y-118428000D01*
X139827000Y-118448000D01*
X140626250Y-118448000D01*
X140785000Y-118289250D01*
X140785000Y-117848691D01*
X140688327Y-117615302D01*
X140547090Y-117474064D01*
X140601441Y-117439090D01*
X140746431Y-117226890D01*
X140797440Y-116975000D01*
X140797440Y-115775000D01*
X140753162Y-115539683D01*
X140614090Y-115323559D01*
X140401890Y-115178569D01*
X140150000Y-115127560D01*
X139250000Y-115127560D01*
X139014683Y-115171838D01*
X138798559Y-115310910D01*
X138653569Y-115523110D01*
X138604585Y-115765000D01*
X136120334Y-115765000D01*
X136106162Y-115689683D01*
X135967090Y-115473559D01*
X135754890Y-115328569D01*
X135503000Y-115277560D01*
X134955362Y-115277560D01*
X128360401Y-108682599D01*
X128113839Y-108517852D01*
X127823000Y-108460000D01*
X103946802Y-108460000D01*
X89406000Y-93919198D01*
X89406000Y-64897000D01*
X89348148Y-64606161D01*
X89183401Y-64359599D01*
X86358000Y-61534198D01*
X86358000Y-57669609D01*
X86577746Y-57522779D01*
X86868000Y-57088384D01*
X87158254Y-57522779D01*
M02*
