M48
;DRILL file {KiCad 4.0.2-stable} date 1/6/2017 6:19:48 PM
;FORMAT={-:-/ absolute / inch / decimal}
FMAT,2
INCH,TZ
T1C0.012
T2C0.016
T3C0.030
T4C0.035
T5C0.039
T6C0.049
T7C0.051
T8C0.073
T9C0.079
T10C0.148
%
G90
G05
M72
T1
X2.2225Y-5.9
X2.43Y-5.895
X2.485Y-5.4875
X2.5325Y-5.5525
X2.6025Y-5.6025
X2.7875Y-5.5925
X2.885Y-5.4825
X3.155Y-5.3
X3.385Y-5.2825
X3.395Y-5.2375
X3.5225Y-5.38
X3.5375Y-5.255
X3.86Y-5.405
X3.9225Y-5.37
X4.2325Y-5.15
X4.5275Y-5.2825
X4.705Y-5.4025
X5.5025Y-4.755
T2
X2.61Y-5.455
X2.635Y-5.8
X2.895Y-5.225
X2.99Y-5.28
X3.07Y-5.47
X3.61Y-5.485
X3.895Y-5.3
X3.95Y-2.865
X4.045Y-2.8
X4.165Y-2.84
X4.175Y-5.32
X4.25Y-3.
X4.28Y-4.725
X4.465Y-2.855
X4.975Y-5.335
X5.23Y-5.495
T3
X4.05Y-4.935
X4.05Y-5.035
X4.05Y-5.135
X4.05Y-5.48
X4.05Y-5.58
X4.05Y-5.68
X5.055Y-4.69
X5.055Y-4.79
X5.055Y-4.89
T4
X2.53Y-6.12
X2.63Y-6.12
X2.63Y-6.22
X2.73Y-6.12
T5
X3.37Y-2.205
X3.47Y-2.205
X3.57Y-2.205
T6
X2.4638Y-2.2047
X2.6638Y-2.2047
X2.9288Y-2.2047
X3.1288Y-2.2047
T7
X3.9738Y-2.1997
X4.1738Y-2.1997
X4.3738Y-2.1997
T8
X2.86Y-6.09
X2.945Y-6.59
X3.045Y-6.09
X3.145Y-6.59
X3.23Y-6.09
X3.87Y-6.09
X3.955Y-6.59
X4.055Y-6.09
X4.155Y-6.59
X4.24Y-6.09
X4.415Y-6.09
X4.5Y-6.59
X4.6Y-6.09
X4.7Y-6.59
X4.785Y-6.09
T9
X2.43Y-6.47
X2.83Y-6.47
T10
X3.4148Y-6.2212
X3.4148Y-6.485
X3.6646Y-6.0047
T0
M30
